<svg width="1376" height="438" viewBox="0 0 1376 438" fill="none" xmlns="http://www.w3.org/2000/svg">
<path d="M169.2 437.4C117.2 437.4 76 423 45.6 394.2C15.2 365 4.47035e-07 323.4 4.47035e-07 269.4V168.6C4.47035e-07 114.6 15.2 73.2 45.6 44.4C76 15.2 117.2 0.599972 169.2 0.599972C220.8 0.599972 260.6 14.8 288.6 43.2C317 71.2 331.2 109.8 331.2 159V162.6H253.2V156.6C253.2 131.8 246.2 111.4 232.2 95.4C218.6 79.4 197.6 71.4 169.2 71.4C141.2 71.4 119.2 80 103.2 97.2C87.2 114.4 79.2 137.8 79.2 167.4V270.6C79.2 299.8 87.2 323.2 103.2 340.8C119.2 358 141.2 366.6 169.2 366.6C197.6 366.6 218.6 358.6 232.2 342.6C246.2 326.2 253.2 305.8 253.2 281.4V270.6H331.2V279C331.2 328.2 317 367 288.6 395.4C260.6 423.4 220.8 437.4 169.2 437.4ZM515.733 437.4C486.133 437.4 459.533 431.4 435.933 419.4C412.333 407.4 393.733 390 380.133 367.2C366.533 344.4 359.733 317 359.733 285V275.4C359.733 243.4 366.533 216 380.133 193.2C393.733 170.4 412.333 153 435.933 141C459.533 129 486.133 123 515.733 123C545.333 123 571.933 129 595.533 141C619.133 153 637.733 170.4 651.333 193.2C664.933 216 671.733 243.4 671.733 275.4V285C671.733 317 664.933 344.4 651.333 367.2C637.733 390 619.133 407.4 595.533 419.4C571.933 431.4 545.333 437.4 515.733 437.4ZM515.733 370.2C538.933 370.2 558.133 362.8 573.333 348C588.533 332.8 596.133 311.2 596.133 283.2V277.2C596.133 249.2 588.533 227.8 573.333 213C558.533 197.8 539.333 190.2 515.733 190.2C492.533 190.2 473.333 197.8 458.133 213C442.933 227.8 435.333 249.2 435.333 277.2V283.2C435.333 311.2 442.933 332.8 458.133 348C473.333 362.8 492.533 370.2 515.733 370.2ZM717.516 429V8.99997H793.116V429H717.516ZM994.491 437.4C964.891 437.4 938.291 431.4 914.691 419.4C891.091 407.4 872.491 390 858.891 367.2C845.291 344.4 838.491 317 838.491 285V275.4C838.491 243.4 845.291 216 858.891 193.2C872.491 170.4 891.091 153 914.691 141C938.291 129 964.891 123 994.491 123C1024.09 123 1050.69 129 1074.29 141C1097.89 153 1116.49 170.4 1130.09 193.2C1143.69 216 1150.49 243.4 1150.49 275.4V285C1150.49 317 1143.69 344.4 1130.09 367.2C1116.49 390 1097.89 407.4 1074.29 419.4C1050.69 431.4 1024.09 437.4 994.491 437.4ZM994.491 370.2C1017.69 370.2 1036.89 362.8 1052.09 348C1067.29 332.8 1074.89 311.2 1074.89 283.2V277.2C1074.89 249.2 1067.29 227.8 1052.09 213C1037.29 197.8 1018.09 190.2 994.491 190.2C971.291 190.2 952.091 197.8 936.891 213C921.691 227.8 914.091 249.2 914.091 277.2V283.2C914.091 311.2 921.691 332.8 936.891 348C952.091 362.8 971.291 370.2 994.491 370.2ZM1196.27 429V131.4H1270.67V165H1281.47C1285.87 153 1293.07 144.2 1303.07 138.6C1313.47 133 1325.47 130.2 1339.07 130.2H1375.07V197.4H1337.87C1318.67 197.4 1302.87 202.6 1290.47 213C1278.07 223 1271.87 238.6 1271.87 259.8V429H1196.27Z" fill="black"/>
</svg>
