<svg width="26" height="26" viewBox="0 0 26 26" fill="none" xmlns="http://www.w3.org/2000/svg">
<rect x="0.799622" y="0.904236" width="24.4042" height="24.4042" rx="4.20794" stroke="#7B61FF" stroke-width="0.400757" stroke-dasharray="2 2"/>
<path d="M6.51475 16.9421C7.76287 18.4075 9.43108 19.4541 11.2936 19.9403C12.969 20.2837 14.7098 20.0952 16.2728 19.4011C17.0523 19.0425 17.7598 18.5447 18.3604 17.932C18.3862 17.888 18.3941 17.8358 18.3824 17.7862C18.3708 17.7366 18.3405 17.6933 18.2979 17.6654C18.2173 17.6357 18.1289 17.6351 18.0479 17.6638C16.9038 18.2582 15.6751 18.6729 14.4049 18.8935C13.0728 19.0404 11.7252 18.9469 10.4262 18.6175C9.09758 18.1774 7.84266 17.54 6.70354 16.7267C6.6745 16.7173 6.64333 16.7166 6.61389 16.7247C6.58445 16.7328 6.55803 16.7493 6.53788 16.7723C6.51773 16.7952 6.50475 16.8235 6.50052 16.8538C6.4963 16.884 6.50165 16.9145 6.51475 16.9421Z" fill="#202327"/>
<path d="M17.1009 17.2459C17.6051 17.1481 18.1208 17.1246 18.6318 17.1762L18.6527 17.1802C18.7332 17.1997 18.8027 17.2504 18.8459 17.321C18.8891 17.3917 18.9026 17.4766 18.8833 17.5572C18.7832 18.0547 18.6243 18.5385 18.41 18.9985C18.4038 19.0186 18.4058 19.0403 18.4155 19.059C18.4252 19.0776 18.4419 19.0916 18.4619 19.098C18.4736 19.1017 18.4861 19.1025 18.4982 19.1005C18.5103 19.0985 18.5218 19.0937 18.5317 19.0864C18.8333 18.8439 19.0772 18.5372 19.2455 18.1887C19.4139 17.8401 19.5024 17.4585 19.5048 17.0714C19.5123 16.9751 19.4838 16.8794 19.4247 16.803C19.3656 16.7265 19.2802 16.6748 19.1851 16.6579C18.436 16.5288 17.6659 16.6894 17.0309 17.1071C17.0138 17.1195 17.0024 17.1381 16.9991 17.1589C16.9957 17.1797 17.0007 17.201 17.013 17.2181C17.0229 17.2314 17.0367 17.2412 17.0525 17.2462C17.0683 17.2512 17.0852 17.2511 17.1009 17.2459Z" fill="#202327"/>
<path d="M14.5085 15.2595C14.2392 15.5576 13.9358 15.823 13.6045 16.0503C12.9725 16.4237 12.2541 16.6261 11.52 16.6373C10.871 16.6231 10.2426 16.4062 9.72306 16.0168C9.29861 15.6288 8.99294 15.1283 8.84156 14.5735C8.69019 14.0186 8.69931 13.4323 8.86788 12.8824C9.02967 12.3953 9.29627 11.9496 9.64891 11.5766C10.0016 11.2037 10.4317 10.9126 10.9089 10.7238C11.9707 10.4048 13.0729 10.2411 14.1815 10.2378V9.07314C14.1455 8.81571 14.0255 8.57735 13.8403 8.39495C13.6551 8.21256 13.4149 8.0963 13.1569 8.06417C12.8266 8.01919 12.4903 8.06321 12.1827 8.1917C11.9664 8.29344 11.7771 8.44448 11.6298 8.63269C11.4825 8.82089 11.3814 9.04102 11.3347 9.27537C11.3002 9.34784 11.2434 9.40735 11.1727 9.44515C11.1019 9.48296 11.0208 9.49707 10.9415 9.48542L9.35048 9.34476C9.27929 9.32552 9.21584 9.28461 9.16891 9.22772C9.12198 9.17083 9.0939 9.10075 9.08855 9.02719C9.2159 8.24888 9.62277 7.54373 10.2329 7.04395C11.0406 6.41871 12.0372 6.08711 13.0585 6.10375C14.0048 6.11241 14.9252 6.4146 15.6925 6.96862C16.0097 7.23665 16.2612 7.57391 16.4276 7.95444C16.5939 8.33496 16.6707 8.74859 16.6521 9.16347V13.1928C16.6718 13.5317 16.7567 13.8637 16.9021 14.1705L17.3982 14.8966C17.4244 14.9514 17.438 15.0114 17.438 15.0721C17.438 15.1329 17.4244 15.1928 17.3982 15.2476L15.9294 16.4888C15.8681 16.5221 15.7991 16.5384 15.7294 16.536C15.6597 16.5335 15.5919 16.5125 15.5331 16.4751C15.1503 16.1065 14.8069 15.6992 14.5085 15.2595ZM14.1772 11.6078C13.717 11.5985 13.2569 11.6287 12.8019 11.6981C12.527 11.7598 12.2685 11.8799 12.044 12.05C11.8195 12.2202 11.6341 12.4366 11.5003 12.6846C11.39 12.9554 11.3414 13.2474 11.358 13.5393C11.3746 13.8313 11.456 14.1159 11.5963 14.3724C11.7676 14.5865 12.0037 14.7393 12.2691 14.808C12.5346 14.8767 12.8151 14.8575 13.0688 14.7534C13.3683 14.5614 13.6225 14.3066 13.8139 14.0066C14.0053 13.7067 14.1292 13.3687 14.1772 13.0162V11.6078Z" fill="#202327"/>
</svg>
