<svg width="26" height="26" viewBox="0 0 26 26" fill="none" xmlns="http://www.w3.org/2000/svg">
<rect x="0.823975" y="0.904236" width="24.4042" height="24.4042" rx="4.20794" stroke="#7B61FF" stroke-width="0.400757" stroke-dasharray="2 2"/>
<path d="M15.78 12.4066C14.876 12.4066 14.7509 13.3075 14.7509 13.3075H16.6714C16.6714 13.3075 16.6839 12.4066 15.78 12.4066Z" fill="#202327"/>
<path d="M11.4271 13.3065H9.72546V14.8705H11.3426C11.5866 14.8643 12.0433 14.7954 12.0433 14.1104C12.0433 13.2971 11.4271 13.3065 11.4271 13.3065Z" fill="#202327"/>
<path d="M13.0268 6.1051C9.16033 6.1051 6.02527 9.24016 6.02527 13.1066C6.02527 16.9731 9.16033 20.1082 13.0268 20.1082C16.8933 20.1082 20.0283 16.9731 20.0283 13.1066C20.0283 9.24016 16.8933 6.1051 13.0268 6.1051ZM14.5021 10.406H16.912V11.1249H14.5021V10.406ZM13.2831 14.1819C13.2831 15.9635 11.4264 15.9072 11.4264 15.9072H8.38828V10.0622H11.4264C12.3516 10.0622 13.0799 10.5717 13.0799 11.6188C13.0799 12.6659 12.1891 12.7315 12.1891 12.7315C13.3644 12.7315 13.2831 14.1819 13.2831 14.1819ZM17.7903 14.085H14.7615C14.7615 15.1696 15.7899 15.1008 15.7899 15.1008C16.762 15.1008 16.7276 14.4725 16.7276 14.4725H17.7559C17.7559 16.1417 15.7555 16.026 15.7555 16.026C13.3581 16.026 13.5113 13.7912 13.5113 13.7912C13.5113 13.7912 13.5081 11.5469 15.7555 11.5469C18.1217 11.55 17.7903 14.085 17.7903 14.085Z" fill="#202327"/>
<path d="M11.84 11.709C11.84 11.1022 11.4271 11.1022 11.4271 11.1022H9.72546V12.4065H11.3207C11.596 12.4065 11.84 12.3158 11.84 11.709Z" fill="#202327"/>
</svg>
