<svg width="26" height="26" viewBox="0 0 26 26" fill="none" xmlns="http://www.w3.org/2000/svg">
<rect x="0.827454" y="0.904236" width="24.4042" height="24.4042" rx="4.20794" stroke="#7B61FF" stroke-width="0.400757" stroke-dasharray="2 2"/>
<g clip-path="url(#clip0_13_4543)">
<path d="M20.1296 6.11234C20.1033 6.10823 20.0768 6.10582 20.0502 6.10515H6.01592C5.74742 6.1014 5.53237 6.3202 5.52862 6.59744C5.52741 6.6268 5.52983 6.6562 5.53581 6.68496L7.57688 19.5393C7.60241 19.6949 7.67946 19.8375 7.79568 19.9441C7.91065 20.0494 8.06081 20.1079 8.21671 20.1082H18.0057C18.1229 20.1084 18.2362 20.0659 18.3244 19.9887C18.4127 19.9116 18.4698 19.8049 18.4852 19.6887L19.7005 11.9399H15.1929L14.6159 15.4406H11.4427L10.6385 10.8146H19.8774L20.5263 6.68871C20.566 6.41522 20.3894 6.1561 20.1296 6.11234Z" fill="#202327"/>
</g>
<defs>
<clipPath id="clip0_13_4543">
<rect width="16.0035" height="16.0035" fill="white" transform="translate(5.02783 5.10461)"/>
</clipPath>
</defs>
</svg>
