<svg width="26" height="26" viewBox="0 0 26 26" fill="none" xmlns="http://www.w3.org/2000/svg">
<rect x="0.830933" y="0.904236" width="24.4042" height="24.4042" rx="4.20794" stroke="#7B61FF" stroke-width="0.400757" stroke-dasharray="2 2"/>
<path d="M17.8617 13.8315C17.7054 13.4721 17.4647 13.1564 16.9834 12.8907C16.7346 12.75 16.4673 12.6448 16.1894 12.5781C16.3764 12.4913 16.5484 12.3752 16.6989 12.2343C16.9202 12.0365 17.0879 11.786 17.1865 11.506C17.2773 11.2215 17.3144 10.9226 17.2959 10.6246C17.2615 10.0995 17.1584 9.58999 16.8833 9.22429C16.6083 8.85858 16.2207 8.57727 15.7081 8.38035C15.3142 8.23032 14.911 8.13655 14.2859 8.10217V6.10486H13.0356V8.10529H12.0354V6.10486H10.7539V8.10529H8.03235V9.60562H8.90348C9.17541 9.60562 9.35983 9.63063 9.4536 9.67751C9.54084 9.71484 9.61259 9.78106 9.65676 9.86505C9.6974 9.94319 9.71615 10.1276 9.71615 10.412V15.8257C9.71615 16.107 9.6974 16.2883 9.65676 16.3696C9.61613 16.4509 9.59425 16.5228 9.49735 16.5665C9.40046 16.6103 9.39733 16.6071 9.12853 16.6071H8.30335L8.03235 18.1075H10.7517V20.1079H12.0332V18.1075H13.0334V20.1079H14.2837V18.095C15.0964 18.0543 15.6746 17.9481 16.1404 17.773C16.7436 17.548 17.2062 17.2198 17.5375 16.7884C17.8689 16.3571 17.9751 15.6976 18.0042 15.1881C18.0251 14.7349 18.0033 14.1504 17.8617 13.8315ZM12.0332 9.79316H13.0334V12.1062H12.0332V9.79316ZM12.0332 16.4196V13.6065H13.0334V16.4196H12.0332ZM14.2837 9.91506C14.4713 9.9932 14.5932 10.1495 14.7151 10.312C14.8495 10.4902 14.9182 10.7277 14.9182 10.9809C14.9182 11.2247 14.8276 11.4341 14.6838 11.6217C14.565 11.7748 14.4713 11.8811 14.2837 11.9686V9.91506ZM15.1839 15.7507C14.9401 15.9664 14.7994 16.0664 14.4931 16.1821C14.4246 16.2062 14.3547 16.226 14.2837 16.2414V13.6534C14.406 13.6715 14.525 13.7073 14.6369 13.7596C14.8807 13.8628 15.112 13.9753 15.2558 14.1722C15.4152 14.3984 15.5024 14.6676 15.5059 14.9443C15.5049 15.285 15.4183 15.5444 15.1839 15.7507Z" fill="#202327"/>
</svg>
