<svg width="26" height="26" viewBox="0 0 26 26" fill="none" xmlns="http://www.w3.org/2000/svg">
<rect x="0.84137" y="0.904236" width="24.4042" height="24.4042" rx="4.20794" stroke="#7B61FF" stroke-width="0.400757" stroke-dasharray="2 2"/>
<path d="M10.9429 13.1044C10.9427 13.5199 11.0658 13.9261 11.2966 14.2717C11.5274 14.6172 11.8554 14.8866 12.2393 15.0457C12.6231 15.2048 13.0455 15.2465 13.4531 15.1655C13.8606 15.0845 14.235 14.8845 14.5289 14.5907C14.8227 14.2969 15.0229 13.9226 15.104 13.5151C15.1851 13.1076 15.1435 12.6851 14.9845 12.3012C14.8256 11.9173 14.5563 11.5892 14.2108 11.3584C13.8653 11.1275 13.4591 11.0043 13.0436 11.0043C12.487 11.0058 11.9537 11.2275 11.56 11.621C11.1664 12.0145 10.9445 12.5478 10.9429 13.1044Z" fill="#202327"/>
<path d="M19.9426 11.912C19.9426 11.912 19.9426 11.912 19.9426 11.9135C19.8914 11.6082 19.8182 11.3069 19.7238 11.0121H19.7204H14.863C15.4585 11.5435 15.8433 12.2677 15.8433 13.1079C15.8446 13.6002 15.7116 14.0836 15.4585 14.506L12.2612 20.0594C12.2614 20.0622 12.2614 20.065 12.2612 20.0678C12.5208 20.0955 12.7816 20.1093 13.0427 20.1078C13.2564 20.1078 13.4681 20.0956 13.6772 20.0766C13.9904 20.0482 14.3014 19.9987 14.608 19.9284C17.7212 19.2176 20.0442 16.432 20.0442 13.1044C20.0442 12.7048 20.0102 12.3058 19.9426 11.912Z" fill="#202327"/>
<path d="M13.0428 15.9033C11.9926 15.9033 11.1174 15.3435 10.6269 14.5033L7.41656 8.95025L7.41218 8.94275C6.71944 9.88063 6.27189 10.9767 6.11016 12.1314C5.94843 13.2861 6.07764 14.4629 6.48606 15.555C6.89447 16.6471 7.56917 17.62 8.4489 18.3852C9.32863 19.1504 10.3855 19.6838 11.5237 19.937V19.9355L13.952 15.7283C13.6617 15.84 13.3538 15.8992 13.0428 15.9033Z" fill="#202327"/>
<path d="M7.89483 8.37287L10.3125 12.5378C10.4381 11.9057 10.7787 11.3366 11.2765 10.9273C11.7744 10.518 12.3987 10.2939 13.0431 10.293H19.4561C19.2356 9.80857 18.9656 9.34831 18.6503 8.91956L18.654 8.92206C18.9681 9.35003 19.2369 9.80947 19.4561 10.293H19.4614C19.2424 9.80802 18.9736 9.34711 18.6594 8.91768C18.6555 8.91528 18.6518 8.91256 18.6484 8.90955C18.0324 8.08601 17.2425 7.40834 16.3348 6.92474C15.4272 6.44115 14.4241 6.16351 13.397 6.11159C12.3698 6.05966 11.3439 6.23472 10.3921 6.62432C9.44031 7.01391 8.58606 7.60847 7.89014 8.36568L7.89483 8.37287Z" fill="#202327"/>
</svg>
