<svg width="26" height="26" viewBox="0 0 26 26" fill="none" xmlns="http://www.w3.org/2000/svg">
<rect x="0.848328" y="0.904236" width="24.4042" height="24.4042" rx="4.20794" stroke="#7B61FF" stroke-width="0.400757" stroke-dasharray="2 2"/>
<path d="M12.5914 14.6057C12.1122 14.2816 11.6299 13.9622 11.1506 13.6382C11.0881 13.595 11.0434 13.5919 10.9786 13.6382L9.76245 14.4552C10.7384 15.1049 12.6777 16.4005 12.6777 16.4005V14.718C12.6777 14.6798 12.6292 14.631 12.5914 14.6057Z" fill="#202327"/>
<path d="M11.1478 12.629C11.6313 12.3112 12.1121 11.9894 12.5901 11.6637C12.6154 11.6434 12.6362 11.6181 12.6513 11.5893C12.6664 11.5606 12.6753 11.5291 12.6777 11.4967V9.87952C12.6777 9.87952 10.7383 11.1657 9.7605 11.817C10.189 12.1035 10.5947 12.3772 11.0048 12.644C11.0367 12.6647 11.1112 12.6528 11.1478 12.629Z" fill="#202327"/>
<path d="M13.4831 11.6489C13.9775 11.984 14.4741 12.3158 14.9729 12.6442C14.9916 12.6535 15.0121 12.6583 15.0328 12.6583C15.0536 12.6583 15.0741 12.6535 15.0927 12.6442L16.3364 11.8162L13.4255 9.87V11.5388C13.4267 11.5602 13.4324 11.5811 13.4424 11.6001C13.4523 11.6191 13.4662 11.6357 13.4831 11.6489Z" fill="#202327"/>
<path d="M13.1176 12.3047C13.0942 12.294 13.0686 12.2889 13.0428 12.2898C13.0171 12.2907 12.9919 12.2976 12.9693 12.3101C12.8186 12.4039 12.6731 12.504 12.5261 12.6025C12.268 12.7755 11.7332 13.1343 11.7332 13.1343L12.9481 13.9432C12.9774 13.9611 13.0111 13.9709 13.0455 13.9715C13.0799 13.9721 13.1139 13.9635 13.1439 13.9466L14.3638 13.1333C14.3638 13.1333 13.2981 12.4245 13.1176 12.3047Z" fill="#202327"/>
<path d="M9.45581 12.516V13.7624L10.3878 13.1381L9.45581 12.516Z" fill="#202327"/>
<path d="M13.0501 6.10437C9.18333 6.10437 6.04858 9.23911 6.04858 13.1059C6.04858 16.9727 9.18333 20.1074 13.0501 20.1074C16.9169 20.1074 20.0516 16.9727 20.0516 13.1059C20.0516 9.23911 16.9169 6.10437 13.0501 6.10437ZM17.3948 14.3874C17.3948 14.5681 17.312 14.6956 17.1601 14.7966C15.8742 15.6509 14.5896 16.5073 13.3064 17.3656C13.1236 17.4881 12.9573 17.4828 12.775 17.3612C11.5004 16.5068 10.2227 15.6559 8.94203 14.8085C8.7823 14.7025 8.70479 14.5722 8.70479 14.3793V11.8869C8.70479 11.695 8.78355 11.5637 8.94296 11.458C10.2217 10.61 11.5041 9.75892 12.7791 8.90498C12.961 8.78339 13.1257 8.77995 13.3086 8.90217C14.591 9.7609 15.8752 10.6172 17.1613 11.4712C17.3076 11.5684 17.3942 11.6884 17.3942 11.8669L17.3948 14.3874Z" fill="#202327"/>
<path d="M14.9348 13.6451C14.4638 13.965 13.9905 14.2814 13.515 14.5942C13.4397 14.6436 13.4246 14.6977 13.4256 14.7878V16.3937L16.3346 14.4543L15.1294 13.6448C15.0574 13.5944 15.0077 13.5957 14.9348 13.6451Z" fill="#202327"/>
<path d="M16.6203 13.7605V12.5138L15.6892 13.139L16.6203 13.7605Z" fill="#202327"/>
</svg>
