<svg width="26" height="26" viewBox="0 0 26 26" fill="none" xmlns="http://www.w3.org/2000/svg">
<rect x="0.862244" y="0.904236" width="24.4042" height="24.4042" rx="4.20794" stroke="#7B61FF" stroke-width="0.400757" stroke-dasharray="2 2"/>
<g clip-path="url(#clip0_13_4573)">
<path d="M19.5666 7.18322C19.5626 6.77198 19.3967 6.37888 19.1049 6.08913C18.813 5.79938 18.4187 5.63635 18.0075 5.63538L8.11531 5.60413C7.70448 5.60421 7.31044 5.76719 7.01959 6.05734C6.72873 6.34749 6.5648 6.74113 6.56372 7.15196V17.3567C6.56372 18.21 7.26012 18.857 8.11531 18.857H16.5659L16.1596 17.4817L19.5666 20.6074V7.18322ZM15.2109 15.4128C15.2109 15.4128 14.9384 15.0881 14.7108 14.8089C15.7029 14.5295 16.0814 13.9184 16.0814 13.9184C15.8089 14.0992 15.5169 14.2486 15.2109 14.3638C14.8576 14.5105 14.4897 14.6194 14.1135 14.6886C13.4652 14.8077 12.8004 14.8051 12.1531 14.6811C11.7723 14.6104 11.3996 14.5015 11.0406 14.356C10.8507 14.2833 10.6661 14.1976 10.488 14.0994C10.4652 14.0844 10.4427 14.0769 10.4199 14.0616C10.4046 14.0541 10.3971 14.0466 10.3886 14.0466C10.2523 13.9709 10.1767 13.9181 10.1767 13.9181C10.1767 13.9181 10.5399 14.5148 11.5014 14.8014C11.2741 15.0884 10.9941 15.4206 10.9941 15.4206C9.32151 15.3678 8.68575 14.2807 8.68575 14.2807C8.68575 11.8721 9.77567 9.91663 9.77567 9.91663C10.8656 9.10864 11.8949 9.13146 11.8949 9.13146L11.9705 9.2221C10.608 9.60718 9.98759 10.2036 9.98759 10.2036C9.98759 10.2036 10.1539 10.1129 10.4339 9.99196C11.2438 9.63719 11.8874 9.54655 12.1531 9.51654C12.1955 9.50773 12.2386 9.5026 12.2818 9.50122C12.789 9.43542 13.3022 9.43038 13.8106 9.48622C14.6088 9.57791 15.3822 9.8214 16.0889 10.2036C16.0889 10.2036 15.491 9.63625 14.2041 9.2518L14.3101 9.13114C14.3101 9.13114 15.3469 9.10833 16.4296 9.91757C16.4296 9.91757 17.5195 11.873 17.5195 14.2816C17.5195 14.2729 16.8835 15.36 15.2109 15.4128Z" fill="#202327"/>
<path d="M11.6925 11.9188C11.2599 11.9188 10.9182 12.29 10.9182 12.7517C10.9182 13.2134 11.2674 13.5846 11.6925 13.5846C12.125 13.5846 12.4667 13.2137 12.4667 12.7517C12.4746 12.289 12.125 11.9188 11.6925 11.9188Z" fill="#202327"/>
<path d="M14.4552 11.9188C14.0226 11.9188 13.6809 12.29 13.6809 12.7517C13.6809 13.2134 14.0301 13.5846 14.4552 13.5846C14.8881 13.5846 15.2294 13.2137 15.2294 12.7517C15.2294 12.2896 14.8805 11.9188 14.4552 11.9188Z" fill="#202327"/>
</g>
<defs>
<clipPath id="clip0_13_4573">
<rect width="16.0035" height="16.0035" fill="white" transform="translate(5.06262 5.10461)"/>
</clipPath>
</defs>
</svg>
