<svg width="26" height="26" viewBox="0 0 26 26" fill="none" xmlns="http://www.w3.org/2000/svg">
<rect x="0.865723" y="0.904236" width="24.4042" height="24.4042" rx="4.20794" stroke="#7B61FF" stroke-width="0.400757" stroke-dasharray="2 2"/>
<g clip-path="url(#clip0_13_4576)">
<path d="M20.9129 11.7047C20.8685 11.6675 20.4675 11.3627 19.6067 11.3627C19.3803 11.364 19.1544 11.3839 18.9312 11.4221C18.7681 10.2844 17.8254 9.73425 17.7882 9.70299L17.5581 9.56921L17.4096 9.78489C17.2224 10.0777 17.0845 10.3992 17.0014 10.7367C16.8451 11.3837 16.942 11.9932 17.2687 12.5136C16.8752 12.7368 16.2372 12.7887 16.1034 12.7949H5.56394C5.49826 12.7949 5.43322 12.8078 5.37257 12.833C5.31192 12.8582 5.25685 12.8952 5.21054 12.9417C5.16423 12.9883 5.12759 13.0436 5.10273 13.1044C5.07787 13.1652 5.06529 13.2303 5.0657 13.296C5.05154 14.2213 5.20783 15.1413 5.52674 16.01C5.89057 16.9618 6.43225 17.6697 7.12865 18.0992C7.91695 18.5824 9.20098 18.8575 10.6482 18.8575C11.3029 18.8575 11.9563 18.7978 12.6002 18.679C13.4978 18.5162 14.3612 18.202 15.1535 17.7497C15.8058 17.3708 16.3923 16.8887 16.8905 16.3222C17.7291 15.378 18.2264 14.3218 18.5902 13.3841H18.7387C19.6517 13.3841 20.2159 13.0197 20.5275 12.7074C20.7344 12.5114 20.8964 12.273 21.0026 12.0085L21.0695 11.8153L20.9129 11.7047Z" fill="#202327"/>
<path d="M6.5447 12.4968H7.95873C7.99198 12.4968 8.02388 12.4836 8.04739 12.4601C8.0709 12.4366 8.08412 12.4047 8.08412 12.3715V11.1026C8.08412 11.0693 8.0709 11.0374 8.04739 11.0139C8.02388 10.9904 7.99198 10.9772 7.95873 10.9772H6.5447C6.51144 10.9772 6.47955 10.9904 6.45604 11.0139C6.43252 11.0374 6.41931 11.0693 6.41931 11.1026V12.3702C6.42055 12.4031 6.43416 12.4342 6.45741 12.4575C6.48066 12.4807 6.51184 12.4943 6.5447 12.4956" fill="#202327"/>
<path d="M8.48903 12.4968H9.90338C9.93663 12.4968 9.96853 12.4836 9.99204 12.4601C10.0156 12.4366 10.0288 12.4047 10.0288 12.3715V11.1026C10.0288 11.0693 10.0156 11.0374 9.99204 11.0139C9.96853 10.9904 9.93663 10.9772 9.90338 10.9772H8.48903C8.45578 10.9772 8.42389 10.9904 8.40037 11.0139C8.37686 11.0374 8.36365 11.0693 8.36365 11.1026V12.3702C8.36489 12.4031 8.3785 12.4342 8.40175 12.4575C8.425 12.4807 8.45617 12.4943 8.48903 12.4956" fill="#202327"/>
<path d="M10.4705 12.4968H11.8843C11.9175 12.4968 11.9494 12.4836 11.9729 12.4601C11.9964 12.4366 12.0097 12.4047 12.0097 12.3715V11.1026C12.0097 11.0693 11.9964 11.0374 11.9729 11.0139C11.9494 10.9904 11.9175 10.9772 11.8843 10.9772H10.4705C10.4373 10.9772 10.4054 10.9904 10.3819 11.0139C10.3584 11.0374 10.3452 11.0693 10.3452 11.1026V12.3702C10.3446 12.3868 10.3475 12.4034 10.3536 12.4189C10.3597 12.4343 10.3689 12.4484 10.3806 12.4601C10.3924 12.4719 10.4064 12.4811 10.4219 12.4872C10.4374 12.4933 10.4539 12.4962 10.4705 12.4956" fill="#202327"/>
<path d="M12.4226 12.4968H13.837C13.8702 12.4968 13.9021 12.4836 13.9256 12.4601C13.9491 12.4366 13.9624 12.4047 13.9624 12.3715V11.1026C13.9624 11.0693 13.9491 11.0374 13.9256 11.0139C13.9021 10.9904 13.8702 10.9772 13.837 10.9772H12.4226C12.3894 10.9772 12.3575 10.9904 12.334 11.0139C12.3105 11.0374 12.2972 11.0693 12.2972 11.1026V12.3702C12.2972 12.4035 12.3105 12.4354 12.334 12.4589C12.3575 12.4824 12.3894 12.4956 12.4226 12.4956" fill="#202327"/>
<path d="M8.48903 10.69H9.90338C9.93624 10.6887 9.96741 10.6751 9.99066 10.6519C10.0139 10.6286 10.0275 10.5974 10.0288 10.5646V9.29567C10.0288 9.26242 10.0156 9.23053 9.99204 9.20701C9.96853 9.1835 9.93663 9.17029 9.90338 9.17029H8.48903C8.45578 9.17029 8.42389 9.1835 8.40037 9.20701C8.37686 9.23053 8.36365 9.26242 8.36365 9.29567V10.5633C8.3661 10.5958 8.3801 10.6262 8.40311 10.6492C8.42611 10.6723 8.45659 10.6862 8.48903 10.6887" fill="#202327"/>
<path d="M10.4705 10.69H11.8842C11.9171 10.6887 11.9482 10.6751 11.9715 10.6519C11.9947 10.6286 12.0083 10.5974 12.0096 10.5646V9.29567C12.0096 9.26242 11.9964 9.23053 11.9729 9.20701C11.9493 9.1835 11.9175 9.17029 11.8842 9.17029H10.4705C10.4372 9.17029 10.4053 9.1835 10.3818 9.20701C10.3583 9.23053 10.3451 9.26242 10.3451 9.29567V10.5633C10.3451 10.5966 10.3583 10.6285 10.3818 10.652C10.4053 10.6755 10.4372 10.6887 10.4705 10.6887" fill="#202327"/>
<path d="M12.4226 10.69H13.837C13.8698 10.6887 13.901 10.6751 13.9243 10.6519C13.9475 10.6286 13.9611 10.5974 13.9624 10.5646V9.29567C13.9611 9.26282 13.9475 9.23164 13.9243 9.20839C13.901 9.18514 13.8698 9.17153 13.837 9.17029H12.4226C12.3894 9.17029 12.3575 9.1835 12.334 9.20701C12.3105 9.23053 12.2972 9.26242 12.2972 9.29567V10.5633C12.2985 10.5962 12.3121 10.6274 12.3353 10.6506C12.3586 10.6739 12.3898 10.6875 12.4226 10.6887" fill="#202327"/>
<path d="M12.4226 8.87561H13.837C13.8702 8.87561 13.9021 8.8624 13.9256 8.83888C13.9491 8.81537 13.9624 8.78348 13.9624 8.75022V7.47976C13.9611 7.4469 13.9475 7.41572 13.9243 7.39247C13.901 7.36922 13.8698 7.35561 13.837 7.35437H12.4226C12.3894 7.35437 12.3575 7.36758 12.334 7.39109C12.3105 7.41461 12.2972 7.4465 12.2972 7.47976V8.7474C12.2986 8.78023 12.3122 8.81137 12.3354 8.83461C12.3587 8.85784 12.3898 8.87147 12.4226 8.87279" fill="#202327"/>
<path d="M14.3894 12.4968H15.8038C15.837 12.4968 15.8689 12.4836 15.8924 12.4601C15.9159 12.4366 15.9292 12.4047 15.9292 12.3715V11.1026C15.9292 11.0693 15.9159 11.0374 15.8924 11.0139C15.8689 10.9904 15.837 10.9772 15.8038 10.9772H14.3894C14.3562 10.9772 14.3243 10.9904 14.3008 11.0139C14.2772 11.0374 14.264 11.0693 14.264 11.1026V12.3702C14.2653 12.4031 14.2789 12.4342 14.3021 12.4575C14.3254 12.4807 14.3566 12.4943 14.3894 12.4956" fill="#202327"/>
</g>
<defs>
<clipPath id="clip0_13_4576">
<rect width="16.0035" height="16.0035" fill="white" transform="translate(5.0661 5.10461)"/>
</clipPath>
</defs>
</svg>
