<svg width="26" height="26" viewBox="0 0 26 26" fill="none" xmlns="http://www.w3.org/2000/svg">
<rect x="0.869202" y="0.904236" width="24.4042" height="24.4042" rx="4.20794" stroke="#7B61FF" stroke-width="0.400757" stroke-dasharray="2 2"/>
<path d="M13.0713 6.10437C9.20582 6.10437 6.06982 9.24037 6.06982 13.1059C6.06982 16.9714 9.20582 20.1074 13.0713 20.1074C16.9369 20.1074 20.0729 16.9749 20.0729 13.1059C20.0729 9.23693 16.9369 6.10437 13.0713 6.10437ZM17.5167 9.33163C18.3268 10.284 18.809 11.4717 18.892 12.7192C17.6302 12.6536 16.1204 12.6536 14.9099 12.7668C14.7567 12.3801 14.5998 12.001 14.4285 11.6362C15.8244 11.0311 16.9003 10.2359 17.5167 9.33163ZM13.0713 7.27119C14.4313 7.26885 15.749 7.74384 16.7947 8.61335C16.1601 9.4154 15.1646 10.1137 13.9247 10.6407C13.2464 9.38633 12.4659 8.30704 11.6335 7.45716C12.1033 7.33591 12.5862 7.27343 13.0713 7.27119ZM10.4311 7.90945C11.2735 8.74807 12.0649 9.81612 12.7578 11.0664C11.4413 11.4687 9.9316 11.6993 8.32031 11.6993C8.014 11.6993 7.71518 11.6884 7.41981 11.67C7.62527 10.865 8.00018 10.1131 8.51947 9.46461C9.03876 8.81611 9.69049 8.28592 10.4311 7.90945ZM7.24758 12.8286C7.57953 12.8433 7.91491 12.8505 8.25405 12.8471C10.0919 12.8252 11.8023 12.537 13.272 12.0657C13.4106 12.3539 13.5419 12.6492 13.6659 12.9518C13.4883 12.9907 13.3139 13.0429 13.1442 13.1081C11.135 13.952 9.55246 15.312 8.6954 16.9567C7.75561 15.8941 7.23679 14.5245 7.23664 13.1059C7.23664 13.0121 7.24039 12.9199 7.24758 12.8286ZM13.0713 18.9406C11.7751 18.9422 10.5156 18.5095 9.49401 17.7116C10.2707 16.1728 11.6564 14.8985 13.4033 14.1086C13.5674 14.032 13.7862 13.9701 14.0378 13.9154C14.2462 14.4914 14.4322 15.0894 14.5957 15.7096C14.8401 16.6456 15.02 17.5972 15.1343 18.5577C14.4757 18.81 13.7766 18.9398 13.0713 18.9406ZM16.2258 18.0107C16.1117 17.0402 15.9301 16.0788 15.6822 15.1335C15.5572 14.6594 15.4162 14.1999 15.2631 13.7513C16.408 13.6576 17.7792 13.671 18.8695 13.7513C18.7734 14.6133 18.4862 15.4429 18.0289 16.1797C17.5715 16.9166 16.9555 17.5421 16.2258 18.0107Z" fill="#202327"/>
</svg>
