<svg width="26" height="26" viewBox="0 0 26 26" fill="none" xmlns="http://www.w3.org/2000/svg">
<rect x="0.879639" y="0.904236" width="24.4042" height="24.4042" rx="4.20794" stroke="#7B61FF" stroke-width="0.400757" stroke-dasharray="2 2"/>
<path d="M7.79196 13.0754C7.84533 13.0753 7.89778 13.0614 7.9442 13.0351C7.97932 13.0151 8.01015 12.9883 8.0349 12.9564C8.05966 12.9244 8.07786 12.8879 8.08846 12.8489C8.09906 12.8099 8.10186 12.7691 8.09668 12.729C8.09151 12.689 8.07846 12.6503 8.0583 12.6152C7.54374 11.7224 7.50154 10.9859 7.8254 10.427C8.27119 9.65886 9.50132 9.37501 11.1163 9.66762C11.1965 9.68213 11.2791 9.6643 11.3462 9.61802C11.4133 9.57173 11.4593 9.50077 11.4742 9.42065C11.4814 9.38089 11.4807 9.3401 11.4722 9.3006C11.4636 9.26111 11.4474 9.22369 11.4244 9.19047C11.4013 9.15726 11.372 9.12891 11.338 9.10704C11.304 9.08518 11.2661 9.07022 11.2263 9.06302C10.3138 8.89796 9.47569 8.90109 8.80701 9.0724C8.10988 9.2509 7.58782 9.6126 7.2924 10.119C6.85474 10.8752 6.89538 11.83 7.52436 12.9207C7.55136 12.9678 7.59034 13.0069 7.63733 13.034C7.68433 13.0612 7.73767 13.0755 7.79196 13.0754Z" fill="#202327"/>
<path d="M16.383 9.5969C17.3909 9.61003 18.0277 9.88794 18.3459 10.4366C18.7902 11.2019 18.4247 12.4001 17.3684 13.6415C17.3304 13.6862 17.306 13.7409 17.2981 13.799C17.2902 13.8571 17.2991 13.9163 17.3238 13.9696C17.3485 14.0228 17.388 14.0678 17.4375 14.0993C17.487 14.1308 17.5445 14.1475 17.6032 14.1473C17.6478 14.1473 17.692 14.1377 17.7326 14.119C17.7732 14.1003 17.8092 14.0731 17.8383 14.0391C18.436 13.3367 18.8496 12.6155 19.034 11.9537C19.2259 11.2659 19.1725 10.6342 18.8777 10.1287C18.4463 9.38526 17.6232 8.99856 16.3896 8.98231H16.3852C16.3037 8.98181 16.2254 9.01371 16.1674 9.07098C16.1094 9.12826 16.0766 9.20623 16.0761 9.28773C16.0756 9.36923 16.1075 9.44759 16.1647 9.50557C16.222 9.56355 16.3 9.5964 16.3815 9.5969H16.383Z" fill="#202327"/>
<path d="M15.2851 18.0722C15.2152 18.0305 15.1316 18.0181 15.0525 18.0377C14.9735 18.0573 14.9054 18.1073 14.8631 18.1769C14.3501 19.0256 13.7199 19.493 13.0884 19.493C12.1978 19.493 11.3378 18.5767 10.7835 17.0415C10.7556 16.9649 10.6986 16.9025 10.6249 16.8678C10.5511 16.8332 10.4667 16.8291 10.3899 16.8564C10.3517 16.8698 10.3165 16.8907 10.2864 16.9177C10.2563 16.9448 10.2318 16.9775 10.2144 17.0141C10.197 17.0506 10.1869 17.0902 10.1848 17.1307C10.1828 17.1711 10.1887 17.2116 10.2023 17.2497C10.515 18.1178 10.936 18.8362 11.4215 19.3273C11.9252 19.8381 12.5016 20.1089 13.0884 20.1089C13.9443 20.1089 14.7621 19.5358 15.3908 18.4955C15.4117 18.4608 15.4255 18.4224 15.4315 18.3825C15.4375 18.3425 15.4356 18.3017 15.4257 18.2625C15.4159 18.2232 15.3984 18.1863 15.3743 18.1539C15.3502 18.1215 15.3199 18.0941 15.2851 18.0734V18.0722Z" fill="#202327"/>
<path d="M18.5737 15.6861C18.4084 15.6853 18.2454 15.7252 18.0993 15.8025C17.9531 15.8797 17.8283 15.9919 17.7358 16.1289C17.6434 16.266 17.5862 16.4237 17.5693 16.5882C17.5524 16.7526 17.5764 16.9187 17.6391 17.0717C16.3326 17.6812 13.8946 17.2214 11.6419 15.9271C10.6132 15.3363 9.69897 14.6187 8.99756 13.8519C8.94237 13.792 8.86575 13.7562 8.78435 13.7524C8.70294 13.7486 8.62333 13.7771 8.56278 13.8316C8.53278 13.8587 8.50843 13.8915 8.49116 13.9281C8.47388 13.9646 8.46402 14.0042 8.46213 14.0446C8.46024 14.085 8.46636 14.1254 8.48015 14.1634C8.49394 14.2014 8.51512 14.2363 8.54246 14.2661C9.28606 15.0788 10.2516 15.8377 11.3346 16.4597C12.5937 17.1827 13.9061 17.6671 15.1301 17.8603C15.4919 17.919 15.8577 17.9494 16.2241 17.9513C16.9468 17.9513 17.5682 17.8169 18.053 17.5515C18.1857 17.6326 18.3354 17.6818 18.4904 17.6952C18.6453 17.7087 18.8013 17.6861 18.9461 17.6291C19.0908 17.5722 19.2204 17.4825 19.3246 17.367C19.4288 17.2516 19.5049 17.1136 19.5468 16.9638C19.5887 16.814 19.5953 16.6565 19.5662 16.5037C19.537 16.351 19.4728 16.207 19.3786 16.0832C19.2845 15.9594 19.1629 15.8591 19.0235 15.7902C18.884 15.7213 18.7305 15.6857 18.575 15.6861H18.5737ZM18.5737 17.082C18.485 17.082 18.3989 17.0521 18.3293 16.997C18.3101 16.9705 18.2869 16.9472 18.2605 16.9279C18.2063 16.8573 18.1776 16.7705 18.179 16.6815C18.1805 16.5926 18.212 16.5067 18.2684 16.4379C18.3248 16.3691 18.4029 16.3214 18.4899 16.3026C18.5768 16.2838 18.6676 16.295 18.7474 16.3343C18.8272 16.3737 18.8914 16.4389 18.9294 16.5193C18.9675 16.5998 18.9772 16.6907 18.957 16.7774C18.9368 16.864 18.8878 16.9413 18.8181 16.9966C18.7484 17.0519 18.6627 17.082 18.5737 17.082Z" fill="#202327"/>
<path d="M7.64559 15.6872C7.66341 15.0227 8.03349 14.2181 8.69832 13.4004C9.42317 12.5112 10.4703 11.6501 11.6471 10.9733C12.6864 10.3763 13.685 9.97625 14.7124 9.75714C14.7525 9.74932 14.7906 9.7336 14.8246 9.71089C14.8585 9.68817 14.8875 9.65892 14.91 9.62485C14.9325 9.59078 14.948 9.55256 14.9556 9.51244C14.9631 9.47232 14.9626 9.43109 14.9541 9.39117C14.9455 9.35125 14.9291 9.31343 14.9057 9.27993C14.8824 9.24643 14.8526 9.21792 14.8181 9.19606C14.7836 9.1742 14.7451 9.15943 14.7049 9.15262C14.6646 9.14581 14.6234 9.14709 14.5837 9.15639C13.4944 9.38862 12.4338 9.81278 11.3395 10.4407C8.70832 11.952 6.952 14.1647 7.03202 15.8532C6.8318 15.9855 6.68526 16.1849 6.61866 16.4155C6.55205 16.6461 6.56972 16.8929 6.66852 17.1116C6.76731 17.3304 6.94076 17.5068 7.1578 17.6093C7.37484 17.7118 7.62129 17.7337 7.85299 17.671C8.08469 17.6083 8.2865 17.4652 8.42227 17.2673C8.55804 17.0693 8.6189 16.8295 8.59394 16.5908C8.56899 16.3521 8.45984 16.13 8.28607 15.9644C8.1123 15.7989 7.88524 15.7006 7.64559 15.6872ZM7.58964 17.0815C7.51249 17.081 7.43723 17.0576 7.37335 17.0143C7.30947 16.9711 7.25983 16.9099 7.23068 16.8384C7.20154 16.767 7.19421 16.6885 7.2096 16.6129C7.22499 16.5373 7.26242 16.4679 7.31717 16.4136C7.37193 16.3592 7.44155 16.3223 7.51726 16.3074C7.59297 16.2926 7.67139 16.3005 7.74262 16.3301C7.81384 16.3598 7.8747 16.4099 7.91751 16.4741C7.96032 16.5383 7.98316 16.6137 7.98316 16.6908C7.98267 16.7948 7.94096 16.8943 7.86719 16.9676C7.79341 17.0408 7.6936 17.0818 7.58964 17.0815Z" fill="#202327"/>
<path d="M13.0881 8.11501C13.2509 8.11543 13.4114 8.07638 13.5558 8.0012C13.7002 7.92602 13.8243 7.81696 13.9173 7.68336C14.4765 8.04875 14.9801 8.77735 15.3492 9.75006C15.7555 10.825 15.9693 12.1062 15.9693 13.4552C15.9693 14.6174 15.8071 15.7167 15.5005 16.6934C15.4882 16.7319 15.4837 16.7724 15.4872 16.8126C15.4908 16.8528 15.5023 16.8919 15.5211 16.9276C15.5398 16.9635 15.5655 16.9954 15.5966 17.0213C15.6277 17.0473 15.6637 17.0668 15.7024 17.0788C15.7802 17.1029 15.8644 17.0952 15.9367 17.0575C16.0089 17.0198 16.0633 16.9552 16.0881 16.8775C16.4138 15.8417 16.586 14.6789 16.586 13.4552C16.586 11.9809 16.3432 10.5868 15.8837 9.42311C15.4333 8.28286 14.8169 7.47269 14.0977 7.07385C14.0915 6.87563 14.027 6.68363 13.9124 6.52181C13.7978 6.35999 13.638 6.23551 13.4531 6.16392C13.2681 6.09232 13.0662 6.07678 12.8725 6.11922C12.6788 6.16167 12.5018 6.26023 12.3638 6.4026C12.2257 6.54497 12.1327 6.72485 12.0962 6.91978C12.0597 7.11471 12.0815 7.31607 12.1587 7.49872C12.236 7.68136 12.3653 7.83721 12.5306 7.94681C12.6959 8.05642 12.8898 8.11492 13.0881 8.11501ZM13.0881 6.71909C13.1652 6.71964 13.2405 6.74303 13.3044 6.7863C13.3683 6.82956 13.4179 6.89078 13.447 6.96222C13.4762 7.03366 13.4835 7.11213 13.4681 7.18773C13.4527 7.26333 13.4153 7.33269 13.3605 7.38705C13.3058 7.44141 13.2362 7.47834 13.1605 7.49319C13.0848 7.50804 13.0063 7.50014 12.9351 7.47049C12.8639 7.44084 12.803 7.39076 12.7602 7.32657C12.7174 7.26238 12.6946 7.18695 12.6946 7.1098C12.6951 7.00584 12.7368 6.90632 12.8105 6.83308C12.8843 6.75983 12.9841 6.71884 13.0881 6.71909Z" fill="#202327"/>
<path d="M12.9275 12.7108C12.743 12.7504 12.5797 12.8568 12.4691 13.0097C12.3584 13.1625 12.3083 13.3509 12.3284 13.5385C12.3485 13.7261 12.4374 13.8996 12.5779 14.0256C12.7184 14.1515 12.9006 14.221 13.0893 14.2205C13.1437 14.2204 13.1979 14.2147 13.251 14.2032C13.3502 14.1831 13.4443 14.1435 13.528 14.0868C13.6117 14.03 13.6832 13.9571 13.7386 13.8725C13.7939 13.7878 13.8318 13.693 13.8502 13.5935C13.8685 13.4941 13.8669 13.392 13.8455 13.2931C13.8241 13.1943 13.7833 13.1007 13.7254 13.0178C13.6675 12.9348 13.5937 12.8642 13.5083 12.8101C13.4229 12.7559 13.3275 12.7192 13.2279 12.7022C13.1282 12.6852 13.0261 12.6881 12.9275 12.7108Z" fill="#202327"/>
</svg>
