<svg width="26" height="26" viewBox="0 0 26 26" fill="none" xmlns="http://www.w3.org/2000/svg">
<rect x="0.883118" y="0.904236" width="24.4042" height="24.4042" rx="4.20794" stroke="#7B61FF" stroke-width="0.400757" stroke-dasharray="2 2"/>
<path d="M12.3278 13.6061V12.1058H16.835L17.0851 10.6055H12.3278V10.3517C12.3278 9.14232 12.8426 8.39622 15.0528 8.39622C15.9558 8.39622 16.9735 8.48031 18.2566 8.69066L18.5854 6.50269C17.3906 6.22997 16.1683 6.09634 14.9427 6.10448C10.9981 6.10448 9.30213 7.49228 9.30213 10.0572V10.6055H7.58301V12.1058H9.30213V13.6061H7.58301V15.1064H9.30213V16.1548C9.30213 18.7197 10.9972 20.1075 14.9418 20.1075C16.1663 20.1152 17.3876 19.9812 18.5813 19.7081L18.2506 17.5201C16.9676 17.7304 15.9545 17.8145 15.0515 17.8145C12.8417 17.8145 12.3278 17.1838 12.3278 15.6909V15.1064H16.3434L16.5893 13.6061H12.3278Z" fill="#202327"/>
</svg>
