<svg width="26" height="26" viewBox="0 0 26 26" fill="none" xmlns="http://www.w3.org/2000/svg">
<rect x="0.886658" y="0.904236" width="24.4042" height="24.4042" rx="4.20794" stroke="#7B61FF" stroke-width="0.400757" stroke-dasharray="2 2"/>
<path fill-rule="evenodd" clip-rule="evenodd" d="M20.0902 13.1489C20.0902 9.2824 16.9551 6.14734 13.0887 6.14734C9.22222 6.14734 6.08716 9.2824 6.08716 13.1489C6.08716 16.6434 8.64709 19.5399 11.9947 20.0657V15.1734H10.2165V13.1489H11.9947V11.6063C11.9947 9.8519 13.0402 8.882 14.6393 8.882C15.4054 8.882 16.2069 9.0189 16.2069 9.0189V10.7421H15.3235C14.4543 10.7421 14.1824 11.2816 14.1824 11.8361V13.1489H16.124L15.814 15.1734H14.1827V20.0663C17.5303 19.5409 20.0902 16.6443 20.0902 13.1489Z" fill="#202327"/>
</svg>
