<svg width="26" height="26" viewBox="0 0 26 26" fill="none" xmlns="http://www.w3.org/2000/svg">
<rect x="0.890198" y="0.904236" width="24.4042" height="24.4042" rx="4.20794" stroke="#7B61FF" stroke-width="0.400757" stroke-dasharray="2 2"/>
<g clip-path="url(#clip0_13_4597)">
<path d="M15.5929 10.6055C16.2561 10.6055 16.8922 10.342 17.3611 9.87307C17.83 9.40412 18.0935 8.7681 18.0935 8.10491C18.0935 7.44173 17.83 6.80571 17.3611 6.33676C16.8922 5.86782 16.2561 5.60437 15.5929 5.60437H10.5919C9.92867 5.60437 9.29265 5.86782 8.8237 6.33676C8.35476 6.80571 8.09131 7.44173 8.09131 8.10491C8.09131 8.7681 8.35476 9.40412 8.8237 9.87307C9.29265 10.342 9.92867 10.6055 10.5919 10.6055C9.92867 10.6055 9.29265 10.8689 8.8237 11.3379C8.35476 11.8068 8.09131 12.4428 8.09131 13.106C8.09131 13.7692 8.35476 14.4052 8.8237 14.8742C9.29265 15.3431 9.92867 15.6065 10.5919 15.6065C10.0973 15.6065 9.61384 15.7532 9.20263 16.028C8.79141 16.3027 8.47091 16.6933 8.28165 17.1502C8.09239 17.6071 8.04287 18.1099 8.13936 18.5949C8.23584 19.08 8.47399 19.5255 8.8237 19.8752C9.17341 20.2249 9.61896 20.4631 10.104 20.5596C10.5891 20.6561 11.0919 20.6066 11.5488 20.4173C12.0057 20.228 12.3962 19.9075 12.671 19.4963C12.9457 19.0851 13.0924 18.6017 13.0924 18.1071V10.6055H15.5929Z" fill="#202327"/>
<path d="M15.5932 15.6069C16.9744 15.6069 18.0941 14.4872 18.0941 13.106C18.0941 11.7248 16.9742 10.6055 15.5929 10.6055C14.2117 10.6055 13.0923 11.7248 13.0923 13.106C13.0923 14.4872 14.212 15.6069 15.5932 15.6069Z" fill="#202327"/>
</g>
<defs>
<clipPath id="clip0_13_4597">
<rect width="16.0035" height="16.0035" fill="white" transform="translate(5.09058 5.10461)"/>
</clipPath>
</defs>
</svg>
