<svg width="26" height="26" viewBox="0 0 26 26" fill="none" xmlns="http://www.w3.org/2000/svg">
<rect x="0.907898" y="0.904236" width="24.4042" height="24.4042" rx="4.20794" stroke="#7B61FF" stroke-width="0.400757" stroke-dasharray="2 2"/>
<path d="M13.1087 6.10535C9.24224 6.10535 6.10718 9.32167 6.10718 13.285C6.10718 16.4576 8.11386 19.1457 10.8957 20.0959C10.9347 20.1044 10.9746 20.1086 11.0145 20.1084C11.2739 20.1084 11.3739 19.9177 11.3739 19.7521C11.3739 19.5802 11.3677 19.1301 11.3646 18.5299C11.133 18.5842 10.896 18.6125 10.6582 18.6143C9.311 18.6143 9.00468 17.5672 9.00468 17.5672C8.68586 16.7389 8.22639 16.517 8.22639 16.517C7.61688 16.0888 8.22326 16.0763 8.27015 16.0763H8.27327C8.97655 16.1388 9.34538 16.8202 9.34538 16.8202C9.69546 17.4328 10.1643 17.6047 10.5832 17.6047C10.8601 17.5992 11.1328 17.5353 11.3833 17.4172C11.4458 16.9546 11.6271 16.6389 11.8272 16.4576C10.2737 16.2763 8.63898 15.6606 8.63898 12.91C8.63898 12.1254 8.91091 11.4846 9.35789 10.9845C9.28599 10.8032 9.04532 10.0718 9.42665 9.08412C9.4778 9.07188 9.53037 9.06662 9.58293 9.06849C9.83611 9.06849 10.4081 9.16539 11.3521 9.82178C12.4991 9.50087 13.7121 9.50087 14.8591 9.82178C15.803 9.16539 16.375 9.06849 16.6282 9.06849C16.6808 9.06662 16.7334 9.07188 16.7845 9.08412C17.1658 10.0718 16.9252 10.8032 16.8533 10.9845C17.3002 11.4878 17.5722 12.1285 17.5722 12.91C17.5722 15.6668 15.9343 16.2732 14.3746 16.4513C14.6247 16.6733 14.8497 17.1109 14.8497 17.7798C14.8497 18.7393 14.8403 19.5145 14.8403 19.7489C14.8403 19.9177 14.9372 20.1084 15.1967 20.1084C15.2387 20.1086 15.2806 20.1044 15.3217 20.0959C18.1067 19.1457 20.1102 16.4545 20.1102 13.285C20.1102 9.32167 16.9752 6.10535 13.1087 6.10535Z" fill="#202327"/>
</svg>
