<svg width="26" height="26" viewBox="0 0 26 26" fill="none" xmlns="http://www.w3.org/2000/svg">
<rect x="0.918518" y="0.904236" width="24.4042" height="24.4042" rx="4.20794" stroke="#7B61FF" stroke-width="0.400757" stroke-dasharray="2 2"/>
<path d="M19.9079 12.0281L19.8372 11.7284H13.3221V14.4859H17.2148C16.8106 16.405 14.9352 17.4152 13.4033 17.4152C12.2887 17.4152 11.1138 16.9464 10.3361 16.1928C9.92581 15.7888 9.59921 15.3079 9.37502 14.7776C9.15082 14.2472 9.03343 13.6779 9.02957 13.1021C9.02957 11.9406 9.55156 10.7788 10.3111 10.0146C11.0706 9.25034 12.2178 8.82274 13.3583 8.82274C14.6645 8.82274 15.6007 9.51633 15.9508 9.83265L17.9103 7.88348C17.3354 7.37837 15.7563 6.10559 13.2952 6.10559C11.3963 6.10559 9.57563 6.83294 8.24471 8.15948C6.9313 9.4657 6.25146 11.3545 6.25146 13.1071C6.25146 14.8597 6.89473 16.6541 8.16751 17.9707C9.52749 19.3747 11.4535 20.1086 13.4368 20.1086C15.2412 20.1086 16.9516 19.4016 18.1706 18.1188C19.369 16.8561 19.9888 15.1088 19.9888 13.2772C19.9888 12.506 19.9113 12.0481 19.9079 12.0281Z" fill="#202327"/>
</svg>
