<svg width="26" height="26" viewBox="0 0 26 26" fill="none" xmlns="http://www.w3.org/2000/svg">
<rect x="0.914978" y="0.904236" width="24.4042" height="24.4042" rx="4.20794" stroke="#7B61FF" stroke-width="0.400757" stroke-dasharray="2 2"/>
<path d="M6.61548 6.96464V19.2486C6.61556 19.2752 6.62351 19.3012 6.63833 19.3234C6.65315 19.3455 6.67418 19.3628 6.69878 19.3731C6.72338 19.3833 6.75046 19.3861 6.77662 19.381C6.80278 19.3759 6.82686 19.3632 6.84584 19.3445L13.2419 13.1069L6.84584 6.86868C6.82686 6.84997 6.80278 6.83727 6.77662 6.83219C6.75046 6.82711 6.72338 6.82987 6.69878 6.84012C6.67418 6.85037 6.65315 6.86765 6.63833 6.8898C6.62351 6.91195 6.61556 6.93799 6.61548 6.96464Z" fill="#202327"/>
<path d="M15.9245 10.5439L7.9046 6.12544L7.8996 6.12263C7.76145 6.04761 7.63017 6.23453 7.74332 6.3433L14.03 12.3546L15.9245 10.5439Z" fill="#202327"/>
<path d="M7.74369 19.8702C7.62991 19.979 7.76119 20.1659 7.89997 20.0909L7.90497 20.0881L15.9242 15.6696L14.0297 13.8583L7.74369 19.8702Z" fill="#202327"/>
<path d="M19.1616 12.325L16.9217 11.0914L14.8157 13.1065L16.9217 15.1207L19.1616 13.8881C19.7709 13.5514 19.7709 12.6617 19.1616 12.325Z" fill="#202327"/>
</svg>
