<svg width="26" height="26" viewBox="0 0 26 26" fill="none" xmlns="http://www.w3.org/2000/svg">
<rect x="0.929138" y="0.904236" width="24.4042" height="24.4042" rx="4.20794" stroke="#7B61FF" stroke-width="0.400757" stroke-dasharray="2 2"/>
<path d="M16.0488 7.27241C16.8219 7.27472 17.5626 7.58284 18.1093 8.12948C18.6559 8.67612 18.964 9.41686 18.9664 10.1899V16.0243C18.964 16.7974 18.6559 17.5381 18.1093 18.0848C17.5626 18.6314 16.8219 18.9395 16.0488 18.9418H10.2145C9.44139 18.9395 8.70065 18.6314 8.15401 18.0848C7.60737 17.5381 7.29925 16.7974 7.29694 16.0243V10.1899C7.29925 9.41686 7.60737 8.67612 8.15401 8.12948C8.70065 7.58284 9.44139 7.27472 10.2145 7.27241H16.0488ZM16.0488 6.10559H10.2145C7.96803 6.10559 6.13013 7.94349 6.13013 10.1899V16.0243C6.13013 18.2707 7.96803 20.1086 10.2145 20.1086H16.0488C18.2953 20.1086 20.1332 18.2707 20.1332 16.0243V10.1899C20.1332 7.94349 18.2953 6.10559 16.0488 6.10559Z" fill="#202327"/>
<path d="M16.9258 10.195C16.7522 10.195 16.5825 10.1435 16.4382 10.0471C16.2938 9.95061 16.1813 9.81353 16.1149 9.65315C16.0485 9.49277 16.0311 9.3163 16.065 9.14604C16.0988 8.97579 16.1824 8.8194 16.3052 8.69665C16.4279 8.5739 16.5843 8.49031 16.7546 8.45644C16.9248 8.42257 17.1013 8.43996 17.2617 8.50639C17.4221 8.57282 17.5591 8.68531 17.6556 8.82965C17.752 8.97399 17.8035 9.14368 17.8035 9.31727C17.8037 9.4326 17.7812 9.54685 17.7372 9.65345C17.6932 9.76005 17.6285 9.8569 17.547 9.93845C17.4654 10.02 17.3686 10.0846 17.262 10.1287C17.1554 10.1727 17.0411 10.1952 16.9258 10.195Z" fill="#202327"/>
<path d="M13.1309 10.7722C13.5925 10.7722 14.0437 10.909 14.4276 11.1655C14.8114 11.422 15.1105 11.7865 15.2872 12.2129C15.4638 12.6394 15.51 13.1087 15.42 13.5614C15.3299 14.0142 15.1076 14.43 14.7812 14.7565C14.4548 15.0829 14.039 15.3052 13.5862 15.3952C13.1335 15.4853 12.6642 15.439 12.2377 15.2624C11.8113 15.0857 11.4467 14.7866 11.1903 14.4028C10.9338 14.019 10.7969 13.5677 10.7969 13.1061C10.7976 12.4873 11.0437 11.894 11.4813 11.4565C11.9188 11.0189 12.5121 10.7728 13.1309 10.7722ZM13.1309 9.60535C12.4385 9.60535 11.7617 9.81066 11.186 10.1953C10.6103 10.58 10.1616 11.1267 9.89661 11.7664C9.63164 12.4061 9.56232 13.11 9.69739 13.7891C9.83247 14.4682 10.1659 15.0919 10.6555 15.5815C11.1451 16.0711 11.7688 16.4045 12.4479 16.5396C13.127 16.6747 13.8309 16.6054 14.4706 16.3404C15.1103 16.0754 15.657 15.6267 16.0417 15.051C16.4263 14.4753 16.6317 13.7985 16.6317 13.1061C16.6317 12.1776 16.2628 11.2872 15.6063 10.6307C14.9498 9.97418 14.0594 9.60535 13.1309 9.60535Z" fill="#202327"/>
</svg>
