<svg width="26" height="26" viewBox="0 0 26 26" fill="none" xmlns="http://www.w3.org/2000/svg">
<rect x="0.932678" y="0.904236" width="24.4042" height="24.4042" rx="4.20794" stroke="#7B61FF" stroke-width="0.400757" stroke-dasharray="2 2"/>
<path d="M13.1356 9.91565C12.5044 9.91565 11.8873 10.1028 11.3624 10.4536C10.8375 10.8043 10.4284 11.3028 10.1868 11.886C9.94523 12.4692 9.88202 13.111 10.0052 13.7301C10.1283 14.3493 10.4323 14.918 10.8787 15.3643C11.3251 15.8107 11.8938 16.1147 12.5129 16.2379C13.1321 16.361 13.7738 16.2978 14.3571 16.0562C14.9403 15.8147 15.4388 15.4056 15.7895 14.8807C16.1402 14.3558 16.3274 13.7387 16.3274 13.1074C16.3263 12.2612 15.9897 11.45 15.3914 10.8517C14.793 10.2533 13.9818 9.91672 13.1356 9.91565Z" fill="#202327"/>
<path d="M17.7183 10.2007C18.522 10.2007 19.1735 9.54919 19.1735 8.74554C19.1735 7.94189 18.522 7.29041 17.7183 7.29041C16.9147 7.29041 16.2632 7.94189 16.2632 8.74554C16.2632 9.54919 16.9147 10.2007 17.7183 10.2007Z" fill="#202327"/>
<path d="M19.5068 10.2065L19.4459 10.0727L19.3487 10.1827C19.1105 10.4532 18.8092 10.6606 18.4716 10.7866L18.3778 10.821L18.416 10.9126C18.7066 11.6077 18.8558 12.3537 18.8548 13.1071C18.8548 16.2616 16.2886 18.8271 13.1348 18.8271C9.98101 18.8271 7.41483 16.2616 7.41483 13.1071C7.41483 9.95269 9.98039 7.38713 13.1348 7.38713C13.9831 7.38536 14.821 7.57445 15.5863 7.94038L15.676 7.98101L15.7151 7.88974C15.8576 7.55886 16.0793 7.26815 16.3608 7.04331L16.4755 6.95173L16.3452 6.88703C15.3538 6.3714 14.2523 6.1033 13.1348 6.10561C9.2743 6.10561 6.1333 9.2466 6.1333 13.1071C6.1333 16.9677 9.2743 20.1087 13.1348 20.1087C16.9953 20.1087 20.1363 16.9677 20.1363 13.1071C20.138 12.1062 19.9232 11.1167 19.5068 10.2065Z" fill="#202327"/>
</svg>
