<svg width="26" height="26" viewBox="0 0 26 26" fill="none" xmlns="http://www.w3.org/2000/svg">
<rect x="0.936218" y="0.904236" width="24.4042" height="24.4042" rx="4.20794" stroke="#7B61FF" stroke-width="0.400757" stroke-dasharray="2 2"/>
<path d="M19.7779 13.5198C19.6954 12.4762 19.4104 11.7069 18.7952 11.726C18.7902 11.7261 18.7852 11.7273 18.7807 11.7298C18.7762 11.7322 18.7724 11.7356 18.7696 11.7398C18.7667 11.7441 18.765 11.7489 18.7644 11.754C18.7639 11.759 18.7646 11.7641 18.7665 11.7688C18.9262 12.1624 19.069 12.9222 19.0531 13.5839C19.0534 13.5922 19.0505 13.6003 19.0448 13.6064C19.0392 13.6125 19.0314 13.6161 19.0231 13.6164C19.0148 13.6168 19.0067 13.6138 19.0006 13.6082C18.9945 13.6025 18.9909 13.5947 18.9906 13.5864C18.9221 12.9235 18.7687 12.2989 18.4836 11.7288C17.9477 10.654 17.0932 9.77067 16.0367 9.19944C14.9802 8.62822 13.7732 8.39691 12.5803 8.53707C11.3875 8.67724 10.267 9.18206 9.37169 9.98264C8.47639 10.7832 7.84992 11.8406 7.57779 13.0104C7.5724 13.0352 7.55954 13.0579 7.54094 13.0752C7.52234 13.0926 7.49889 13.1039 7.4737 13.1076L7.20333 13.1457C6.66572 13.2207 6.36253 14.2366 6.52506 15.4118C6.6876 16.5871 7.2596 17.481 7.79721 17.406L8.21105 17.3482C8.23489 17.3449 8.25916 17.3486 8.28095 17.3588C8.30274 17.369 8.32112 17.3853 8.33389 17.4057C8.94796 18.3717 9.83257 19.1359 10.8776 19.603C11.9227 20.0701 13.082 20.2195 14.2114 20.0327C15.3407 19.8459 16.3902 19.3311 17.2292 18.5524C18.0682 17.7737 18.6596 16.7654 18.9299 15.6531C18.9361 15.6268 18.9507 15.6032 18.9714 15.5858C18.9922 15.5685 19.018 15.5583 19.045 15.5568L19.1825 15.5493C19.656 15.4703 19.8623 14.5732 19.7779 13.5198ZM8.09071 13.5583C8.08689 13.5517 8.08562 13.5439 8.08715 13.5364C8.08869 13.5289 8.09292 13.5222 8.09905 13.5176C8.10517 13.513 8.11276 13.5109 8.12039 13.5115C8.12801 13.5121 8.13514 13.5156 8.14041 13.5211C8.44141 13.8337 8.77336 14.3853 8.86932 15.0796C8.97059 15.8 8.79931 16.4924 8.58395 16.8884C8.58021 16.8949 8.57424 16.8999 8.56714 16.9023C8.56005 16.9048 8.5523 16.9047 8.54531 16.9019C8.53832 16.8991 8.53257 16.8939 8.5291 16.8872C8.52563 16.8806 8.52469 16.8729 8.52643 16.8656C8.65365 16.4142 8.68772 15.8082 8.59739 15.1546C8.50987 14.5194 8.32514 13.9584 8.09071 13.5583ZM13.6785 16.99C13.5591 16.9898 13.444 16.9456 13.3551 16.8658C13.2662 16.7861 13.2099 16.6764 13.1968 16.5577C13.1864 16.4604 13.2057 16.3622 13.2523 16.2761C13.2988 16.19 13.3703 16.12 13.4575 16.0754C13.5446 16.0308 13.6432 16.0137 13.7402 16.0263C13.8373 16.0389 13.9283 16.0806 14.0011 16.146C14.0739 16.2114 14.1252 16.2973 14.1482 16.3925C14.1712 16.4876 14.1648 16.5875 14.1299 16.6789C14.0949 16.7703 14.0331 16.849 13.9525 16.9045C13.8719 16.9601 13.7764 16.9899 13.6785 16.99ZM16.2365 16.8424C16.1418 16.847 16.0478 16.8235 15.9664 16.7747C15.885 16.726 15.8198 16.6542 15.7792 16.5685C15.7385 16.4828 15.7241 16.3869 15.7379 16.293C15.7516 16.1992 15.7928 16.1114 15.8563 16.041C15.9199 15.9705 16.0028 15.9204 16.0948 15.897C16.1867 15.8736 16.2836 15.878 16.373 15.9095C16.4625 15.9411 16.5406 15.9985 16.5976 16.0744C16.6545 16.1503 16.6877 16.2413 16.6929 16.3361C16.6995 16.4637 16.6551 16.5887 16.5695 16.6837C16.4839 16.7786 16.3642 16.8357 16.2365 16.8424Z" fill="#202327"/>
<path d="M10.31 7.29359C10.3117 7.29521 10.3129 7.29744 10.3131 7.29984C10.3162 7.3061 10.3193 7.30922 10.3225 7.31548V7.3186C10.337 7.35359 10.3622 7.38312 10.3944 7.40303C10.4569 7.44994 10.5507 7.47808 10.6633 7.49684C10.7866 7.51366 10.9112 7.5189 11.0354 7.51248C11.0657 7.51195 11.096 7.50986 11.1261 7.50622C11.1136 7.49371 11.1011 7.47808 11.0886 7.46557H11.0479C10.9263 7.46979 10.8047 7.46035 10.6852 7.43743C10.5906 7.42287 10.5006 7.38647 10.4225 7.33111C10.4064 7.31813 10.3917 7.30345 10.3788 7.28733C10.3725 7.26377 10.3725 7.23898 10.3788 7.21541C10.3944 7.14349 10.4538 7.06532 10.5507 6.98402C10.6557 6.8984 10.77 6.82497 10.8916 6.76513C10.9197 6.75263 10.9447 6.73699 10.9729 6.72448C10.976 6.72136 10.9823 6.72136 10.9885 6.71823C10.9629 6.82596 10.9608 6.93793 10.9823 7.04656C11.0542 7.41867 11.345 7.68133 11.7077 7.69071L11.8328 8.45056L12.2299 8.35675L12.1048 7.62817C12.4425 7.48433 12.6145 7.12473 12.5426 6.75263C12.5223 6.64643 12.4808 6.54541 12.4207 6.45556C12.2549 6.43055 11.9329 6.43055 11.5076 6.52123C11.542 6.51185 11.5733 6.49934 11.6076 6.48996C11.8278 6.42808 12.0527 6.38416 12.2799 6.35863C12.2987 6.3555 12.3175 6.3555 12.3362 6.35238L12.4457 6.34299H12.4644C12.5771 6.33626 12.6901 6.3394 12.8021 6.35238C12.8671 6.36004 12.9311 6.37472 12.9929 6.39615C12.9738 6.42598 12.964 6.46081 12.9647 6.49622C12.965 6.5368 12.9782 6.57624 13.0024 6.60884C13.0266 6.64144 13.0605 6.66551 13.0992 6.67758C13.0793 6.70823 13.0574 6.73748 13.0335 6.76513C13.0056 6.79662 12.9753 6.82589 12.9429 6.85269C12.9085 6.88083 12.8709 6.90897 12.8334 6.93712L12.6302 7.05594L12.6208 7.10284C12.6232 7.10251 12.6253 7.10142 12.627 7.09972L12.8897 6.95275C12.9272 6.92773 12.9647 6.90272 12.996 6.8777C13.0315 6.85099 13.0649 6.82173 13.0961 6.79015C13.1229 6.76254 13.1479 6.7333 13.1711 6.70259L13.1805 6.68383C13.2266 6.67825 13.2691 6.65616 13.3001 6.62167C13.3311 6.58718 13.3486 6.54261 13.3494 6.49622C13.3495 6.47112 13.3447 6.44624 13.3352 6.42302C13.3257 6.39981 13.3116 6.37871 13.2939 6.36097C13.2761 6.34322 13.255 6.32918 13.2318 6.31965C13.2086 6.31013 13.1837 6.3053 13.1586 6.30547C13.1282 6.30643 13.0983 6.31389 13.0711 6.32736C12.9912 6.28432 12.9044 6.25574 12.8147 6.24293C12.6545 6.21689 12.4917 6.21059 12.33 6.22417C12.308 6.2247 12.286 6.22679 12.2643 6.23042C12.2436 6.23405 12.2227 6.23614 12.2018 6.23668C12.0296 6.12288 11.8196 6.08132 11.617 6.12098C11.5 6.14355 11.3895 6.19169 11.2933 6.26196C11.197 6.33224 11.1175 6.42291 11.0604 6.52748C11.0198 6.54312 10.9791 6.56188 10.9416 6.58064C10.9197 6.59002 10.901 6.5994 10.8791 6.60879C10.7218 6.68328 10.5756 6.77903 10.4444 6.89334C10.3475 6.98402 10.2912 7.07157 10.2787 7.15288C10.2716 7.19584 10.2793 7.23995 10.3006 7.27795C10.3044 7.28272 10.3075 7.28798 10.31 7.29359Z" fill="#202327"/>
</svg>
