<svg width="26" height="26" viewBox="0 0 26 26" fill="none" xmlns="http://www.w3.org/2000/svg">
<rect x="0.939758" y="0.904236" width="24.4042" height="24.4042" rx="4.20794" stroke="#7B61FF" stroke-width="0.400757" stroke-dasharray="2 2"/>
<path d="M6.13965 6.10559V20.1086H20.1427V6.10559H6.13965ZM13.6413 16.983C13.6413 18.3461 12.8361 19.0106 11.6705 19.0106C10.6178 19.0106 10.0067 18.4655 9.69667 17.8075L10.7682 17.1589C10.9748 17.5256 11.1317 17.8356 11.5827 17.8356C11.9578 17.8356 12.266 17.6665 12.266 17.0086V12.607H13.6413V16.983ZM16.7466 18.9793C15.5248 18.9793 14.7353 18.428 14.3499 17.6665L15.4229 17.0455C15.7042 17.5062 16.0715 17.8131 16.7201 17.8131C17.2652 17.8131 17.5818 17.5718 17.5818 17.1958C17.5818 16.7448 17.2558 16.5851 16.6541 16.3206L16.3253 16.1793C15.3757 15.7755 14.7462 15.2679 14.7462 14.1961C14.7462 13.2093 15.4979 12.4885 16.6729 12.4885C17.5096 12.4885 18.1107 12.7486 18.5436 13.51L17.5171 14.1698C17.2915 13.7657 17.0483 13.6072 16.6713 13.6072C16.2859 13.6072 16.0415 13.8517 16.0415 14.1698C16.0415 14.5646 16.2859 14.7243 16.8498 14.9688L17.1786 15.1097C18.2973 15.5892 18.9271 16.0787 18.9271 17.1777C18.9274 18.3623 17.9969 18.9793 16.7466 18.9793Z" fill="#202327"/>
</svg>
