<svg width="26" height="26" viewBox="0 0 26 26" fill="none" xmlns="http://www.w3.org/2000/svg">
<rect x="0.943298" y="0.904236" width="24.4042" height="24.4042" rx="4.20794" stroke="#7B61FF" stroke-width="0.400757" stroke-dasharray="2 2"/>
<g clip-path="url(#clip0_13_4642)">
<path d="M20.9463 12.4388C20.8438 12.3284 20.108 11.4295 19.7113 10.945C19.5004 10.6874 19.3338 10.484 19.2638 10.3996L19.2581 10.3927L19.2519 10.3861C19.0887 10.2039 18.8568 9.99511 18.5086 9.99511C18.452 9.99583 18.3955 10.0004 18.3395 10.0089C18.3279 10.0104 18.316 10.0123 18.3035 10.0135C18.227 10.022 17.9891 10.0604 17.424 10.1536C16.9864 10.2252 16.3265 10.3339 16.2265 10.3433L16.2043 10.3452L16.1828 10.3492C15.8702 10.4049 15.6633 10.5437 15.5714 10.7615C15.5229 10.8765 15.4707 11.11 15.6633 11.3823C15.7111 11.4517 15.8768 11.6811 16.1615 12.0752C16.3509 12.3378 16.5638 12.6322 16.7476 12.8879L13.2674 13.7009L9.85295 8.10751L9.8467 8.09688L9.83951 8.08656L9.82576 8.06625C9.68604 7.8612 9.51225 7.60583 9.01027 7.60583C8.97495 7.60583 8.93806 7.60583 8.8968 7.60927C8.75302 7.61709 8.22728 7.65835 7.61871 7.70648C6.947 7.75931 6.02774 7.83151 5.90834 7.83463H5.88552L5.86083 7.83714C5.57514 7.86495 5.36791 7.98092 5.24507 8.18096C5.04034 8.5151 5.20069 8.89018 5.2532 9.01333C5.35853 9.26245 6.3178 11.2848 7.16393 13.0698C7.72655 14.2557 8.3073 15.4819 8.35481 15.5907C8.43836 15.7939 8.58139 15.9671 8.76514 16.0875C8.94889 16.2079 9.16476 16.27 9.38441 16.2655C9.48807 16.2651 9.59139 16.2535 9.6926 16.2312H9.69917L9.70542 16.2296C10.1386 16.1239 11.513 15.7751 12.4935 15.5235C12.5529 15.6273 12.6154 15.737 12.6811 15.8498C13.3665 17.0532 13.8657 17.9237 14.0301 18.1459C14.1145 18.2644 14.3646 18.6082 14.8353 18.6082C15.0059 18.6082 15.1622 18.5645 15.3273 18.5179L15.3751 18.5045H15.3788C15.708 18.4107 20.0889 16.8741 20.3134 16.7744L20.3202 16.7713C20.4903 16.6959 20.7472 16.5822 20.826 16.2899C20.8775 16.0986 20.8316 15.9045 20.6891 15.7129L20.6847 15.7073C20.6581 15.6729 20.5597 15.5444 20.4262 15.3666C20.1408 14.9893 19.6798 14.3798 19.2747 13.8494C19.8176 13.7087 20.4875 13.5334 20.6306 13.4884C20.9891 13.3812 21.0976 13.1542 21.1307 13.028C21.1554 12.9295 21.1876 12.6779 20.9463 12.4388ZM10.9441 14.2576C10.3874 14.3879 9.99954 14.4789 9.7598 14.5358C9.55132 14.1188 9.14279 13.2965 8.74396 12.4938C7.81438 10.6209 7.33428 9.65659 7.08172 9.15242L7.33646 9.13054C7.75343 9.0946 8.32449 9.04552 8.64237 9.01896C9.16624 9.90227 10.9654 12.9354 11.6524 14.0919L10.9441 14.2576ZM16.5128 16.3406C15.7561 16.5906 15.346 16.7272 15.1244 16.8013C14.9275 16.4781 14.4943 15.7535 14.1095 15.1075L17.7259 14.186C17.8822 14.3989 18.1813 14.8024 18.7718 15.5904C18.207 15.7792 17.2652 16.0911 16.5128 16.3406ZM18.2592 12.5388L17.5165 11.5533C17.9438 11.4786 18.1898 11.4354 18.3339 11.4095L19.0821 12.3378C18.8258 12.4 18.5277 12.4728 18.2592 12.5388Z" fill="#202327"/>
</g>
<defs>
<clipPath id="clip0_13_4642">
<rect width="16.0035" height="16.0035" fill="white" transform="translate(5.14368 5.10461)"/>
</clipPath>
</defs>
</svg>
