<svg width="26" height="26" viewBox="0 0 26 26" fill="none" xmlns="http://www.w3.org/2000/svg">
<rect x="0.799622" y="0.907776" width="24.4042" height="24.4042" rx="4.20794" stroke="#7B61FF" stroke-width="0.400757" stroke-dasharray="2 2"/>
<path d="M18.8831 6.10889H7.19651C6.55793 6.10889 6 6.56836 6 7.19944V18.912C6 19.5465 6.55793 20.1119 7.19651 20.1119H18.8797C19.5217 20.1119 20.003 19.5427 20.003 18.912V7.19944C20.0068 6.56836 19.5217 6.10889 18.8831 6.10889ZM10.3406 17.7811H8.33457V11.5438H10.3406V17.7811ZM9.40699 10.5955H9.39261C8.7506 10.5955 8.33488 10.1176 8.33488 9.51932C8.33488 8.91012 8.76154 8.44346 9.41793 8.44346C10.0743 8.44346 10.476 8.90668 10.4904 9.51932C10.49 10.1176 10.0743 10.5955 9.40699 10.5955ZM17.6722 17.7811H15.6662V14.3707C15.6662 13.5536 15.3742 12.9954 14.6484 12.9954C14.0939 12.9954 13.7658 13.3705 13.6198 13.7359C13.5651 13.8671 13.5504 14.0459 13.5504 14.2285V17.7811H11.5443V11.5438H13.5504V12.4118C13.8423 11.9961 14.2984 11.3979 15.3595 11.3979C16.6764 11.3979 17.6725 12.2659 17.6725 14.1372L17.6722 17.7811Z" fill="#202327"/>
</svg>
