<svg width="26" height="26" viewBox="0 0 26 26" fill="none" xmlns="http://www.w3.org/2000/svg">
<rect x="0.803101" y="0.907776" width="24.4042" height="24.4042" rx="4.20794" stroke="#7B61FF" stroke-width="0.400757" stroke-dasharray="2 2"/>
<g clip-path="url(#clip0_13_4648)">
<path d="M19.85 7.10913H6.15955C5.52129 7.10913 5.00305 7.65237 5.00305 8.32096V17.8987C5.00305 18.5676 5.52129 19.1117 6.15955 19.1117H19.85C20.487 19.1117 21.0065 18.5676 21.0065 17.8987V8.32096C21.0065 7.65237 20.4883 7.10913 19.85 7.10913ZM14.005 16.6112H12.0046V13.1104L10.5042 15.1109L9.00392 13.1104V16.6112H7.00349V9.60968H9.00392L10.5042 12.1102L12.0046 9.60968H14.005V16.6112ZM17.0057 16.6112L14.5051 13.1104H16.007L16.0054 9.60968H18.0059V13.1104H19.5062L17.0057 16.6112Z" fill="#202327"/>
</g>
<defs>
<clipPath id="clip0_13_4648">
<rect width="16.0035" height="16.0035" fill="white" transform="translate(5.00348 5.10815)"/>
</clipPath>
</defs>
</svg>
