<svg width="26" height="26" viewBox="0 0 26 26" fill="none" xmlns="http://www.w3.org/2000/svg">
<rect x="0.817017" y="0.907776" width="24.4042" height="24.4042" rx="4.20794" stroke="#7B61FF" stroke-width="0.400757" stroke-dasharray="2 2"/>
<path d="M16.7717 13.1106H16.2692V14.6182H16.7717V13.1106Z" fill="#202327"/>
<path d="M8.51819 14.6111H12.5696L11.0691 13.1106H8.51819V14.6111Z" fill="#202327"/>
<path d="M16.4111 6.9872C16.4003 6.98165 16.3898 6.97539 16.3798 6.96845C16.0353 6.7838 15.6756 6.62904 15.3046 6.50585L15.1358 6.44959C14.4522 6.2277 13.7384 6.11278 13.0197 6.10889C9.15325 6.10889 6.01819 9.24394 6.01819 13.1104C6.01787 14.3597 6.35227 15.5863 6.98662 16.6626C7.62096 17.7389 8.53208 18.6256 9.62522 19.2305C9.63773 19.2367 9.6471 19.2461 9.65961 19.2524C10.0041 19.437 10.3639 19.5918 10.7348 19.715L10.9036 19.7712C11.5872 19.9934 12.301 20.1083 13.0197 20.1119C16.8862 20.1119 20.0212 16.9769 20.0212 13.1104C20.0216 11.8603 19.687 10.6329 19.052 9.55598C18.4171 8.47908 17.5052 7.59205 16.4111 6.9872ZM13.0197 18.4366C12.7347 18.4356 12.4503 18.4105 12.1695 18.3616C11.8666 18.3114 11.5685 18.235 11.2787 18.1334C11.2193 18.1146 11.1599 18.0959 11.1037 18.074C10.9002 17.9972 10.7018 17.9074 10.5098 17.8052C9.65877 17.3508 8.94722 16.6736 8.45118 15.8462C7.95515 15.0187 7.69328 14.072 7.69355 13.1073C7.69355 11.9445 8.08114 10.8755 8.71565 10.0004L16.1298 17.4145C15.2514 18.049 14.1825 18.4366 13.0197 18.4366ZM17.3269 16.2173L9.91279 8.80322C10.788 8.17184 11.8538 7.78425 13.0197 7.78425C13.3047 7.7854 13.5891 7.8105 13.8699 7.85927C14.1729 7.90946 14.4709 7.98581 14.7607 8.08744C14.817 8.1062 14.8764 8.12495 14.9358 8.14683C15.1283 8.21971 15.3162 8.30426 15.4984 8.40001C16.3583 8.85085 17.0786 9.52838 17.581 10.3592C18.0835 11.1901 18.3491 12.1426 18.349 13.1135C18.3459 14.2763 17.9583 15.3421 17.3269 16.2173Z" fill="#202327"/>
<path d="M16.0265 13.1106H14.9567L16.0265 14.1804V13.1106Z" fill="#202327"/>
<path d="M17.5227 13.1106H17.0201V14.6182H17.5227V13.1106Z" fill="#202327"/>
<path d="M16.2735 11.7575C15.9984 11.6293 15.5857 11.5793 14.848 11.5793H14.7354C14.3384 11.5824 14.2384 11.5762 14.1102 11.3886C14.0227 11.2573 14.0789 10.9259 14.2259 10.704C14.2509 10.6664 14.2653 10.6227 14.2675 10.5775C14.2697 10.5324 14.2596 10.4875 14.2384 10.4476C14.2168 10.4081 14.1852 10.3749 14.1468 10.3513C14.1085 10.3277 14.0646 10.3146 14.0195 10.3132C13.8232 10.3064 13.6295 10.2651 13.4475 10.1913C13.1161 10.0506 12.9598 9.81302 12.9598 9.46914C12.9598 8.6626 13.6413 8.60321 13.6725 8.60321V8.10303C13.2974 8.10303 12.4596 8.4469 12.4596 9.46914C12.4596 10.0162 12.7409 10.4382 13.263 10.6571C13.3842 10.7063 13.5098 10.744 13.6381 10.7696C13.535 11.076 13.5256 11.423 13.6913 11.6668C13.9726 12.0826 14.3259 12.0795 14.7323 12.0763H14.8417C15.6639 12.0763 15.9233 12.1482 16.0578 12.2108C16.236 12.292 16.2703 12.4452 16.2641 12.7016V12.7328H16.7643V12.7016C16.7643 12.4796 16.7737 11.9888 16.2735 11.7575Z" fill="#202327"/>
<path d="M17.5203 12.7354C17.5203 11.932 17.4266 11.51 17.2359 11.1849C16.967 10.7347 16.5356 10.4846 16.0198 10.4846H15.4759C15.5665 10.2252 15.6447 9.86565 15.5853 9.51865C15.4852 8.93094 14.9882 8.58081 14.2379 8.58081V9.08099C14.8944 9.08099 15.0538 9.36547 15.0945 9.60305C15.1726 10.0563 14.8819 10.6065 14.8788 10.6128C14.8579 10.6507 14.8472 10.6934 14.8477 10.7367C14.8483 10.78 14.86 10.8224 14.8819 10.8598C14.9043 10.8969 14.9359 10.9277 14.9737 10.9491C15.0115 10.9704 15.0542 10.9817 15.0976 10.9817H16.0198C16.3606 10.9817 16.6263 11.1349 16.8045 11.4381C16.9014 11.6038 17.0202 11.8601 17.0202 12.7323H17.5203V12.7354Z" fill="#202327"/>
</svg>
