<svg width="26" height="26" viewBox="0 0 26 26" fill="none" xmlns="http://www.w3.org/2000/svg">
<rect x="0.820496" y="0.907776" width="24.4042" height="24.4042" rx="4.20794" stroke="#7B61FF" stroke-width="0.400757" stroke-dasharray="2 2"/>
<path d="M18.4537 9.17396L13.5955 6.2602C13.421 6.16072 13.2236 6.1084 13.0227 6.1084C12.8219 6.1084 12.6244 6.16072 12.4499 6.2602L7.59138 9.17365C7.41629 9.28094 7.27183 9.43158 7.17196 9.61101C7.07209 9.79044 7.02019 9.99259 7.02126 10.1979V16.017C7.02021 16.2225 7.07211 16.4248 7.17197 16.6043C7.27184 16.7839 7.41628 16.9347 7.59138 17.0422L8.86541 17.803L8.8726 17.8071C9.51586 18.1362 9.76217 18.1362 10.0475 18.1362C11.0521 18.1362 11.6763 17.4861 11.6763 16.4393V10.7971C11.6769 10.7267 11.6495 10.6589 11.6002 10.6086C11.5509 10.5583 11.4836 10.5297 11.4132 10.5289H10.7136C10.6432 10.5297 10.5759 10.5583 10.5266 10.6086C10.4772 10.6589 10.4499 10.7267 10.4504 10.7971V16.4393C10.453 16.5201 10.4346 16.6001 10.3971 16.6717C10.3596 16.7433 10.3042 16.804 10.2363 16.8478C10.0519 16.9603 9.78405 16.9366 9.48179 16.7806L8.2609 16.0458C8.25623 16.0426 8.25241 16.0383 8.2498 16.0333C8.24718 16.0283 8.24584 16.0227 8.2459 16.017V10.2801C8.2461 10.2735 8.24788 10.2671 8.25109 10.2613C8.2543 10.2556 8.25884 10.2507 8.26434 10.247L13.0104 7.34012C13.0139 7.33836 13.0178 7.33745 13.0218 7.33745C13.0257 7.33745 13.0296 7.33836 13.0332 7.34012L17.782 10.247C17.7874 10.2509 17.7918 10.2561 17.7948 10.2621C17.7978 10.2681 17.7993 10.2747 17.7992 10.2814V16.017C17.7993 16.0229 17.7981 16.0288 17.7957 16.0342C17.7933 16.0396 17.7897 16.0444 17.7852 16.0483L13.0323 18.8817C13.0242 18.8845 13.0153 18.8845 13.0072 18.8817L11.7935 18.1609C11.7575 18.1374 11.7159 18.1238 11.6729 18.1215C11.6299 18.1193 11.5871 18.1284 11.5488 18.1481L11.5382 18.1544C11.2031 18.3528 11.1131 18.4044 10.8024 18.5176C10.7518 18.536 10.6327 18.5801 10.6224 18.6979C10.612 18.8157 10.7252 18.8995 10.8258 18.958L12.4481 19.9541C12.6209 20.0577 12.8186 20.1124 13.0201 20.1126H13.0382C13.2346 20.1095 13.4268 20.0549 13.5955 19.9541L18.4537 17.0432C18.6288 16.9353 18.7731 16.7843 18.8729 16.6046C18.9728 16.4249 19.0248 16.2226 19.0239 16.017V10.1979C19.0249 9.99265 18.9729 9.79057 18.873 9.61121C18.7732 9.43184 18.6288 9.28125 18.4537 9.17396Z" fill="#202327"/>
<path d="M14.6454 15.0506C13.4797 15.0506 13.2312 14.7248 13.1574 14.199C13.1491 14.1364 13.1186 14.0789 13.0714 14.0369C13.0242 13.9949 12.9636 13.9712 12.9004 13.9702H12.2814C12.2117 13.9716 12.1454 14.0007 12.097 14.051C12.0486 14.1012 12.0221 14.1686 12.0232 14.2384C12.0232 14.6942 12.1833 16.1819 14.6467 16.1819C15.4088 16.1819 16.0428 16.0037 16.4795 15.6664C16.9162 15.3291 17.1501 14.8383 17.1501 14.2534C17.1501 13.0795 16.3842 12.7582 14.8758 12.5481C13.3425 12.3349 13.3425 12.2264 13.3425 11.9888C13.3425 11.8178 13.3425 11.4174 14.451 11.4174C15.2397 11.4174 15.662 11.5171 15.7971 12.0426C15.809 12.1009 15.8405 12.1533 15.8864 12.1912C15.9322 12.2291 15.9896 12.2503 16.0491 12.2511H16.6702C16.7068 12.2507 16.7429 12.2426 16.7761 12.2272C16.8093 12.2118 16.8389 12.1894 16.8628 12.1617C16.9105 12.1059 16.9344 12.0336 16.9291 11.9604C16.8487 10.849 16.0362 10.2854 14.4519 10.2854C13.012 10.2854 12.1527 10.9341 12.1527 12.0204C12.1527 13.2115 13.0433 13.5481 14.3813 13.6876C15.9443 13.8492 15.9443 14.0849 15.9443 14.2931C15.9453 14.6176 15.8105 15.0506 14.6454 15.0506Z" fill="#202327"/>
</svg>
