<svg width="26" height="26" viewBox="0 0 26 26" fill="none" xmlns="http://www.w3.org/2000/svg">
<rect x="0.827454" y="0.907776" width="24.4042" height="24.4042" rx="4.20794" stroke="#7B61FF" stroke-width="0.400757" stroke-dasharray="2 2"/>
<g clip-path="url(#clip0_13_4669)">
<path d="M10.4324 14.1765C10.1275 14.1765 9.86597 14.3191 9.65483 14.6104C9.44369 14.9016 9.33984 15.2541 9.33984 15.6739C9.33984 16.0937 9.44713 16.4531 9.65483 16.7411C9.86253 17.0292 10.124 17.1756 10.4324 17.1756C10.7171 17.1756 10.9642 17.0299 11.1732 16.7418C11.3821 16.4537 11.4881 16.098 11.4881 15.6745C11.4881 15.251 11.3809 14.8985 11.1732 14.611C10.9655 14.3235 10.7183 14.1765 10.4324 14.1765Z" fill="#202327"/>
<path d="M15.6668 14.1765C15.3653 14.1765 15.1003 14.3191 14.8892 14.6104C14.6781 14.9016 14.5742 15.2541 14.5742 15.6739C14.5742 16.0937 14.6815 16.4531 14.8892 16.7411C15.0969 17.0292 15.3618 17.1756 15.6668 17.1756C15.9518 17.1756 16.1986 17.0299 16.411 16.7418C16.6234 16.4537 16.726 16.098 16.726 15.6745C16.726 15.251 16.6187 14.8985 16.411 14.611C16.2033 14.3235 15.9552 14.1765 15.6668 14.1765Z" fill="#202327"/>
<path d="M19.3854 10.2659C19.3819 10.2659 19.4757 9.78177 19.3954 8.93846C19.3216 8.09452 19.1453 7.31998 18.8562 6.60889C18.8562 6.60889 18.7086 6.63608 18.4273 6.70703C18.146 6.77799 17.6862 6.92145 17.0577 7.20839C16.4382 7.49595 15.7852 7.87854 15.1054 8.3427C14.6431 8.21049 13.9532 8.14297 13.029 8.14297C12.1482 8.14297 11.4583 8.21049 10.9526 8.3427C9.45914 7.29622 8.20772 6.71829 7.19833 6.60889C6.91056 7.32008 6.73198 8.0989 6.66259 8.94533C6.58226 9.78927 6.67603 10.2762 6.67603 10.2762C5.8621 11.1668 5.52734 12.4502 5.52734 13.5098C5.52734 14.3293 5.55079 15.0707 5.73176 15.729C5.9193 16.3826 6.15686 16.9168 6.43817 17.3275C6.72922 17.7428 7.08681 18.1072 7.49652 18.4061C7.91505 18.7212 8.30013 18.9481 8.64865 19.0904C9.00029 19.2391 9.39881 19.3476 9.85422 19.4254C10.1917 19.4907 10.5328 19.536 10.8757 19.5611C10.8757 19.5611 11.8134 19.6117 13.0324 19.6117C14.2514 19.6117 15.1857 19.5611 15.1857 19.5611C15.5285 19.5352 15.8696 19.4895 16.2072 19.4242C16.6191 19.3577 17.0223 19.2453 17.4093 19.0891C17.7578 18.9434 18.1429 18.72 18.5658 18.4049C18.9753 18.1064 19.3319 17.7414 19.6207 17.325C19.902 16.9152 20.1396 16.3801 20.3271 15.7265C20.5147 15.0729 20.5306 14.3259 20.5306 13.5063C20.5306 12.4805 20.1958 11.1802 19.3854 10.2659ZM17.1952 18.1761C16.2606 18.6196 14.8875 18.799 13.0659 18.799H12.9955C11.1736 18.799 9.80046 18.6231 8.88307 18.1761C7.96569 17.7291 7.49996 16.818 7.49996 15.4433C7.49996 14.6206 7.78784 13.9536 8.3539 13.4429C8.60176 13.2241 8.90308 13.0703 9.27816 12.979C9.65324 12.8878 9.99488 12.8853 10.3162 12.8943C10.6313 12.9078 11.0732 12.9687 11.6324 13.0128C12.1916 13.0569 12.6136 13.1144 13.0324 13.1144C13.4241 13.1144 13.9432 13.0465 14.7772 12.979C15.6111 12.9115 16.234 12.8774 16.6357 12.945C17.0477 13.0128 17.4062 13.155 17.7109 13.4429C18.3036 13.9778 18.6005 14.6446 18.6018 15.4433C18.5983 16.818 18.126 17.7326 17.1952 18.1761Z" fill="#202327"/>
</g>
<defs>
<clipPath id="clip0_13_4669">
<rect width="16.0035" height="16.0035" fill="white" transform="translate(5.02783 5.10815)"/>
</clipPath>
</defs>
</svg>
