<svg width="26" height="26" viewBox="0 0 26 26" fill="none" xmlns="http://www.w3.org/2000/svg">
<rect x="0.830933" y="0.907776" width="24.4042" height="24.4042" rx="4.20794" stroke="#7B61FF" stroke-width="0.400757" stroke-dasharray="2 2"/>
<g clip-path="url(#clip0_13_4672)">
<path d="M18.3092 9.75854C18.2957 9.84481 18.2801 9.93296 18.2626 10.0236C17.6634 13.0868 15.6133 14.1432 12.9946 14.1432H11.6615C11.5073 14.1429 11.358 14.1977 11.2406 14.2978C11.1233 14.3979 11.0456 14.5366 11.0217 14.689L10.1458 20.2186C10.1389 20.2627 10.1407 20.3078 10.1512 20.3512C10.1617 20.3946 10.1807 20.4355 10.207 20.4716C10.2334 20.5076 10.2666 20.5381 10.3047 20.5614C10.3429 20.5846 10.3852 20.6 10.4293 20.6068C10.4469 20.6096 10.4647 20.611 10.4825 20.6109H12.8471C12.9823 20.6113 13.1132 20.5635 13.2164 20.476C13.3195 20.3885 13.388 20.2671 13.4097 20.1336L13.4328 20.0139L13.8779 17.2008L13.9064 17.0464C13.9277 16.9127 13.9961 16.791 14.0993 16.7033C14.2024 16.6156 14.3336 16.5677 14.469 16.5682H14.8225C17.1136 16.5682 18.9068 15.6423 19.431 12.9636C19.6498 11.8446 19.5366 10.9104 18.9571 10.253C18.7729 10.0503 18.5534 9.88272 18.3092 9.75854Z" fill="#202327"/>
<path d="M17.0819 6.70545C16.4042 5.93747 15.1811 5.60864 13.6158 5.60864H9.0717C8.91713 5.60828 8.76752 5.66312 8.64981 5.76329C8.5321 5.86347 8.45404 6.00238 8.42968 6.15501L6.53708 18.0951C6.52912 18.1456 6.53122 18.1972 6.54324 18.2469C6.55527 18.2966 6.57699 18.3435 6.60717 18.3848C6.63734 18.4261 6.67537 18.461 6.71907 18.4876C6.76277 18.5141 6.81129 18.5318 6.86184 18.5396C6.8819 18.5427 6.90217 18.5443 6.92248 18.5443H9.72809L10.4326 14.0967L10.4107 14.2361C10.4347 14.0838 10.5124 13.945 10.6297 13.8449C10.747 13.7448 10.8963 13.69 11.0506 13.6904H12.3837C15.002 13.6904 17.0522 12.632 17.6517 9.57076C17.6695 9.48011 17.6845 9.39197 17.6983 9.3057C17.8764 8.17358 17.6967 7.4031 17.0819 6.70545Z" fill="#202327"/>
</g>
<defs>
<clipPath id="clip0_13_4672">
<rect width="16.0035" height="16.0035" fill="white" transform="translate(5.03131 5.10815)"/>
</clipPath>
</defs>
</svg>
