<svg width="26" height="26" viewBox="0 0 26 26" fill="none" xmlns="http://www.w3.org/2000/svg">
<rect x="0.834412" y="0.907776" width="24.4042" height="24.4042" rx="4.20794" stroke="#7B61FF" stroke-width="0.400757" stroke-dasharray="2 2"/>
<path d="M13.0379 6.10962C9.17143 6.10962 6.03638 9.24468 6.03638 13.1111C6.03638 15.9774 7.76175 18.4404 10.2279 19.525C10.2092 19.0374 10.2248 18.4498 10.3498 17.9184C10.4842 17.3496 11.25 14.102 11.25 14.102C11.25 14.102 11.025 13.655 11.025 12.9955C11.025 11.9578 11.6251 11.1826 12.3753 11.1826C13.0129 11.1826 13.3192 11.6608 13.3192 12.2328C13.3192 12.8736 12.9097 13.8301 12.7003 14.7177C12.5253 15.4617 13.0723 16.0649 13.8068 16.0649C15.1321 16.0649 16.0261 14.3614 16.0261 12.3422C16.0261 10.8075 14.9915 9.66039 13.1129 9.66039C10.9906 9.66039 9.66529 11.2451 9.66529 13.0142C9.66529 13.6238 9.84658 14.0551 10.1279 14.3864C10.256 14.5396 10.2748 14.6021 10.2279 14.7771C10.1935 14.9053 10.1185 15.2147 10.0841 15.3398C10.0372 15.5179 9.89347 15.5804 9.73406 15.5148C8.75572 15.1147 8.29937 14.0457 8.29937 12.8392C8.29937 10.8513 9.97786 8.46638 13.3036 8.46638C15.976 8.46638 17.7358 10.4012 17.7358 12.4766C17.7358 15.2241 16.2073 17.2746 13.9569 17.2746C13.2004 17.2746 12.4909 16.8651 12.2471 16.4025C12.2471 16.4025 11.8408 18.0153 11.7532 18.3279C11.6063 18.8687 11.3157 19.4063 11.05 19.8282C11.6944 20.0184 12.3628 20.1152 13.0348 20.1158C16.9012 20.1158 20.0363 16.9807 20.0363 13.1143C20.0363 9.2478 16.9044 6.10962 13.0379 6.10962Z" fill="#202327"/>
</svg>
