<svg width="26" height="26" viewBox="0 0 26 26" fill="none" xmlns="http://www.w3.org/2000/svg">
<rect x="0.837891" y="0.907776" width="24.4042" height="24.4042" rx="4.20794" stroke="#7B61FF" stroke-width="0.400757" stroke-dasharray="2 2"/>
<g clip-path="url(#clip0_13_4678)">
<path d="M17.5337 11.4541C17.5086 10.9196 17.4305 10.3757 17.1961 9.8881C17.0675 9.61831 16.893 9.37293 16.6803 9.16295C16.481 8.96551 16.2573 8.7943 16.0146 8.65346C15.4801 8.33464 14.8424 8.1221 13.3765 7.6845C11.9106 7.2469 11.0394 7.10938 11.0394 7.10938V18.3087L13.5368 19.112C13.5368 19.112 13.54 12.8981 13.54 9.75058V9.6318C13.54 9.34111 13.7744 9.10668 14.0432 9.10668H14.0588C14.3245 9.10668 14.5433 9.34111 14.5433 9.6318V13.7983C14.8871 13.964 15.456 14.089 15.8498 14.0828C16.1112 14.0901 16.3699 14.0286 16.6 13.9046C16.8375 13.7733 17.036 13.5813 17.1751 13.3482C17.3304 13.0855 17.4353 12.7961 17.4846 12.4949C17.543 12.1573 17.5462 11.8041 17.5337 11.4541Z" fill="#202327"/>
<path d="M7.74724 16.2928C8.6038 15.9864 10.5389 15.3706 10.5389 15.3706V13.895C10.5389 13.895 8.14738 14.6703 7.05949 15.0548C6.79064 15.1517 6.51867 15.2393 6.25608 15.3518C5.94972 15.48 5.64961 15.6238 5.37764 15.8145C5.25562 15.8925 5.1564 16.0014 5.09003 16.1302C5.05892 16.1964 5.0415 16.2681 5.03882 16.3412C5.03613 16.4142 5.04824 16.4871 5.0744 16.5554C5.13692 16.7148 5.25572 16.8461 5.39014 16.9492C5.63398 17.1337 5.92471 17.2462 6.21544 17.3306C7.10604 17.6263 8.04077 17.7669 8.97893 17.7464C9.43222 17.7402 10.1043 17.687 10.542 17.6089V16.2959C10.542 16.2959 10.1981 16.374 9.25091 16.6866C9.1071 16.7335 8.9633 16.7898 8.81325 16.8211C8.59115 16.8673 8.36486 16.8903 8.13801 16.8898C7.93481 16.8805 7.72536 16.868 7.53466 16.7929C7.46589 16.7617 7.39086 16.7242 7.36273 16.6491C7.33772 16.5866 7.3721 16.5241 7.41587 16.4803C7.5034 16.3897 7.62845 16.3397 7.74724 16.2928Z" fill="#202327"/>
<path d="M21.0419 15.9206C21.0388 15.733 20.9263 15.5705 20.795 15.4517C20.5731 15.2548 20.298 15.1298 20.023 15.0297C19.851 14.9704 19.7323 14.9266 19.5635 14.8735C18.7758 14.6172 17.9413 14.5234 17.1161 14.5203C16.866 14.5296 16.394 14.5359 16.1471 14.564C15.4626 14.6422 14.0435 15.0454 14.0435 15.0454V16.5707C14.0435 16.5707 16.1534 15.8956 17.0598 15.5767C17.3656 15.4776 17.6855 15.429 18.0069 15.433C18.2101 15.4392 18.4195 15.4548 18.6133 15.5299C18.682 15.558 18.7539 15.5986 18.7852 15.6705C18.8133 15.7518 18.7571 15.8268 18.6945 15.8737C18.5476 15.9925 18.3601 16.0393 18.1882 16.105C16.9067 16.5582 14.0404 17.5022 14.0404 17.5022V18.9712C14.0404 18.9712 17.7037 17.7335 19.3791 17.1333C19.6573 17.0302 19.9386 16.9427 20.2042 16.8083C20.4512 16.6832 20.6981 16.5395 20.8856 16.33C20.9861 16.2173 21.0417 16.0716 21.0419 15.9206Z" fill="#202327"/>
</g>
<defs>
<clipPath id="clip0_13_4678">
<rect width="16.0035" height="16.0035" fill="white" transform="translate(5.03827 5.10815)"/>
</clipPath>
</defs>
</svg>
