<svg width="26" height="26" viewBox="0 0 26 26" fill="none" xmlns="http://www.w3.org/2000/svg">
<rect x="0.84137" y="0.907776" width="24.4042" height="24.4042" rx="4.20794" stroke="#7B61FF" stroke-width="0.400757" stroke-dasharray="2 2"/>
<g clip-path="url(#clip0_13_4681)">
<path d="M15.3785 16.1107L17.8078 10.1094H16.1974L14.5358 13.9874L13.354 10.1094H12.1159L10.8475 13.9874L9.95262 12.2205L9.14307 14.7041L9.96512 16.1107H11.5498L12.6963 12.6327L13.7903 16.1107H15.3785Z" fill="#202327"/>
<path d="M6.56652 14.0505H7.5558C7.82609 14.0543 8.0956 14.0206 8.3566 13.9502L9.32744 10.9627C9.27226 10.8758 9.2095 10.794 9.1399 10.7183C8.77357 10.3123 8.23668 10.1094 7.52923 10.1094H5.0415V16.1107H6.56652V14.0505ZM7.87618 11.49C8.01976 11.6342 8.09144 11.8271 8.09123 12.0689C8.09102 12.3106 8.02851 12.5036 7.90369 12.6481C7.76533 12.8068 7.51069 12.8861 7.13977 12.8859H6.56652V11.2737H7.14227C7.48797 11.2737 7.73261 11.3458 7.87618 11.49ZM16.8206 15.0358L17.2829 13.8714H18.6173L17.984 12.1051L18.7761 10.1094L21.045 16.1107H19.3718L18.9842 15.0358H16.8206Z" fill="#202327"/>
</g>
<defs>
<clipPath id="clip0_13_4681">
<rect width="16.0035" height="16.0035" fill="white" transform="translate(5.04175 5.10815)"/>
</clipPath>
</defs>
</svg>
