<svg width="26" height="26" viewBox="0 0 26 26" fill="none" xmlns="http://www.w3.org/2000/svg">
<rect x="0.844849" y="0.907776" width="24.4042" height="24.4042" rx="4.20794" stroke="#7B61FF" stroke-width="0.400757" stroke-dasharray="2 2"/>
<path d="M14.8597 6.24567C14.2787 6.15003 13.4282 6.10596 12.8508 6.10877C12.3097 6.1094 11.7696 6.15519 11.2361 6.24567C9.80643 6.49573 9.54606 7.01772 9.54606 7.98168V9.10942H13.0468V9.60953H8.40893C7.1099 9.60953 6.05561 11.1621 6.04529 13.0828C6.04529 13.0919 6.04529 13.1009 6.04529 13.1103C6.04484 13.4461 6.07761 13.7811 6.14313 14.1105C6.4335 15.5571 7.33807 16.6111 8.40893 16.6111H9.04595V14.9232C9.04595 13.9449 9.69734 13.0493 10.7651 12.8571L11.0736 12.8187H14.8597C15.0187 12.8193 15.1771 12.7983 15.3304 12.7562C15.681 12.6625 15.9907 12.4553 16.2109 12.1669C16.4312 11.8785 16.5496 11.5252 16.5476 11.1624V7.98168C16.5476 7.07773 15.7762 6.39602 14.8597 6.24567ZM11.138 8.40614C11.0119 8.40658 10.8885 8.36955 10.7834 8.29975C10.6784 8.22996 10.5964 8.13054 10.548 8.01411C10.4995 7.89768 10.4867 7.76948 10.5112 7.64577C10.5357 7.52206 10.5964 7.40841 10.6856 7.31923C10.7747 7.23006 10.8884 7.16937 11.0121 7.14487C11.1358 7.12038 11.264 7.13317 11.3804 7.18163C11.4969 7.23009 11.5963 7.31204 11.6661 7.41708C11.7359 7.52212 11.7729 7.64552 11.7725 7.77163C11.7725 7.85497 11.7561 7.9375 11.7243 8.0145C11.6924 8.0915 11.6457 8.16146 11.5867 8.22039C11.5278 8.27932 11.4578 8.32606 11.3808 8.35793C11.3038 8.3898 11.2213 8.40619 11.138 8.40614Z" fill="#202327"/>
<path d="M19.901 11.8906C19.5666 10.5588 18.7004 9.60889 17.6849 9.60889H17.1314V11.092C17.1314 12.3289 16.3187 13.2244 15.3266 13.3778C15.2264 13.3934 15.1251 13.4012 15.0237 13.4013H11.2366C11.076 13.4011 10.916 13.4216 10.7606 13.4622C10.0633 13.6454 9.54626 14.2255 9.54626 14.9779V18.1589C9.54626 19.0653 10.4571 19.5967 11.3507 19.8564C12.42 20.1674 13.585 20.2237 14.8646 19.8564C15.7145 19.6136 16.5478 19.1225 16.5478 18.1589V17.1105H13.047V16.6104H17.6849C18.6051 16.6104 19.4025 15.8312 19.7932 14.6941C19.9648 14.1835 20.051 13.6482 20.0485 13.1096C20.0494 12.6988 19.9999 12.2894 19.901 11.8906ZM14.9384 17.7357C15.0645 17.7352 15.1879 17.7723 15.2929 17.842C15.398 17.9118 15.4799 18.0113 15.5284 18.1277C15.5768 18.2441 15.5896 18.3723 15.5651 18.496C15.5406 18.6197 15.4799 18.7334 15.3908 18.8226C15.3016 18.9117 15.1879 18.9724 15.0642 18.9969C14.9405 19.0214 14.8123 19.0086 14.6959 18.9602C14.5795 18.9117 14.48 18.8298 14.4103 18.7247C14.3405 18.6197 14.3034 18.4963 14.3039 18.3702C14.3038 18.2868 14.3202 18.2043 14.3521 18.1273C14.384 18.0503 14.4307 17.9803 14.4896 17.9214C14.5485 17.8625 14.6185 17.8157 14.6955 17.7839C14.7725 17.752 14.855 17.7356 14.9384 17.7357Z" fill="#202327"/>
</svg>
