<svg width="26" height="26" viewBox="0 0 26 26" fill="none" xmlns="http://www.w3.org/2000/svg">
<rect x="0.851807" y="0.907776" width="24.4042" height="24.4042" rx="4.20794" stroke="#7B61FF" stroke-width="0.400757" stroke-dasharray="2 2"/>
<g clip-path="url(#clip0_13_4690)">
<path d="M15.1806 13.1106C14.9579 13.1106 14.7402 13.1766 14.555 13.3004C14.3698 13.4241 14.2255 13.6 14.1403 13.8057C14.0551 14.0115 14.0328 14.2379 14.0762 14.4564C14.1197 14.6748 14.2269 14.8754 14.3844 15.0329C14.5419 15.1904 14.7425 15.2977 14.961 15.3411C15.1794 15.3846 15.4058 15.3623 15.6116 15.277C15.8173 15.1918 15.9932 15.0475 16.1169 14.8623C16.2407 14.6771 16.3067 14.4594 16.3067 14.2367C16.3067 13.938 16.1881 13.6516 15.9769 13.4404C15.7657 13.2292 15.4793 13.1106 15.1806 13.1106Z" fill="#202327"/>
<path d="M11.3611 15.2765C11.9356 15.0385 12.2085 14.3798 11.9705 13.8052C11.7325 13.2306 11.0738 12.9578 10.4992 13.1958C9.92465 13.4338 9.6518 14.0925 9.88979 14.6671C10.1278 15.2416 10.7865 15.5145 11.3611 15.2765Z" fill="#202327"/>
<path d="M20.5559 13.0406C20.5559 12.0657 19.7701 11.2727 18.8055 11.2727C18.399 11.2727 18.0052 11.4149 17.6925 11.6747C16.5985 10.9317 15.1675 10.4769 13.64 10.3847L14.3277 7.91542L16.4034 8.32801C16.4628 9.15569 17.1536 9.8124 17.9866 9.8124C18.8618 9.8124 19.5738 9.09349 19.5738 8.21174C19.5738 7.32998 18.8368 6.60889 17.9616 6.60889C17.3511 6.60889 16.8266 6.95865 16.5597 7.50815L13.7466 6.94896L12.7745 10.3722L12.6298 10.3763C11.0473 10.4453 9.556 10.9054 8.41732 11.6744C8.10467 11.4136 7.71012 11.2714 7.30301 11.2727C6.33749 11.2727 5.55263 12.0657 5.55263 13.0406C5.55125 13.3509 5.63176 13.6561 5.78603 13.9253C5.94029 14.1946 6.16286 14.4183 6.43126 14.5741C6.41257 14.7123 6.40327 14.8516 6.40344 14.991C6.40688 16.2332 7.10641 17.3978 8.37262 18.273C9.62727 19.1357 11.2886 19.6117 13.0543 19.6117C14.82 19.6117 16.485 19.1357 17.7375 18.2711C19.0043 17.3959 19.702 16.231 19.702 14.9873C19.7017 14.8483 19.6929 14.7095 19.6757 14.5716C19.9443 14.4165 20.1671 14.1933 20.3217 13.9244C20.4762 13.6556 20.557 13.3507 20.5559 13.0406ZM17.9928 7.45282C18.1412 7.45282 18.2862 7.49682 18.4096 7.57925C18.533 7.66167 18.6291 7.77883 18.6859 7.91591C18.7427 8.05298 18.7575 8.20382 18.7286 8.34933C18.6996 8.49485 18.6282 8.62852 18.5233 8.73343C18.4184 8.83834 18.2847 8.90979 18.1392 8.93873C17.9937 8.96768 17.8428 8.95282 17.7058 8.89604C17.5687 8.83927 17.4515 8.74312 17.3691 8.61975C17.2867 8.49639 17.2427 8.35135 17.2427 8.20298C17.2427 8.00403 17.3217 7.81322 17.4624 7.67254C17.6031 7.53186 17.7939 7.45282 17.9928 7.45282ZM6.38781 13.0406C6.3869 12.7956 6.4832 12.5602 6.65559 12.3861C6.82798 12.2121 7.06239 12.1134 7.30739 12.112C7.45593 12.1123 7.60213 12.1491 7.73311 12.2192C7.24862 12.6696 6.89136 13.1697 6.66819 13.7095C6.5797 13.622 6.50938 13.5178 6.46126 13.403C6.41315 13.2882 6.38819 13.1651 6.38781 13.0406ZM17.2683 17.58C16.1512 18.3486 14.6552 18.7722 13.0558 18.7722C11.4564 18.7722 9.95984 18.3493 8.84366 17.58C7.81218 16.8677 7.24206 15.9465 7.24206 14.9857C7.24263 14.6946 7.29503 14.4058 7.39678 14.133C7.57432 13.641 7.90189 13.1803 8.37043 12.7643C8.51682 12.635 8.67088 12.5146 8.83178 12.4039L8.84116 12.3973L8.84866 12.392C9.96515 11.6256 11.4592 11.2043 13.0561 11.2043C14.6531 11.2043 16.1474 11.6265 17.2639 12.392L17.2711 12.3973L17.2817 12.4051C17.4424 12.5155 17.5964 12.6353 17.7428 12.764C18.2116 13.1803 18.5392 13.6407 18.7167 14.1333C18.7812 14.3121 18.8263 14.4973 18.8515 14.6856C18.864 14.7857 18.8703 14.8864 18.8702 14.9873C18.8699 15.9475 18.301 16.8686 17.2683 17.58ZM19.4438 13.7067C19.2209 13.1666 18.8637 12.6661 18.3789 12.2151C18.5104 12.1457 18.6569 12.1097 18.8055 12.1101C19.0505 12.1116 19.2849 12.2102 19.4572 12.3843C19.6295 12.5584 19.7258 12.7938 19.7248 13.0387C19.7246 13.1632 19.6996 13.2864 19.6514 13.4012C19.6031 13.516 19.5326 13.6194 19.4438 13.7067Z" fill="#202327"/>
<path d="M15.1558 16.4312C15.148 16.439 14.3568 17.2462 13.0566 17.2524C11.7437 17.2462 10.9846 16.4637 10.9524 16.4312C10.9282 16.4072 10.8955 16.3937 10.8613 16.3937C10.8272 16.3937 10.7944 16.4072 10.7702 16.4312L10.3419 16.8523C10.3298 16.8644 10.3201 16.8787 10.3136 16.8945C10.307 16.9103 10.3036 16.9272 10.3036 16.9444C10.3036 16.9615 10.307 16.9784 10.3136 16.9942C10.3201 17.01 10.3298 17.0244 10.3419 17.0364C10.4482 17.1427 11.4267 18.1065 13.0548 18.1134C14.6785 18.1065 15.6613 17.1427 15.7676 17.0364C15.7798 17.0243 15.7894 17.01 15.796 16.9941C15.8026 16.9783 15.806 16.9613 15.806 16.9442C15.806 16.9271 15.8026 16.9101 15.796 16.8943C15.7894 16.8784 15.7798 16.8641 15.7676 16.852L15.339 16.4309C15.3149 16.407 15.2822 16.3936 15.2482 16.3936C15.2142 16.3936 15.1816 16.407 15.1574 16.4309L15.1558 16.4312Z" fill="#202327"/>
</g>
<defs>
<clipPath id="clip0_13_4690">
<rect width="16.0035" height="16.0035" fill="white" transform="translate(5.05219 5.10815)"/>
</clipPath>
</defs>
</svg>
