<svg width="26" height="26" viewBox="0 0 26 26" fill="none" xmlns="http://www.w3.org/2000/svg">
<rect x="0.855286" y="0.907776" width="24.4042" height="24.4042" rx="4.20794" stroke="#7B61FF" stroke-width="0.400757" stroke-dasharray="2 2"/>
<path d="M8.44876 15.8228C8.07611 15.8241 7.71222 15.9358 7.40299 16.1438C7.09376 16.3517 6.85306 16.6466 6.71125 16.9912C6.56945 17.3358 6.53289 17.7147 6.60619 18.0801C6.6795 18.4455 6.85938 18.7809 7.12315 19.0442C7.38691 19.3074 7.72274 19.4866 8.08825 19.5592C8.45376 19.6318 8.83258 19.5945 9.17691 19.452C9.52125 19.3095 9.81566 19.0682 10.023 18.7586C10.2303 18.4489 10.3413 18.0848 10.3419 17.7122C10.3404 17.2109 10.1403 16.7307 9.78548 16.3766C9.43067 16.0225 8.95004 15.8233 8.44876 15.8228Z" fill="#202327"/>
<path d="M6.55566 10.9436V13.6489C8.18102 13.6489 9.74198 14.1299 10.89 15.2777C12.0381 16.4254 12.5154 17.9833 12.5154 19.6121H15.2241C15.2241 14.8748 11.2964 10.9436 6.55566 10.9436Z" fill="#202327"/>
<path d="M6.55664 6.60889V9.31448C12.347 9.31448 16.847 13.818 16.847 19.6117H19.5595C19.5595 12.4433 13.7354 6.60889 6.55664 6.60889Z" fill="#202327"/>
</svg>
