<svg width="26" height="26" viewBox="0 0 26 26" fill="none" xmlns="http://www.w3.org/2000/svg">
<rect x="0.858765" y="0.907776" width="24.4042" height="24.4042" rx="4.20794" stroke="#7B61FF" stroke-width="0.400757" stroke-dasharray="2 2"/>
<g clip-path="url(#clip0_13_4696)">
<path d="M21.0556 15.3636C21.0097 14.991 20.8209 14.6678 20.493 14.4018C20.4889 14.3968 20.4844 14.3922 20.4795 14.3881L20.463 14.3762L20.4577 14.3724L20.2836 14.2474L20.2776 14.243L20.2554 14.2274C20.2473 14.2226 20.2386 14.219 20.2295 14.2165C19.6787 13.8886 18.767 13.6588 17.372 14.1511C17.0391 13.591 17.0013 13.1422 17.2241 12.4545C17.2638 12.3348 17.227 12.2557 17.1082 12.2045C16.8694 12.1029 16.5424 12.1548 16.3105 12.216C16.2024 12.2442 16.1373 12.3054 16.1167 12.3982C15.9698 13.0859 15.5428 13.7142 15.1299 14.3205L15.1056 14.3562C14.8511 13.8167 14.904 13.3988 15.0812 12.8752C15.1165 12.7708 15.0887 12.7014 14.9908 12.6496C14.7177 12.5086 14.3079 12.6055 14.1447 12.6536C13.9378 12.7139 13.7159 13.2731 13.468 13.9426C13.4055 14.1111 13.3517 14.2552 13.3195 14.3224C13.243 14.4787 13.1698 14.6569 13.0923 14.846C12.9173 15.2739 12.72 15.7555 12.4381 16.0581C12.3356 15.8315 12.4969 15.4742 12.6535 15.1276C12.8388 14.7178 13.0139 14.3305 12.8122 14.0833C12.7804 14.0442 12.7408 14.0121 12.696 13.9888C12.6513 13.9656 12.6022 13.9518 12.5519 13.9483C12.4862 13.9433 12.4203 13.954 12.3596 13.9795C12.3806 13.8029 12.3815 13.6635 12.33 13.4951C12.2562 13.2547 12.0646 13.12 11.8008 13.1272C11.2 13.1447 10.6918 13.5923 10.3708 13.9648C10.157 14.2149 9.68313 14.4056 9.2671 14.5728C9.10269 14.6425 8.94641 14.705 8.81607 14.7675C8.60821 14.5919 8.34409 14.4146 8.0659 14.2274C7.28448 13.7029 6.39898 13.1081 6.36835 12.3017C6.32459 11.1105 7.68113 10.2656 8.86514 9.66265C9.76252 9.2063 10.5427 8.90374 11.2503 8.73839C12.2443 8.50615 13.0839 8.55304 13.7453 8.87717C14.1072 9.0544 14.2766 9.43979 14.1691 9.83613C13.8878 10.866 12.7222 11.5718 11.7254 11.8894C11.125 12.0807 10.614 12.1607 10.1626 12.1344C9.59686 12.1016 9.13488 11.8178 8.93734 11.6968C8.90569 11.6752 8.87223 11.6564 8.83732 11.6406L8.82826 11.6384C8.81037 11.6339 8.7916 11.6345 8.77401 11.64C8.75642 11.6455 8.74069 11.6558 8.72855 11.6697C8.68791 11.7181 8.70229 11.7947 8.71698 11.8334C8.90921 12.3357 9.30617 12.653 9.89661 12.7765C10.0898 12.8152 10.2865 12.8339 10.4836 12.8324C11.8655 12.8324 13.6287 12.0357 14.2763 11.3796C14.718 10.9326 15.0396 10.4731 15.1728 9.68078C15.3119 8.85091 14.7492 8.27423 14.176 8.00854C12.7829 7.36559 11.2006 7.61971 10.1185 7.94603C8.85264 8.32768 7.54298 9.02158 6.52588 9.85051C5.27186 10.8717 4.81863 11.8197 5.17809 12.6714C5.54723 13.5444 6.44743 14.0905 7.31793 14.6187C7.59924 14.7891 7.8668 14.9513 8.10779 15.1188C8.03527 15.1542 7.96119 15.1901 7.88586 15.2261C7.15508 15.5802 6.32615 15.9787 5.86636 16.6373C5.53254 17.1171 5.47002 17.5947 5.6807 18.057C5.79322 18.303 5.99326 18.4699 6.27114 18.553C6.41568 18.594 6.56538 18.6139 6.71561 18.6121C7.25666 18.6121 7.85211 18.3933 8.17624 18.1911C8.74886 17.8316 9.11988 17.349 9.27929 16.7567C9.4212 16.2297 9.38713 15.7062 9.18083 15.2389L9.88255 14.885C9.54404 16.0103 9.80347 16.6823 10.0885 17.053C10.1936 17.1896 10.383 17.2718 10.5946 17.2756C10.8062 17.2793 11.0009 17.1996 11.1109 17.064C11.3191 16.8061 11.4729 16.5045 11.6145 16.2028C11.607 16.3997 11.6164 16.5992 11.6836 16.7683C11.7439 16.9205 11.8433 17.0214 11.9714 17.0602C12.1077 17.1018 12.2674 17.0668 12.4212 16.9617C13.1142 16.4876 13.588 15.3495 13.9687 14.4346C14.0228 14.3046 14.0747 14.1796 14.125 14.0627C14.2192 14.3998 14.3502 14.7254 14.5157 15.0338C14.5526 15.1007 14.5495 15.1301 14.4995 15.1851C14.4242 15.2676 14.3191 15.3673 14.2079 15.473C13.8709 15.7927 13.4515 16.1919 13.3952 16.5429C13.3733 16.6836 13.4702 16.8117 13.6205 16.8408C14.0728 16.9308 14.6176 16.7992 15.0784 16.4891C15.4972 16.2078 15.6547 15.8156 15.5472 15.3267C15.4431 14.856 15.6807 14.2715 16.2533 13.5882C16.3471 13.9798 16.4721 14.2965 16.6446 14.5737L16.64 14.5775C16.223 14.9416 15.6516 15.4402 15.7404 16.045C15.7478 16.1025 15.7672 16.1578 15.7972 16.2075C15.8272 16.2571 15.8673 16.2999 15.9148 16.3332C15.9656 16.3674 16.0229 16.3909 16.0831 16.4019C16.1434 16.413 16.2052 16.4115 16.2649 16.3976C16.8109 16.2828 17.222 16.0519 17.5208 15.6921C17.8196 15.3323 17.7105 14.9335 17.6099 14.624C18.3913 14.4121 19.0871 14.4174 19.7384 14.6397C20.1041 14.7647 20.3664 14.9701 20.5177 15.2536C20.708 15.6102 20.6052 15.9393 20.2273 16.1803C20.1113 16.2544 20.0554 16.2997 20.0519 16.3569C20.0512 16.3702 20.0536 16.3835 20.0591 16.3956C20.0645 16.4077 20.0728 16.4184 20.0832 16.4266C20.127 16.4626 20.262 16.5251 20.5674 16.3329C20.8487 16.1563 21.0137 15.9159 21.0559 15.6139C21.0644 15.5307 21.0643 15.4468 21.0556 15.3636ZM8.56132 16.1469L8.5582 16.1869C8.50944 16.6445 8.27689 17.0433 7.86586 17.3746C7.60768 17.5828 7.3273 17.7107 7.07662 17.735C6.90159 17.7519 6.77437 17.7282 6.69873 17.6641C6.64215 17.6163 6.61184 17.5447 6.60496 17.4453C6.5537 16.6489 7.80272 15.8574 8.50569 15.5971C8.55585 15.7758 8.57468 15.9618 8.56132 16.1469ZM11.7605 13.9008C11.6448 14.56 11.3075 15.8043 10.7774 16.2872C10.7521 16.3104 10.7309 16.3185 10.7212 16.3163C10.7115 16.3141 10.704 16.3025 10.6962 16.285C10.5192 15.8749 10.5846 15.1823 10.8524 14.6381C11.0584 14.2186 11.3526 13.9408 11.6814 13.8567C11.695 13.8529 11.7091 13.8509 11.7233 13.8508C11.7343 13.85 11.7453 13.8529 11.7545 13.8592C11.7584 13.8653 11.7609 13.8722 11.7619 13.8793C11.763 13.8865 11.7625 13.8938 11.7605 13.9008ZM14.3701 16.3038C14.2704 16.4079 14.1338 16.3938 14.166 16.3557L14.6736 15.8168C14.6326 16.0022 14.5117 16.1556 14.3701 16.3038ZM16.4759 15.8377C16.4276 15.8615 16.3754 15.8763 16.3218 15.8812C16.3074 15.5977 16.5821 15.2786 16.8531 15.0657C16.926 15.3614 16.7769 15.674 16.4759 15.8377Z" fill="#202327"/>
</g>
<defs>
<clipPath id="clip0_13_4696">
<rect width="16.0035" height="16.0035" fill="white" transform="translate(5.05914 5.10815)"/>
</clipPath>
</defs>
</svg>
