<svg width="26" height="26" viewBox="0 0 26 26" fill="none" xmlns="http://www.w3.org/2000/svg">
<rect x="0.862244" y="0.907776" width="24.4042" height="24.4042" rx="4.20794" stroke="#7B61FF" stroke-width="0.400757" stroke-dasharray="2 2"/>
<path d="M19.6645 14.599C19.7675 14.1357 19.8188 13.6624 19.8176 13.1877C19.8176 9.55195 16.8267 6.60193 13.1352 6.60193C12.7528 6.60165 12.371 6.63302 11.9937 6.6957C11.3768 6.31057 10.6637 6.10742 9.93642 6.10964C7.79908 6.10964 6.06276 7.82001 6.06276 9.92765C6.06049 10.6084 6.24423 11.2769 6.59413 11.8609C6.50465 12.2965 6.45941 12.74 6.4591 13.1846C6.4591 16.8242 9.45007 19.7704 13.1377 19.7704C13.5475 19.7715 13.9565 19.7348 14.3596 19.661C14.9245 19.9585 15.5536 20.1136 16.1922 20.1127C18.3333 20.1127 20.0658 18.4023 20.0658 16.2947C20.0694 15.7055 19.9318 15.124 19.6645 14.599ZM16.5651 16.3306C16.255 16.7607 15.7989 17.1036 15.2082 17.3443C14.6174 17.5849 13.9195 17.7059 13.1171 17.7059C12.1578 17.7059 11.3555 17.5381 10.7244 17.2099C10.2869 16.9796 9.90964 16.6499 9.62292 16.2472C9.33817 15.8461 9.19595 15.4451 9.19595 15.0594C9.19595 14.8187 9.28972 14.6109 9.4732 14.4358C9.65573 14.268 9.89266 14.1805 10.1699 14.1805C10.3996 14.1805 10.5966 14.2461 10.7572 14.3811C10.9104 14.5087 11.0417 14.6984 11.1473 14.9462C11.2497 15.1836 11.379 15.4085 11.5327 15.6164C11.6644 15.7877 11.8505 15.9299 12.091 16.043C12.3354 16.1562 12.6598 16.2143 13.0599 16.2143C13.6107 16.2143 14.0629 16.0977 14.4021 15.868C14.7378 15.6455 14.8984 15.3757 14.8984 15.0475C14.8984 14.7887 14.8144 14.5843 14.6393 14.4239C14.4571 14.2561 14.2199 14.1248 13.9245 14.0373C13.6216 13.9435 13.2096 13.8441 12.6989 13.7385C12.0059 13.5925 11.4174 13.4175 10.9485 13.2206C10.4709 13.0199 10.0843 12.7392 9.79952 12.3929C9.51133 12.0391 9.36911 11.5943 9.36911 11.0726C9.36421 10.5904 9.52374 10.121 9.8214 9.74168C10.1205 9.35878 10.5547 9.05965 11.1201 8.85555C11.6746 8.65144 12.3348 8.54923 13.0787 8.54923C13.6769 8.54923 14.1986 8.61862 14.6362 8.7499C15.0738 8.88118 15.4461 9.06716 15.7414 9.29314C16.0368 9.51913 16.2522 9.75981 16.3906 10.012C16.5291 10.2643 16.5988 10.519 16.5988 10.7622C16.5988 10.9954 16.5075 11.2107 16.325 11.3967C16.2365 11.4888 16.1299 11.5617 16.0118 11.6106C15.8938 11.6596 15.767 11.6836 15.6392 11.6812C15.3914 11.6812 15.1979 11.6227 15.0632 11.5061C14.9381 11.3967 14.8078 11.2289 14.6656 10.9844C14.4977 10.6747 14.2971 10.4265 14.0673 10.2515C13.841 10.0839 13.4691 9.99642 12.9511 9.99642C12.4732 9.99642 12.0831 10.0902 11.7946 10.2777C11.5174 10.4565 11.3824 10.6644 11.3824 10.9085C11.3789 11.0484 11.427 11.1846 11.5174 11.2914C11.6274 11.418 11.7629 11.5199 11.915 11.5905C12.0863 11.6766 12.2659 11.745 12.451 11.7946C12.6386 11.8459 12.9471 11.9225 13.374 12.0172C13.9173 12.1303 14.4133 12.2616 14.8512 12.3963C15.2963 12.5385 15.6792 12.7089 15.9927 12.9105C16.3041 13.1071 16.5632 13.3762 16.7479 13.6947C16.9267 14.0073 17.018 14.4021 17.018 14.8544C17.0378 15.3834 16.8782 15.9037 16.5651 16.3306Z" fill="#202327"/>
</svg>
