<svg width="26" height="26" viewBox="0 0 26 26" fill="none" xmlns="http://www.w3.org/2000/svg">
<rect x="0.869202" y="0.907776" width="24.4042" height="24.4042" rx="4.20794" stroke="#7B61FF" stroke-width="0.400757" stroke-dasharray="2 2"/>
<g clip-path="url(#clip0_13_4705)">
<path d="M20.5731 15.9599C20.2273 15.9345 19.8843 15.879 19.5482 15.7939C18.6955 15.5867 17.8341 15.0356 17.419 14.1551C17.2033 13.6978 17.3364 13.574 17.7897 13.4049C18.2329 13.2402 18.7211 13.1636 18.9418 12.686C19.1259 12.2872 18.9771 11.8184 18.6164 11.5767C18.1254 11.2476 17.6678 11.5702 17.1592 11.6414C17.2758 10.183 17.4299 8.87302 16.4506 7.64901C15.6389 6.63441 14.3636 6.10742 13.0805 6.10742C11.7974 6.10742 10.5218 6.63441 9.71073 7.64932C8.72989 8.87646 8.88555 10.1867 9.00213 11.6477C8.49202 11.5774 8.03911 11.2479 7.54463 11.5796C7.08453 11.8874 7.01326 12.5098 7.37459 12.9236C7.73592 13.3374 8.36356 13.2205 8.7327 13.5675C8.93556 13.7578 8.84179 13.9616 8.72176 14.197C8.26916 15.0847 7.49462 15.6267 6.53879 15.8086C6.41376 15.8324 5.84145 15.8983 5.56982 15.9227C5.56982 16.2127 5.58608 16.4472 5.62077 16.6019C5.71267 17.0101 6.00586 17.3389 6.36125 17.5427C6.7107 17.7428 7.47024 17.7437 7.66403 18.0275C7.7578 18.1675 7.71904 18.4114 7.83063 18.5708C7.94406 18.732 8.11685 18.8416 8.31105 18.8755C8.89274 18.9884 9.47755 18.6505 10.0746 18.8099C10.5387 18.9333 10.9035 19.3059 11.3017 19.56C11.7865 19.8679 12.3125 20.0733 12.8905 20.1067C14.0814 20.1758 14.7637 19.5157 15.7217 18.9683C16.3312 18.6201 16.9142 18.8477 17.5621 18.8846C18.1904 18.9205 18.2976 18.5955 18.488 18.1069C18.5087 18.058 18.5248 18.0072 18.5361 17.9553C18.5617 17.9431 18.5857 17.9277 18.6074 17.9094C18.6699 17.8603 18.9371 17.8362 19.0062 17.82C19.3275 17.7437 19.642 17.659 19.9179 17.4699C20.2715 17.2273 20.4696 16.8916 20.53 16.4497C20.558 16.2879 20.5725 16.1241 20.5731 15.9599ZM11.5711 9.10808C11.8474 9.10808 12.0712 9.44377 12.0712 9.85824C12.0712 10.2727 11.8474 10.6084 11.5711 10.6084C11.2948 10.6084 11.071 10.2727 11.071 9.85824C11.071 9.44377 11.2948 9.10808 11.5711 9.10808ZM14.81 11.5367C14.3333 12.0056 13.716 12.265 13.0715 12.265C12.7476 12.2644 12.4272 12.1997 12.1285 12.0744C11.8299 11.9492 11.5591 11.766 11.3317 11.5355C11.2848 11.4886 11.2584 11.4249 11.2584 11.3586C11.2584 11.2922 11.2848 11.2286 11.3317 11.1817C11.3786 11.1347 11.4423 11.1084 11.5086 11.1084C11.575 11.1084 11.6386 11.1347 11.6855 11.1817C11.8665 11.3657 12.0822 11.5119 12.3201 11.6121C12.558 11.7122 12.8134 11.7641 13.0715 11.7649C13.5838 11.7649 14.0764 11.5574 14.4589 11.1804C14.5062 11.1339 14.57 11.108 14.6363 11.1085C14.7027 11.109 14.7661 11.1358 14.8126 11.1831C14.8592 11.2303 14.885 11.2941 14.8845 11.3604C14.884 11.4268 14.8572 11.4902 14.81 11.5367ZM14.5718 10.6084C14.2955 10.6084 14.0717 10.2724 14.0717 9.85824C14.0717 9.44409 14.2955 9.10808 14.5718 9.10808C14.8481 9.10808 15.0719 9.44409 15.0719 9.85824C15.0719 10.2724 14.8481 10.6084 14.5718 10.6084Z" fill="#202327"/>
</g>
<defs>
<clipPath id="clip0_13_4705">
<rect width="16.0035" height="16.0035" fill="white" transform="translate(5.06958 5.10815)"/>
</clipPath>
</defs>
</svg>
