<svg width="26" height="26" viewBox="0 0 26 26" fill="none" xmlns="http://www.w3.org/2000/svg">
<rect x="0.872681" y="0.907776" width="24.4042" height="24.4042" rx="4.20794" stroke="#7B61FF" stroke-width="0.400757" stroke-dasharray="2 2"/>
<g clip-path="url(#clip0_13_4708)">
<path d="M5.2543 13.7959C5.23798 13.7967 5.22254 13.8036 5.21098 13.8151C5.19943 13.8267 5.19257 13.8421 5.19174 13.8585L5.07288 14.7543L5.18986 15.6351C5.19079 15.6517 5.19789 15.6673 5.20976 15.6789C5.22163 15.6905 5.23741 15.6972 5.25399 15.6977C5.27024 15.6967 5.28556 15.6898 5.29707 15.6782C5.30859 15.6667 5.31551 15.6514 5.31655 15.6351L5.45543 14.754L5.3178 13.8585C5.31676 13.8422 5.30984 13.8269 5.29833 13.8154C5.28681 13.8039 5.27055 13.7969 5.2543 13.7959Z" fill="#202327"/>
<path d="M5.91233 13.3066C5.91233 13.2889 5.90531 13.272 5.89282 13.2595C5.88032 13.247 5.86338 13.24 5.84571 13.24C5.82804 13.24 5.81109 13.247 5.79859 13.2595C5.7861 13.272 5.77908 13.2889 5.77908 13.3066L5.62268 14.7555L5.77908 16.1725C5.77908 16.1901 5.7861 16.2071 5.79859 16.2196C5.81109 16.2321 5.82804 16.2391 5.84571 16.2391C5.86338 16.2391 5.88032 16.2321 5.89282 16.2196C5.90531 16.2071 5.91233 16.1901 5.91233 16.1725L6.09156 14.7552L5.91233 13.3066Z" fill="#202327"/>
<path d="M8.39117 11.9714C8.3594 11.9725 8.32922 11.9855 8.30675 12.008C8.28428 12.0305 8.2712 12.0607 8.27019 12.0924L8.14514 14.7565L8.27019 16.4784C8.27177 16.5094 8.28522 16.5387 8.30776 16.5601C8.33031 16.5816 8.36022 16.5935 8.39132 16.5935C8.42243 16.5935 8.45234 16.5816 8.47489 16.5601C8.49743 16.5387 8.51088 16.5094 8.51246 16.4784L8.65407 14.7565L8.51246 12.0924C8.51144 12.0606 8.49832 12.0304 8.47579 12.0079C8.45325 11.9854 8.42299 11.9724 8.39117 11.9714Z" fill="#202327"/>
<path d="M7.1088 12.897C7.08415 12.8977 7.0607 12.9078 7.04326 12.9252C7.02581 12.9427 7.0157 12.9661 7.015 12.9908L6.87366 14.7559L7.01468 16.4642C7.01468 16.4891 7.02457 16.5129 7.04216 16.5305C7.05975 16.5481 7.08361 16.558 7.10849 16.558C7.13337 16.558 7.15723 16.5481 7.17482 16.5305C7.19242 16.5129 7.2023 16.4891 7.2023 16.4642L7.36271 14.7559L7.2023 12.9898C7.20129 12.9654 7.1911 12.9423 7.17376 12.9251C7.15642 12.9079 7.13322 12.8978 7.1088 12.897Z" fill="#202327"/>
<path d="M9.69473 16.5981C9.73386 16.5975 9.77121 16.5817 9.79891 16.554C9.82661 16.5264 9.84249 16.4891 9.84322 16.45L9.96607 14.7572L9.84322 11.2103C9.84322 11.1709 9.82757 11.1331 9.79973 11.1053C9.77188 11.0774 9.73411 11.0618 9.69473 11.0618C9.65534 11.0618 9.61758 11.0774 9.58973 11.1053C9.56188 11.1331 9.54624 11.1709 9.54624 11.2103L9.43713 14.7569L9.54624 16.4503C9.54688 16.4894 9.56276 16.5267 9.59048 16.5543C9.61821 16.5819 9.6556 16.5977 9.69473 16.5981Z" fill="#202327"/>
<path d="M12.3654 16.6068C12.4191 16.606 12.4704 16.5842 12.5084 16.5462C12.5463 16.5081 12.5679 16.4567 12.5686 16.403L12.6542 14.7586L12.5686 10.6634C12.5686 10.6095 12.5471 10.5578 12.509 10.5197C12.4709 10.4816 12.4193 10.4602 12.3654 10.4602C12.3115 10.4602 12.2598 10.4816 12.2217 10.5197C12.1836 10.5578 12.1622 10.6095 12.1622 10.6634L12.0856 14.7586C12.0856 14.7611 12.1622 16.4052 12.1622 16.4052C12.1633 16.4586 12.1851 16.5094 12.223 16.547C12.2609 16.5847 12.312 16.6061 12.3654 16.6068Z" fill="#202327"/>
<path d="M11.0194 16.5999C11.066 16.5995 11.1105 16.5808 11.1434 16.5478C11.1763 16.5148 11.1949 16.4702 11.1951 16.4236L11.2995 14.7564L11.1951 11.1839C11.1961 11.1602 11.1923 11.1365 11.1839 11.1143C11.1755 11.0921 11.1627 11.0718 11.1463 11.0547C11.1299 11.0376 11.1102 11.0239 11.0883 11.0146C11.0665 11.0053 11.043 11.0005 11.0193 11.0005C10.9955 11.0005 10.972 11.0053 10.9502 11.0146C10.9284 11.0239 10.9086 11.0376 10.8922 11.0547C10.8758 11.0718 10.863 11.0921 10.8546 11.1143C10.8462 11.1365 10.8424 11.1602 10.8434 11.1839L10.7496 14.7568L10.8434 16.4236C10.8439 16.47 10.8626 16.5144 10.8956 16.5472C10.9285 16.5799 10.973 16.5984 11.0194 16.5987V16.5999Z" fill="#202327"/>
<path d="M7.74725 16.5846C7.77539 16.5839 7.80221 16.5725 7.8222 16.5527C7.8422 16.5329 7.85386 16.5061 7.85481 16.478L8.00584 14.7554L7.85481 13.1168C7.85481 13.0883 7.84348 13.061 7.82331 13.0408C7.80313 13.0206 7.77577 13.0093 7.74725 13.0093C7.71872 13.0093 7.69136 13.0206 7.67118 13.0408C7.65101 13.061 7.63968 13.0883 7.63968 13.1168L7.50647 14.7547L7.63968 16.4771C7.64016 16.5054 7.65165 16.5325 7.67172 16.5526C7.69179 16.5727 7.71887 16.5842 7.74725 16.5846Z" fill="#202327"/>
<path d="M6.47427 16.4896C6.49508 16.4889 6.51486 16.4804 6.52972 16.4658C6.54459 16.4512 6.55348 16.4316 6.55463 16.4108L6.72443 14.7536L6.55494 13.0337C6.55494 13.0124 6.54648 12.992 6.53141 12.9769C6.51634 12.9618 6.4959 12.9534 6.47458 12.9534C6.45327 12.9534 6.43283 12.9618 6.41776 12.9769C6.40269 12.992 6.39422 13.0124 6.39422 13.0337L6.24475 14.7536L6.39422 16.4108C6.39493 16.4318 6.40362 16.4516 6.41851 16.4663C6.4334 16.481 6.45335 16.4892 6.47427 16.4896Z" fill="#202327"/>
<path d="M11.6901 11.1255C11.6398 11.1257 11.5915 11.1459 11.556 11.1816C11.5204 11.2172 11.5004 11.2655 11.5004 11.3159L11.4156 14.758L11.5004 16.4149C11.5024 16.4638 11.5232 16.5101 11.5585 16.5441C11.5939 16.578 11.641 16.597 11.69 16.597C11.739 16.597 11.7861 16.578 11.8214 16.5441C11.8567 16.5101 11.8776 16.4638 11.8796 16.4149L11.9734 14.758L11.8796 11.3152C11.8793 11.265 11.8593 11.217 11.8238 11.1814C11.7884 11.1459 11.7403 11.1258 11.6901 11.1255Z" fill="#202327"/>
<path d="M9.04223 16.6016C9.07766 16.6008 9.11142 16.5864 9.13651 16.5613C9.1616 16.5363 9.17609 16.5026 9.17696 16.4671L9.3092 14.7568L9.1754 11.4838C9.17373 11.4491 9.15879 11.4164 9.13367 11.3925C9.10856 11.3686 9.0752 11.3552 9.04051 11.3552C9.00581 11.3552 8.97245 11.3686 8.94734 11.3925C8.92222 11.4164 8.90728 11.4491 8.90561 11.4838L8.7887 14.7568L8.90593 16.4678C8.90674 16.5034 8.92144 16.5374 8.9469 16.5623C8.97235 16.5873 9.00655 16.6014 9.04223 16.6016Z" fill="#202327"/>
<path d="M10.5176 16.4394L10.631 14.7576L10.5176 11.0912C10.5185 11.0694 10.515 11.0475 10.5073 11.027C10.4996 11.0065 10.4878 10.9878 10.4727 10.9719C10.4575 10.9561 10.4393 10.9435 10.4192 10.9349C10.3991 10.9263 10.3774 10.9219 10.3555 10.9219C10.3336 10.9219 10.3119 10.9263 10.2917 10.9349C10.2716 10.9435 10.2534 10.9561 10.2383 10.9719C10.2231 10.9878 10.2113 11.0065 10.2036 11.027C10.1959 11.0475 10.1924 11.0694 10.1934 11.0912L10.0924 14.7576L10.1934 16.4404C10.1934 16.4833 10.2104 16.5245 10.2408 16.5549C10.2712 16.5852 10.3124 16.6023 10.3553 16.6023C10.3983 16.6023 10.4394 16.5852 10.4698 16.5549C10.5002 16.5245 10.5176 16.4824 10.5176 16.4394Z" fill="#202327"/>
<path d="M19.1079 12.6429C18.8467 12.6426 18.5881 12.6947 18.3474 12.7961C18.1911 11.0088 16.703 9.60791 14.8885 9.60791C14.4578 9.60871 14.031 9.68903 13.6295 9.84484C13.481 9.90266 13.4419 9.96236 13.4401 10.078V16.3719C13.4409 16.4301 13.463 16.4861 13.5021 16.5292C13.5412 16.5724 13.5947 16.5998 13.6526 16.6063C13.6576 16.6063 19.0738 16.6097 19.1088 16.6097C20.1959 16.6097 21.078 15.7217 21.078 14.6265C21.078 13.5313 20.1956 12.6429 19.1079 12.6429Z" fill="#202327"/>
<path d="M13.0371 10.0725C12.9794 10.073 12.9242 10.0963 12.8836 10.1373C12.843 10.1782 12.8202 10.2336 12.8202 10.2913L12.7311 14.7579L12.8202 16.3795C12.8192 16.4086 12.8241 16.4377 12.8346 16.4649C12.8452 16.4921 12.8611 16.5169 12.8814 16.5379C12.9017 16.5588 12.9261 16.5754 12.953 16.5867C12.9799 16.598 13.0088 16.6038 13.0379 16.6037C13.0671 16.6035 13.096 16.5975 13.1228 16.586C13.1496 16.5745 13.1738 16.5576 13.1939 16.5365C13.2141 16.5154 13.2298 16.4905 13.24 16.4632C13.2503 16.4359 13.255 16.4067 13.2538 16.3776V16.3795L13.3504 14.7579L13.2538 10.2898C13.2534 10.2324 13.2304 10.1775 13.1899 10.1368C13.1494 10.0962 13.0945 10.0731 13.0371 10.0725Z" fill="#202327"/>
</g>
<defs>
<clipPath id="clip0_13_4708">
<rect width="16.0035" height="16.0035" fill="white" transform="translate(5.07306 5.10815)"/>
</clipPath>
</defs>
</svg>
