<svg width="26" height="26" viewBox="0 0 26 26" fill="none" xmlns="http://www.w3.org/2000/svg">
<rect x="0.87616" y="0.907776" width="24.4042" height="24.4042" rx="4.20794" stroke="#7B61FF" stroke-width="0.400757" stroke-dasharray="2 2"/>
<path d="M17.3301 18.8607V15.1099H18.5804V20.111H7.07788V15.1099H8.32815V18.8607H17.3301Z" fill="#202327"/>
<path d="M9.73729 14.7581L15.944 16.0356L16.2065 14.8066L9.99985 13.5291L9.73729 14.7581ZM10.5584 11.8475L16.305 14.484L16.8295 13.3513L11.0838 10.6994L10.5584 11.8475ZM12.1509 9.06563L17.027 13.0596L17.8316 12.1057L12.9555 8.11168L12.1509 9.06563ZM15.3291 6.10718L14.2855 6.85109L18.0619 11.8637L19.08 11.1083L15.3291 6.10718ZM9.57788 17.6097H15.9543V16.3594H9.57788V17.6097Z" fill="#202327"/>
</svg>
