<svg width="26" height="26" viewBox="0 0 26 26" fill="none" xmlns="http://www.w3.org/2000/svg">
<rect x="0.879639" y="0.907776" width="24.4042" height="24.4042" rx="4.20794" stroke="#7B61FF" stroke-width="0.400757" stroke-dasharray="2 2"/>
<g clip-path="url(#clip0_13_4714)">
<path d="M13.0688 5.60986C9.12202 5.60986 5.88882 8.64782 5.58179 12.5083L9.60858 14.1703C9.9602 13.9295 10.3778 13.8008 10.8054 13.8013C10.8454 13.8013 10.8849 13.8024 10.9238 13.8045L12.7148 11.213V11.1767C12.7148 9.61736 13.9857 8.34838 15.5479 8.34838C17.1102 8.34838 18.3811 9.61736 18.3811 11.1767C18.3811 12.7361 17.1102 14.0056 15.5479 14.0056C15.5263 14.0056 15.5052 14.005 15.4836 14.0045L12.9293 15.8232C12.931 15.857 12.932 15.8906 12.932 15.9238C12.932 17.0949 11.9779 18.0473 10.8054 18.0473C9.77616 18.0473 8.91501 17.3136 8.72042 16.3425L5.84019 15.1537C6.73216 18.3018 9.62962 20.6099 13.0688 20.6099C17.2183 20.6099 20.5818 17.2516 20.5818 13.1099C20.5818 8.96766 17.2183 5.60986 13.0688 5.60986ZM10.2899 16.9898L9.36712 16.6091C9.53042 16.9492 9.81366 17.2337 10.1894 17.3899C11.0013 17.7278 11.9376 17.3434 12.276 16.5321C12.4399 16.142 12.4408 15.7036 12.2787 15.3129C12.1165 14.9193 11.81 14.6123 11.417 14.4487C11.0262 14.2867 10.6078 14.2925 10.2402 14.4311L11.1938 14.8246C11.7927 15.0739 12.076 15.7605 11.8262 16.3583C11.577 16.9562 10.8889 17.2391 10.2899 16.9898ZM17.4358 11.1767C17.4358 10.1378 16.5887 9.29179 15.5481 9.29179C14.507 9.29179 13.6599 10.1378 13.6599 11.1767C13.6599 12.2158 14.507 13.0612 15.5481 13.0612C16.5887 13.0612 17.4358 12.2158 17.4358 11.1767ZM14.1329 11.1736C14.1329 10.3917 14.7681 9.7581 15.5509 9.7581C16.3342 9.7581 16.9693 10.3917 16.9693 11.1736C16.9693 11.9554 16.3342 12.5891 15.5508 12.5891C14.7681 12.5891 14.1328 11.9554 14.1328 11.1736L14.1329 11.1736Z" fill="#202327"/>
</g>
<defs>
<clipPath id="clip0_13_4714">
<rect width="16.0035" height="16.0035" fill="white" transform="translate(5.08002 5.10815)"/>
</clipPath>
</defs>
</svg>
