<svg width="26" height="26" viewBox="0 0 26 26" fill="none" xmlns="http://www.w3.org/2000/svg">
<rect x="0.886658" y="0.907776" width="24.4042" height="24.4042" rx="4.20794" stroke="#7B61FF" stroke-width="0.400757" stroke-dasharray="2 2"/>
<g clip-path="url(#clip0_13_4720)">
<path d="M12.6727 15.7455H13.5048V13.4759H15.5993V12.6687H13.5048V10.3992H12.6727V12.6687H10.6047V13.4759H12.6727V15.7455Z" fill="#202327"/>
<path d="M8.81478 19.0225H9.52098V17.0049H11.3873V16.3744H9.52098V14.3318H8.81478V16.3744H6.94849V17.0049H8.81478V19.0225Z" fill="#202327"/>
<path d="M16.6566 11.7343H17.3628V9.71797H19.2541V9.11244H17.3628V7.06982H16.6566V9.11244H14.7903V9.71797H16.6566V11.7343Z" fill="#202327"/>
<path d="M12.7994 20.6122H13.4048V19.1738H14.6915V18.6447H13.4048V17.2063H12.7994V18.6447H11.5383V19.1738H12.7994V20.6122Z" fill="#202327"/>
<path d="M8.84011 11.7343H9.49659V9.69264H11.3882V9.11244H9.4944V7.06982H8.83792V9.11244H6.94849V9.69264H8.84011V11.7343Z" fill="#202327"/>
<path d="M18.7067 14.7623H19.312V13.3496H20.5916V12.7948H19.312V11.3821H18.7067V12.7948H17.4456V13.3496H18.7067V14.7623Z" fill="#202327"/>
<path fill-rule="evenodd" clip-rule="evenodd" d="M16.6566 19.0225H17.3628V17.0049H19.2541V16.3744H17.3628V14.3318H16.6566V16.3744H14.7903V17.0049H16.6566V19.0225Z" fill="#202327"/>
<path d="M14.6829 7.42355V6.99502H13.422V5.60815H12.9681V6.99502H11.7076V7.42355H12.9681V8.81041H13.422V7.42355H14.6829ZM6.84087 14.6604H7.29472V13.2736H8.55655V12.845H7.29472V11.4844H6.84087V12.846H5.58716V13.2998L6.84087 13.2973V14.6604Z" fill="#202327"/>
</g>
<defs>
<clipPath id="clip0_13_4720">
<rect width="16.0035" height="16.0035" fill="white" transform="translate(5.08704 5.10815)"/>
</clipPath>
</defs>
</svg>
