<svg width="26" height="26" viewBox="0 0 26 26" fill="none" xmlns="http://www.w3.org/2000/svg">
<rect x="0.893738" y="0.907776" width="24.4042" height="24.4042" rx="4.20794" stroke="#7B61FF" stroke-width="0.400757" stroke-dasharray="2 2"/>
<path d="M17.2854 6.10742H8.84606C7.30854 6.10742 6.09546 7.3205 6.09546 8.85802V17.2974C6.09546 18.8349 7.30854 20.1105 8.84606 20.1105H17.2854C18.8229 20.1105 20.0985 18.8349 20.0985 17.2974V8.85802C20.0985 7.3205 18.8229 6.10742 17.2854 6.10742ZM15.5975 17.4849H13.9722C12.6434 17.4849 11.7217 16.7447 11.7217 15.1094V12.6088H10.5964V11.1085C11.9252 10.7647 12.4078 9.59818 12.4718 8.60797H13.8471V10.8585H15.4725V12.6088H13.8471L13.835 14.8128C13.835 15.4963 14.1788 15.7326 14.7295 15.7326L15.5975 15.7345V17.4849Z" fill="#202327"/>
</svg>
