<svg width="26" height="26" viewBox="0 0 26 26" fill="none" xmlns="http://www.w3.org/2000/svg">
<rect x="0.897278" y="0.907776" width="24.4042" height="24.4042" rx="4.20794" stroke="#7B61FF" stroke-width="0.400757" stroke-dasharray="2 2"/>
<g clip-path="url(#clip0_13_4729)">
<path d="M18.9644 17.7681C18.9188 17.7434 18.8754 17.72 18.8394 17.6994C18.6372 17.5796 18.4331 17.3705 18.469 17.1421C18.5447 16.6438 18.5594 16.4085 18.4537 16.2422C18.3968 16.1534 18.3127 16.0854 18.214 16.0484V16.0465C18.258 15.9665 18.2846 15.8696 18.3024 15.7302C18.3474 15.3864 18.1461 14.3549 17.8742 13.5203C17.6217 12.7489 16.9603 11.9575 16.477 11.3774L16.3642 11.2417C15.6178 10.3374 15.6034 10.048 15.5343 8.6577C15.5243 8.45547 15.5128 8.22636 15.4978 7.97006C15.4077 6.40253 14.5991 5.60767 13.0988 5.60767C12.3111 5.60767 11.7041 5.83115 11.2947 6.27219C10.9668 6.62507 10.7858 7.10799 10.7858 7.63248C10.7858 8.55518 10.8483 9.28909 10.853 9.32941C10.8968 10.4453 10.8843 10.6178 10.5933 11.1282C10.5235 11.2511 10.3313 11.468 10.1278 11.6974C9.86278 11.9966 9.5624 12.3354 9.39768 12.6108C9.27984 12.808 9.21389 13.0055 9.14419 13.2149C9.03791 13.5341 8.91726 13.8957 8.57688 14.358C8.18398 14.8916 8.09177 15.2835 8.23305 15.8411C8.07864 16.0427 8.08208 16.2903 8.08458 16.4735C8.08898 16.5371 8.08583 16.601 8.0752 16.6638C8.00363 16.9011 7.68699 16.9576 7.38755 16.982C7.33817 16.9858 7.29066 16.9886 7.24534 16.9911C7.01841 17.0033 6.82243 17.0142 6.70991 17.188C6.60145 17.3555 6.6749 17.6193 6.7768 17.9844C6.7993 18.0651 6.82243 18.1485 6.84525 18.2364C6.90245 18.4551 6.84025 18.5639 6.76148 18.7002C6.68521 18.8318 6.59863 18.9815 6.59863 19.2488C6.59863 19.7073 7.22377 19.8114 7.94424 19.9345C8.17429 19.9733 8.41309 20.0136 8.65158 20.0671C9.01492 20.15 9.37111 20.2616 9.71681 20.4009C10.0206 20.5175 10.2607 20.6097 10.5429 20.6097C11.0487 20.6097 11.4259 20.3043 11.7907 20.0092L11.8579 19.9545C12.0308 19.8142 12.5299 19.8295 12.9313 19.8408C13.0394 19.8439 13.1416 19.847 13.2329 19.847H13.4273C13.8486 19.8445 14.4256 19.8414 14.7473 19.9252C14.8645 19.9564 14.9411 20.0414 15.0377 20.1499C15.2211 20.3549 15.4493 20.6109 16.0813 20.6109C16.6874 20.6109 17.005 20.3387 17.3729 20.0233C17.5966 19.8317 17.8279 19.6332 18.1565 19.4651C18.279 19.4025 18.3946 19.3441 18.5028 19.2897C19.2104 18.934 19.6002 18.738 19.6002 18.4201C19.6002 18.1104 19.2176 17.9044 18.9644 17.7681ZM11.6957 7.87003C11.7811 7.87341 11.8636 7.90189 11.933 7.95193C12.0023 8.00196 12.0553 8.07133 12.0855 8.15134C12.1464 8.32482 12.142 8.47704 12.092 8.55581C12.092 8.55581 12.0851 8.52455 12.0808 8.5108C12.0495 8.39933 11.9777 8.30357 11.8795 8.2423C11.8385 8.21587 11.7926 8.19814 11.7445 8.19024C11.6965 8.18233 11.6473 8.18441 11.6 8.19635C11.4669 8.23167 11.3372 8.35264 11.3215 8.78367C11.1603 8.45641 11.2493 8.22105 11.3503 8.06476C11.4225 7.94818 11.5838 7.86691 11.6957 7.87003ZM11.1487 19.5913C11.0984 20.0871 10.5732 20.0796 10.4135 20.0668C10.1069 20.0411 9.7365 19.9202 9.37799 19.8033C9.23671 19.7573 9.09074 19.7095 8.94883 19.6676C8.53624 19.546 8.00738 19.4569 7.58228 19.3863C7.48164 19.3691 7.3863 19.3532 7.29941 19.3378C7.21252 19.3225 7.15532 19.2981 7.13687 19.266C7.10562 19.2144 7.14875 19.1019 7.1972 18.9718C7.26221 18.798 7.35098 18.5586 7.34755 18.2667C7.34755 18.1445 7.3016 18.0072 7.25878 17.8741C7.20814 17.7178 7.15625 17.5562 7.19845 17.4796C7.2369 17.4099 7.40943 17.4018 7.56103 17.4018H7.63167C7.74263 17.4018 7.83859 17.4037 7.90517 17.3852C8.10865 17.3287 8.36964 17.1689 8.46185 16.9514C8.48998 16.8836 8.50467 16.7345 8.52436 16.5138C8.53593 16.385 8.54749 16.2522 8.5625 16.1831C8.56619 16.1654 8.57412 16.149 8.58562 16.1351C8.59711 16.1212 8.61181 16.1103 8.62845 16.1034C8.68002 16.0793 8.84037 16.0437 9.21076 16.2309C9.56021 16.4075 9.92592 17.0386 10.2797 17.649C10.391 17.841 10.496 18.0222 10.6017 18.1917C11.0405 18.8962 11.1903 19.1787 11.1487 19.5913ZM15.1758 18.6049C15.1383 18.7223 15.0907 18.8363 15.0336 18.9456C15.0317 18.9498 15.0282 18.9532 15.0239 18.955C15.0196 18.9568 15.0148 18.9568 15.0104 18.9551C15.0061 18.9534 15.0026 18.9501 15.0006 18.9459C14.9986 18.9417 14.9983 18.9369 14.9998 18.9324C15.0533 18.7454 15.0756 18.5507 15.0658 18.3564C15.058 18.2085 15.0533 18.1191 14.9826 18.0904C14.912 18.0616 14.8495 18.1163 14.6873 18.2635C14.6529 18.2948 14.6135 18.3304 14.5691 18.3698C14.2315 18.6658 13.7289 19.0162 12.8309 19.1003C12.3046 19.15 11.9686 18.9556 11.8645 18.8459C11.8584 18.8394 11.851 18.8341 11.8429 18.8305C11.8347 18.8268 11.8259 18.8248 11.817 18.8246C11.8081 18.8244 11.7992 18.8259 11.7909 18.8291C11.7826 18.8323 11.7749 18.8372 11.7685 18.8434C11.7595 18.8526 11.7532 18.8642 11.7504 18.8769C11.7475 18.8895 11.7483 18.9027 11.7526 18.9149C11.8188 19.1287 11.7901 19.2981 11.7373 19.421C11.7076 19.4897 11.6794 19.4851 11.6747 19.4104C11.6669 19.2653 11.6435 19.1015 11.581 18.9668C11.4838 18.7499 11.3622 18.5186 11.3031 18.408V18.4064C11.4044 18.3598 11.58 18.2554 11.6585 18.0663C11.7369 17.8772 11.7985 17.5037 11.3515 17.0742C11.1552 16.8851 10.6608 16.5379 10.2244 16.2303C9.88372 15.9912 9.53146 15.7439 9.4852 15.683C9.34486 15.4989 9.28609 15.3923 9.26828 15.0688C9.27046 14.9969 9.27234 14.9253 9.27421 14.8534L9.28265 14.7756C9.28323 14.7712 9.28537 14.7672 9.28868 14.7643C9.29198 14.7614 9.29623 14.7598 9.30063 14.7598C9.30502 14.7598 9.30927 14.7614 9.31258 14.7643C9.31588 14.7672 9.31802 14.7712 9.3186 14.7756C9.33143 14.8784 9.35233 14.9799 9.38111 15.0794C9.41487 15.196 9.45613 15.3163 9.49426 15.3664C9.59397 15.4983 9.73056 15.5973 9.85903 15.6317C9.88497 15.6408 9.91272 15.6435 9.93992 15.6396C9.96712 15.6356 9.99298 15.6252 10.0153 15.6092C10.1069 15.5364 10.0981 15.3717 10.0838 15.0985C10.0691 14.8172 10.0491 14.4315 10.1416 14.0186C10.3173 13.2371 10.4826 13.0024 10.692 12.7058C10.7189 12.6676 10.7467 12.6286 10.7749 12.5873C10.8199 12.5223 10.8686 12.4592 10.9208 12.3926C11.1543 12.0922 11.4187 11.7521 11.3559 11.1126C11.34 10.9504 11.3322 10.8366 11.329 10.7566C11.3281 10.7493 11.3297 10.7419 11.3337 10.7357C11.3376 10.7295 11.3436 10.7249 11.3507 10.7227C11.3577 10.7205 11.3653 10.7208 11.3721 10.7236C11.3788 10.7265 11.3844 10.7316 11.3878 10.7382L11.4031 10.7622L11.4409 10.8247C11.5928 11.0748 11.8673 11.5302 12.2255 11.5302C12.2502 11.5302 12.2749 11.528 12.2992 11.5236C13.0303 11.4008 13.9215 10.5781 13.9299 10.57C14.0274 10.4762 14.0187 10.3781 13.9812 10.3228C13.9593 10.2915 13.9271 10.2689 13.8902 10.2591C13.8533 10.2492 13.8141 10.2527 13.7796 10.269C13.6767 10.3128 13.5564 10.3675 13.4289 10.4253C12.9969 10.6213 12.2724 10.9488 12.1083 10.8735C12.0335 10.8322 11.9666 10.7779 11.9107 10.7132C11.9073 10.7108 11.9044 10.7078 11.9022 10.7044C11.9 10.7009 11.8985 10.6971 11.8977 10.693C11.897 10.689 11.897 10.6848 11.8979 10.6808C11.8988 10.6767 11.9004 10.6729 11.9028 10.6695C11.9051 10.6662 11.9081 10.6633 11.9115 10.661C11.915 10.6588 11.9189 10.6573 11.9229 10.6565C11.927 10.6558 11.9311 10.6559 11.9351 10.6567C11.9392 10.6576 11.943 10.6592 11.9464 10.6616C12.1211 10.7332 12.2449 10.7069 12.3902 10.6591L12.4215 10.6485C12.7143 10.5519 12.8653 10.4994 13.3829 10.2709C13.5465 10.1941 13.7166 10.1321 13.8912 10.0855C14.0162 10.0543 14.0918 10.0346 14.1321 9.94986C14.151 9.91508 14.1596 9.87563 14.1568 9.83615C14.154 9.79667 14.1401 9.75881 14.1165 9.727C14.0687 9.66855 13.9893 9.64667 13.8977 9.66761C13.7971 9.69105 13.7508 9.76138 13.6974 9.80796C13.6223 9.87203 13.5411 9.93798 13.1601 10.0783C12.3161 10.3909 12.0792 10.41 11.7469 10.1855C11.4394 9.97643 11.2734 9.77201 11.2734 9.68543C11.2734 9.61885 11.4437 9.50726 11.5456 9.44038C11.5872 9.41318 11.6266 9.38755 11.6588 9.36348C11.7944 9.26284 12.0651 9.00747 12.077 8.99684C12.2458 8.82774 12.6368 8.9287 12.8584 9.07748C12.866 9.08317 12.8747 9.08724 12.884 9.08945C12.8932 9.09165 12.9028 9.09194 12.9122 9.0903C12.921 9.0886 12.9294 9.08514 12.9368 9.08012C12.9443 9.07511 12.9507 9.06865 12.9556 9.06112C12.9605 9.0536 12.9638 9.04516 12.9654 9.03632C12.9669 9.02748 12.9667 9.01841 12.9647 9.00966C12.8334 8.46391 12.9606 8.1551 13.0897 7.99225C13.1553 7.91019 13.2384 7.84381 13.333 7.79795C13.4275 7.7521 13.531 7.72792 13.6361 7.72719C14.0365 7.72719 14.3162 8.03976 14.3162 8.49048C14.3162 8.83431 14.2281 9.01528 14.145 9.12499C14.1403 9.13104 14.1344 9.13603 14.1277 9.13964C14.1209 9.14325 14.1135 9.14538 14.1059 9.14592C14.0983 9.14645 14.0906 9.14536 14.0835 9.14272C14.0763 9.14009 14.0698 9.13596 14.0643 9.13062C14.0555 9.12169 14.0499 9.11003 14.0486 9.09755C14.0472 9.08506 14.0501 9.07248 14.0568 9.06186C14.126 8.9432 14.1622 8.80818 14.1615 8.67083C14.1619 8.60185 14.1485 8.53349 14.1221 8.46975C14.0958 8.40601 14.0569 8.34818 14.0079 8.29965C13.9589 8.25112 13.9006 8.21287 13.8366 8.18713C13.7726 8.1614 13.7041 8.1487 13.6352 8.14978C13.512 8.14978 13.2138 8.19667 13.111 8.63239C13.0859 8.74605 13.0823 8.86341 13.1004 8.9784L13.1029 9.00059C13.131 9.23127 13.5811 9.39161 13.954 9.48538C14.3091 9.57447 14.3603 9.6798 14.2303 10.099C14.1003 10.5181 14.3275 10.9188 14.4085 11.0232C14.5073 11.1445 14.5943 11.2751 14.6682 11.413C14.7533 11.5778 14.8226 11.7502 14.8751 11.9281C14.9429 12.1403 15.0017 12.3235 15.2074 12.5914C15.5534 13.0415 15.7594 14.1117 15.6762 15.0294C15.6697 15.1047 15.6597 15.1635 15.6522 15.2066C15.6387 15.2857 15.6297 15.3379 15.6728 15.3748C15.7159 15.4117 15.7716 15.3967 15.8997 15.3551L16.0069 15.321C16.1362 15.2842 16.2675 15.2549 16.4001 15.2335C16.4107 15.2319 16.4207 15.2277 16.4294 15.2214C16.438 15.2151 16.445 15.2068 16.4498 15.1973C16.557 14.9813 16.5702 14.7215 16.5749 14.4949C16.5749 14.4676 16.5755 14.4385 16.5767 14.4077C16.5827 14.1648 16.5908 13.816 16.4845 13.4075C16.4819 13.3995 16.4825 13.3908 16.4863 13.3832C16.4901 13.3757 16.4967 13.37 16.5047 13.3673C16.5127 13.3647 16.5214 13.3653 16.529 13.3691C16.5365 13.3729 16.5422 13.3795 16.5449 13.3875C16.6519 13.6424 16.722 13.9113 16.753 14.1861C16.8327 14.8919 16.6936 15.1891 16.6924 15.1916C16.6892 15.1981 16.6874 15.2052 16.6872 15.2125C16.6869 15.2197 16.6883 15.2269 16.6911 15.2336C16.6939 15.2403 16.6981 15.2463 16.7035 15.2512C16.7088 15.2561 16.7152 15.2597 16.7221 15.262C16.8055 15.2919 16.8801 15.342 16.9393 15.4079C16.985 15.4598 16.9684 15.4829 16.9037 15.4586C16.776 15.4109 16.6408 15.3867 16.5045 15.387C16.1795 15.387 15.9391 15.5417 15.8322 15.6742C15.7325 15.7974 15.7166 15.914 15.7125 16.0265L15.7106 16.0281C15.4768 16.0046 15.3062 16.0659 15.1646 16.2222L15.1621 16.225C14.9664 16.4672 15.037 16.9948 15.1217 17.4277C15.1617 17.6293 15.2965 18.2248 15.1758 18.6049ZM18.1796 18.9196C17.6885 19.1294 17.3847 19.3732 17.1169 19.5882C16.9403 19.7298 16.773 19.8636 16.5767 19.9677C16.2604 20.1346 15.7981 20.1718 15.5368 19.727C15.4627 19.602 15.5146 19.4188 15.5862 19.1659C15.6815 18.8299 15.8122 18.3701 15.7022 17.7703C15.6728 17.6103 15.6469 17.4731 15.6243 17.3543C15.5368 16.8914 15.5024 16.7173 15.5368 16.5788C15.5565 16.5022 15.644 16.485 15.7203 16.485C15.7478 16.4853 15.7753 16.4873 15.8025 16.491C15.8441 16.6327 15.9191 16.7625 16.0213 16.8692C16.1995 17.0523 16.4473 17.1452 16.7577 17.1458C16.8234 17.1511 17.5685 17.1943 17.8998 16.4456C17.9455 16.4513 18.0139 16.4675 18.0342 16.5175C18.0743 16.6172 18.0258 16.796 17.9867 16.9395C17.9586 17.043 17.9342 17.132 17.9358 17.2011C17.9455 17.7012 18.2796 17.9132 18.7431 18.2063C18.7991 18.2417 18.8575 18.2785 18.9166 18.317C18.9757 18.3554 19.0063 18.3917 19.0063 18.423C18.9901 18.5727 18.3812 18.8337 18.1796 18.9196Z" fill="#202327"/>
</g>
<defs>
<clipPath id="clip0_13_4729">
<rect width="16.0035" height="16.0035" fill="white" transform="translate(5.09766 5.10815)"/>
</clipPath>
</defs>
</svg>
