<svg width="26" height="26" viewBox="0 0 26 26" fill="none" xmlns="http://www.w3.org/2000/svg">
<rect x="0.907898" y="0.907776" width="24.4042" height="24.4042" rx="4.20794" stroke="#7B61FF" stroke-width="0.400757" stroke-dasharray="2 2"/>
<path d="M12.61 20.1107V18.9723C10.126 18.8292 8.61695 17.5495 8.60913 15.6097H10.8596C10.9149 16.433 11.6054 17.0616 12.61 17.1726V14.1094L11.7733 13.8906C9.86659 13.4474 8.84637 12.3468 8.84637 10.6999C8.84637 8.75856 10.237 7.48547 12.61 7.29542V6.10767H13.6102V7.29542C16.0292 7.49234 17.3298 8.78762 17.361 10.6086H15.1105C15.0868 9.85661 14.6158 9.25241 13.6102 9.17083V12.0465L14.5736 12.274C16.5987 12.7172 17.6111 13.7656 17.6111 15.4847C17.6111 17.4958 16.2439 18.7942 13.6102 18.9642V20.1107H12.61ZM12.61 11.8589V9.17083C11.7476 9.21834 11.1325 9.74815 11.1325 10.5002C11.1325 11.1972 11.6448 11.6529 12.61 11.8589ZM13.6102 14.2969V17.1726C14.8027 17.1244 15.3725 16.5812 15.3725 15.742C15.3725 14.9737 14.8027 14.4564 13.6102 14.2969Z" fill="#202327"/>
</svg>
