<svg width="26" height="26" viewBox="0 0 26 26" fill="none" xmlns="http://www.w3.org/2000/svg">
<rect x="0.911438" y="0.907776" width="24.4042" height="24.4042" rx="4.20794" stroke="#7B61FF" stroke-width="0.400757" stroke-dasharray="2 2"/>
<path d="M18.9954 6.10767H7.30881C6.67024 6.10767 6.1123 6.56714 6.1123 7.19822V18.9105C6.1123 19.5453 6.67024 20.1107 7.30881 20.1107H18.992C19.634 20.1107 20.1154 19.5418 20.1154 18.9108V7.19822C20.1191 6.56714 19.634 6.10767 18.9954 6.10767ZM13.8015 17.2038H10.5608L9.26143 9.43464L12.098 9.16521L12.7856 14.6936C13.4273 13.6481 14.2197 12.0055 14.2197 10.8843C14.2197 10.2711 14.1147 9.85286 13.9506 9.50903L16.5333 8.98642C16.8321 9.47965 16.9665 9.98664 16.9665 10.6296C16.9662 12.6769 15.2187 15.3365 13.8015 17.2038Z" fill="#202327"/>
</svg>
