<svg width="26" height="26" viewBox="0 0 26 26" fill="none" xmlns="http://www.w3.org/2000/svg">
<rect x="0.918518" y="0.907776" width="24.4042" height="24.4042" rx="4.20794" stroke="#7B61FF" stroke-width="0.400757" stroke-dasharray="2 2"/>
<path d="M20.0255 8.67027C19.8692 7.93918 19.4782 7.45813 18.7561 7.22402C18.0341 6.98991 16.7269 7.08336 15.8142 7.74882C14.9769 8.35864 14.3683 9.44982 14.1264 10.1956C14.1192 10.2178 14.1184 10.2415 14.1241 10.264C14.1297 10.2866 14.1415 10.3072 14.1581 10.3234C14.1748 10.3397 14.1957 10.3509 14.2184 10.356C14.2411 10.361 14.2648 10.3596 14.2867 10.3519C14.6234 10.2331 14.9656 10.13 15.3494 10.1503C15.8183 10.1753 16.1156 10.5254 16.1281 10.9408C16.1374 11.2468 16.1218 11.525 16.0155 11.806C15.6798 12.7024 15.1525 13.5707 14.5293 14.3299C14.4353 14.4429 14.3307 14.5464 14.2167 14.6391C13.8976 14.8982 13.6288 14.8297 13.4225 14.4765C13.2537 14.1862 13.1412 13.8864 13.0411 13.5676C12.6536 12.3276 12.5157 11.0408 12.2969 9.76926C12.1938 9.16038 12.0781 8.52618 11.7343 7.992C11.3717 7.43594 10.84 7.22371 10.1714 7.30435C9.71197 7.36061 9.01776 7.85103 8.67706 8.12922C8.67706 8.12922 6.92668 9.59422 6.11963 10.3594L6.78227 11.2033C6.78227 11.2033 7.34208 10.8129 7.64215 10.6316C7.82031 10.5257 8.02973 10.5038 8.17976 10.6379C8.32073 10.7598 8.48014 10.9192 8.56454 11.0786C8.7427 11.4127 8.91461 11.7625 9.02401 12.1216C9.4366 13.5054 9.82137 14.8923 10.2058 16.2857C10.4027 16.9977 10.6403 17.6663 11.081 18.2721C11.6846 19.1032 12.3191 19.2935 13.2978 18.9438C14.092 18.6596 14.7546 18.1255 15.3607 17.5725C16.3956 16.6292 17.2086 15.5296 18.0338 14.4112C18.6717 13.5463 19.2 12.6711 19.6407 11.6934C20.0755 10.7251 20.2474 9.70987 20.0255 8.67027Z" fill="#202327"/>
</svg>
