<svg width="26" height="26" viewBox="0 0 26 26" fill="none" xmlns="http://www.w3.org/2000/svg">
<rect x="0.922058" y="0.907776" width="24.4042" height="24.4042" rx="4.20794" stroke="#7B61FF" stroke-width="0.400757" stroke-dasharray="2 2"/>
<g clip-path="url(#clip0_13_4750)">
<path fill-rule="evenodd" clip-rule="evenodd" d="M20.2729 9.23427C20.3841 8.88169 20.2729 8.62538 19.7806 8.62538H18.1437C17.7308 8.62538 17.5401 8.84981 17.4288 9.08986C17.4288 9.08986 16.5868 11.1403 15.4109 12.4697C15.0295 12.8541 14.8548 12.9823 14.6482 12.9823C14.5369 12.9823 14.3938 12.8541 14.3938 12.5019V9.2177C14.3938 8.80136 14.2669 8.60913 13.9171 8.60913H11.3428C11.0884 8.60913 10.9296 8.80136 10.9296 8.99359C10.9296 9.39399 11.5175 9.49026 11.581 10.6114V13.0476C11.581 13.5761 11.4872 13.6727 11.279 13.6727C10.723 13.6727 9.37237 11.6063 8.56219 9.25177C8.40466 8.78542 8.24462 8.60913 7.83141 8.60913H6.17886C5.7022 8.60913 5.6228 8.83324 5.6228 9.07361C5.6228 9.5062 6.17886 11.6845 8.21274 14.5676C9.56335 16.5368 11.486 17.5951 13.2179 17.5951C14.2669 17.5951 14.3938 17.3548 14.3938 16.9544V15.4647C14.3938 14.9843 14.4891 14.9043 14.8229 14.9043C15.0611 14.9043 15.4903 15.0321 16.4595 15.9773C17.5717 17.0985 17.7623 17.6111 18.3821 17.6111H20.0188C20.4954 17.6111 20.718 17.3707 20.5908 16.9062C20.4479 16.4418 19.9075 15.7691 19.2083 14.9683C18.8269 14.5201 18.2549 14.0234 18.0802 13.7831C17.842 13.4627 17.9055 13.3345 18.0802 13.0463C18.0643 13.0463 20.0666 10.1951 20.2729 9.23302" fill="#202327"/>
</g>
<defs>
<clipPath id="clip0_13_4750">
<rect width="16.0035" height="16.0035" fill="white" transform="translate(5.12244 5.10815)"/>
</clipPath>
</defs>
</svg>
