<svg width="26" height="26" viewBox="0 0 26 26" fill="none" xmlns="http://www.w3.org/2000/svg">
<rect x="0.932678" y="0.907776" width="24.4042" height="24.4042" rx="4.20794" stroke="#7B61FF" stroke-width="0.400757" stroke-dasharray="2 2"/>
<g clip-path="url(#clip0_13_4759)">
<path d="M17.9062 14.4395C17.7762 14.4402 17.649 14.4022 17.5407 14.3304C17.4323 14.2587 17.3477 14.1564 17.2975 14.0365C17.2474 13.9166 17.2339 13.7846 17.2589 13.657C17.2839 13.5295 17.3461 13.4122 17.4378 13.3201C17.5295 13.228 17.6464 13.1652 17.7738 13.1396C17.9013 13.114 18.0334 13.1268 18.1535 13.1764C18.2736 13.226 18.3763 13.3101 18.4486 13.4182C18.5209 13.5262 18.5595 13.6532 18.5595 13.7832C18.5601 13.8693 18.5436 13.9546 18.511 14.0344C18.4785 14.1141 18.4304 14.1865 18.3697 14.2476C18.3089 14.3086 18.2367 14.357 18.1571 14.3899C18.0776 14.4229 17.9923 14.4398 17.9062 14.4395ZM14.7127 14.4395C14.5827 14.4402 14.4555 14.4022 14.3472 14.3304C14.2388 14.2587 14.1542 14.1564 14.104 14.0365C14.0539 13.9166 14.0404 13.7846 14.0654 13.657C14.0904 13.5295 14.1526 13.4122 14.2443 13.3201C14.336 13.228 14.4529 13.1652 14.5803 13.1396C14.7078 13.114 14.8399 13.1268 14.96 13.1764C15.0801 13.226 15.1828 13.3101 15.2551 13.4182C15.3274 13.5262 15.3659 13.6532 15.3659 13.7832C15.3666 13.8693 15.3502 13.9547 15.3176 14.0344C15.2851 14.1141 15.237 14.1866 15.1763 14.2477C15.1155 14.3087 15.0433 14.3571 14.9637 14.39C14.8841 14.423 14.7988 14.4398 14.7127 14.4395ZM19.4665 18.1547C20.4827 17.4261 21.136 16.3337 21.136 15.0953C21.136 12.8736 18.9949 11.0522 16.3096 11.0522C13.6243 11.0522 11.4829 12.8736 11.4829 15.0953C11.4829 17.317 13.624 19.1381 16.3096 19.1381C16.8538 19.1381 17.3983 19.0652 17.8699 18.9193C17.9478 18.8924 17.9787 18.8827 18.015 18.8827C18.1045 18.8848 18.1921 18.91 18.2691 18.9558L19.3231 19.575C19.3571 19.5929 19.3939 19.6053 19.4318 19.6116C19.4696 19.609 19.5051 19.5929 19.5319 19.5661C19.5586 19.5393 19.5747 19.5037 19.5772 19.466C19.5748 19.4248 19.5667 19.3842 19.5531 19.3453C19.5403 19.2997 19.3968 18.8452 19.3231 18.5554C19.3163 18.5197 19.3128 18.4834 19.3127 18.447C19.3132 18.3892 19.3276 18.3325 19.3548 18.2816C19.3821 18.2307 19.4212 18.1871 19.469 18.1547" fill="#202327"/>
<path d="M12.8265 10.6882C12.6237 10.6882 12.4291 10.6076 12.2857 10.4642C12.1423 10.3208 12.0617 10.1262 12.0617 9.92336C12.0617 9.72051 12.1423 9.52596 12.2857 9.38253C12.4291 9.23909 12.6237 9.1585 12.8265 9.1585C13.2257 9.1585 13.5886 9.52265 13.5886 9.92336C13.6248 10.3241 13.2619 10.6882 12.8265 10.6882ZM8.98008 10.6882C8.82874 10.6888 8.68063 10.6444 8.55451 10.5608C8.42839 10.4771 8.32992 10.3579 8.27156 10.2183C8.2132 10.0787 8.19758 9.92485 8.22667 9.77633C8.25577 9.62782 8.32827 9.49127 8.43499 9.38397C8.54172 9.27667 8.67788 9.20345 8.82624 9.17357C8.97461 9.14369 9.1285 9.15849 9.26844 9.2161C9.40839 9.27372 9.52809 9.37155 9.61241 9.49723C9.69673 9.6229 9.74187 9.77077 9.74212 9.92211C9.7413 10.1242 9.66084 10.3179 9.51819 10.461C9.37553 10.6042 9.18219 10.6854 8.98008 10.687V10.6882ZM10.9033 6.60889C7.7098 6.60889 5.1333 8.75779 5.1333 11.4537C5.1333 12.9106 5.89534 14.2218 7.12905 15.096C7.23813 15.1683 7.25876 15.3295 7.25876 15.3921C7.26138 15.4397 7.25436 15.4875 7.23813 15.5324C7.12905 15.8965 6.98996 16.486 6.98402 16.5173C6.97808 16.5486 6.94776 16.6267 6.94776 16.663C6.94621 16.6872 6.94983 16.7115 6.95838 16.7343C6.96694 16.757 6.98022 16.7777 6.99736 16.7949C7.0145 16.8121 7.0351 16.8255 7.0578 16.8342C7.0805 16.8429 7.10479 16.8466 7.12905 16.8452C7.16798 16.8427 7.20559 16.8301 7.23813 16.8086L8.50904 16.0797C8.61812 16.0069 8.69064 16.0069 8.79941 16.0069C8.86165 16.0078 8.9232 16.0201 8.98101 16.0431C9.56145 16.2254 10.2147 16.2982 10.868 16.2982H11.1946C11.0756 15.9086 11.0145 15.5037 11.013 15.0964C11.013 12.6558 13.372 10.6892 16.2751 10.6892H16.6017C16.2013 8.39365 13.8064 6.60889 10.9033 6.60889Z" fill="#202327"/>
</g>
<defs>
<clipPath id="clip0_13_4759">
<rect width="16.0035" height="16.0035" fill="white" transform="translate(5.13306 5.10815)"/>
</clipPath>
</defs>
</svg>
