<svg width="26" height="26" viewBox="0 0 26 26" fill="none" xmlns="http://www.w3.org/2000/svg">
<rect x="0.936218" y="0.907776" width="24.4042" height="24.4042" rx="4.20794" stroke="#7B61FF" stroke-width="0.400757" stroke-dasharray="2 2"/>
<path fill-rule="evenodd" clip-rule="evenodd" d="M18.0984 8.14276C17.4511 7.49514 16.6821 6.98195 15.8357 6.63273C14.9892 6.28351 14.0821 6.10516 13.1664 6.10794C9.32369 6.10794 6.19551 9.22049 6.19395 13.047C6.19225 14.2654 6.51342 15.4625 7.12478 16.5165L6.1355 20.111L9.83161 19.1461C10.8547 19.7004 12 19.9904 13.1636 19.99H13.1664C17.0088 19.99 20.1367 16.8772 20.1385 13.051C20.1409 12.1385 19.9617 11.2346 19.6115 10.392C19.2612 9.54934 18.7469 8.78478 18.0984 8.14276ZM13.1664 18.8188H13.1639C12.1266 18.8191 11.1082 18.5415 10.2145 18.0149L10.0029 17.8899L7.80961 18.4625L8.39505 16.3342L8.25721 16.1154C7.6772 15.1972 7.36991 14.1331 7.37108 13.047C7.37108 9.8672 9.97196 7.28007 13.1686 7.28007C14.702 7.27733 16.1738 7.88381 17.2601 8.9661C18.3465 10.0484 18.9584 11.5179 18.9614 13.0513C18.9602 16.2314 16.3605 18.8188 13.1664 18.8188ZM16.3449 14.4995C16.1708 14.4126 15.3134 13.9931 15.1546 13.9353C14.9959 13.8774 14.8786 13.8484 14.7627 14.0222C14.6467 14.196 14.3126 14.5848 14.211 14.702C14.1094 14.8192 14.0078 14.832 13.8337 14.7451C13.6596 14.6582 13.0979 14.4754 12.4325 13.8846C11.9146 13.4248 11.5651 12.8572 11.4635 12.6837C11.3619 12.5103 11.4526 12.4162 11.5398 12.3299C11.6183 12.2521 11.7139 12.1274 11.8011 12.0261C11.8883 11.9248 11.9174 11.8523 11.9752 11.7367C12.033 11.621 12.0043 11.5197 11.9608 11.4332C11.9174 11.3466 11.5689 10.493 11.4238 10.1457C11.2822 9.8075 11.1388 9.85345 11.0319 9.84813C10.9303 9.84313 10.8131 9.84188 10.6977 9.84188C10.6096 9.84418 10.5228 9.86462 10.4429 9.90195C10.363 9.93927 10.2916 9.99267 10.2333 10.0588C10.0735 10.2326 9.62344 10.6527 9.62344 11.5054C9.62344 12.3581 10.2486 13.1832 10.3348 13.2989C10.4211 13.4145 11.5632 15.1659 13.3108 15.917C13.6353 16.0559 13.9669 16.1778 14.3041 16.282C14.7214 16.4139 15.1012 16.3955 15.4013 16.3508C15.736 16.3011 16.4327 15.9313 16.5775 15.5262C16.7222 15.1212 16.7225 14.7742 16.679 14.702C16.6356 14.6298 16.5193 14.586 16.3449 14.4995Z" fill="#202327"/>
</svg>
