<svg width="26" height="26" viewBox="0 0 26 26" fill="none" xmlns="http://www.w3.org/2000/svg">
<rect x="0.943298" y="0.907776" width="24.4042" height="24.4042" rx="4.20794" stroke="#7B61FF" stroke-width="0.400757" stroke-dasharray="2 2"/>
<path d="M13.2398 13.5884L12.2144 16.5801H12.2113L11.4172 18.8653C11.4735 18.8809 11.5267 18.8934 11.5829 18.909H11.5923C12.0971 19.0437 12.6173 19.112 13.1397 19.1122C13.4003 19.1142 13.6606 19.0954 13.9181 19.056C14.2628 19.0128 14.6028 18.9385 14.9341 18.834C15.0154 18.809 15.0967 18.7809 15.178 18.7527C15.0904 18.5652 14.9029 18.1494 14.8935 18.1306L13.2398 13.5884Z" fill="#202327"/>
<path d="M7.66891 10.751C7.35635 11.4574 7.1438 12.3263 7.1438 13.1109C7.1438 13.3078 7.15318 13.5047 7.17193 13.6985C7.3876 15.924 8.82542 17.7931 10.8008 18.6339C10.8821 18.6683 10.9665 18.7027 11.0509 18.734L8.14402 10.7541C7.89396 10.7447 7.84708 10.7604 7.66891 10.751Z" fill="#202327"/>
<path d="M18.5908 10.5907C18.4564 10.3012 18.2985 10.0231 18.1189 9.75923C18.0689 9.68421 18.0126 9.60919 17.9595 9.53418C17.2822 8.62515 16.3625 7.92535 15.3058 7.51499C14.6165 7.24539 13.8829 7.10756 13.1428 7.10865C12.2463 7.10867 11.3612 7.31006 10.5529 7.69796C9.74469 8.08586 9.03389 8.65035 8.47302 9.34976C8.26984 9.60162 8.08694 9.86918 7.92603 10.1499C8.36987 10.1531 8.91999 10.1531 8.98251 10.1531C9.54825 10.1531 10.4203 10.0843 10.4203 10.0843C10.7141 10.0655 10.7454 10.4938 10.4547 10.5281C10.4547 10.5281 10.1609 10.5625 9.83582 10.5782L11.8019 16.4232L12.9834 12.8818L12.1457 10.5813C11.8519 10.5657 11.5799 10.5313 11.5799 10.5313C11.2861 10.5156 11.3236 10.0687 11.6112 10.0874C11.6112 10.0874 12.502 10.1562 13.0334 10.1562C13.5991 10.1562 14.4712 10.0874 14.4712 10.0874C14.7619 10.0687 14.7994 10.4969 14.5056 10.5313C14.5056 10.5313 14.2149 10.5657 13.8898 10.5813L15.8371 16.3825L16.3779 14.5822C16.6498 13.882 16.7873 13.3037 16.7873 12.8411C16.7873 12.1754 16.5467 11.7128 16.3404 11.3533C16.0684 10.9064 15.8121 10.5313 15.8121 10.0905C15.8121 9.59356 16.1872 9.13096 16.7186 9.13096H16.7873C17.6063 9.10908 17.8751 9.92176 17.9095 10.475V10.4938C17.922 10.7188 17.9126 10.8845 17.9126 11.0814C17.9126 11.6253 17.8094 12.241 17.5031 13.0131L16.2841 16.5388L15.5871 18.5924C15.6433 18.5674 15.6965 18.5424 15.7527 18.5143C17.525 17.6578 18.8159 15.9512 19.0878 13.9289C19.1281 13.6599 19.148 13.3882 19.1472 13.1162C19.1484 12.2438 18.9585 11.3818 18.5908 10.5907Z" fill="#202327"/>
<path d="M13.1463 6.60777C14.6463 6.60855 16.0998 7.1278 17.2608 8.07757C18.4218 9.02733 19.2187 10.3492 19.5166 11.8193C19.8146 13.2894 19.5952 14.8172 18.8957 16.1441C18.1961 17.4709 17.0594 18.5151 15.6781 19.0999C14.0893 19.7713 12.2988 19.7842 10.7005 19.1355C9.10223 18.4868 7.8271 17.2298 7.15562 15.641C6.48414 14.0522 6.47133 12.2617 7.12 10.6634C7.76866 9.06512 9.02567 7.78999 10.6145 7.11851C11.4155 6.77959 12.2766 6.60588 13.1463 6.60777ZM13.1463 6.10767C9.27952 6.10767 6.14478 9.24241 6.14478 13.1092C6.14478 16.976 9.27952 20.1107 13.1463 20.1107C17.0131 20.1107 20.1478 16.976 20.1478 13.1092C20.1478 9.24241 17.0131 6.10767 13.1463 6.10767Z" fill="#202327"/>
</svg>
