<svg width="26" height="26" viewBox="0 0 26 26" fill="none" xmlns="http://www.w3.org/2000/svg">
<rect x="0.799622" y="0.911194" width="24.4042" height="24.4042" rx="4.20794" stroke="#7B61FF" stroke-width="0.400757" stroke-dasharray="2 2"/>
<path d="M8.96312 12.8732C10.204 11.0415 11.398 9.97253 11.398 9.97253C11.398 9.97253 10.0821 8.44408 8.49739 7.86583L8.39424 7.84082C7.0614 9.00624 6.21925 10.6331 6.03716 12.3942C5.85508 14.1553 6.34657 15.9201 7.41278 17.3335C7.41278 17.196 7.43153 15.1362 8.96312 12.8732Z" fill="#202327"/>
<path d="M20.0035 13.1138C20.0042 12.1149 19.7909 11.1274 19.3779 10.2178C18.9649 9.30824 18.3618 8.49772 17.6092 7.84082L17.5092 7.86895C15.9245 8.4472 14.6055 9.97566 14.6055 9.97566C14.6055 9.97566 15.7995 11.0446 17.0404 12.8763C18.572 15.1393 18.5907 17.1991 18.5876 17.3366C19.5091 16.122 20.0065 14.6385 20.0035 13.1138Z" fill="#202327"/>
<path d="M11.2888 7.6393C12.2046 8.04876 12.9954 8.72079 12.9954 8.72079C12.9954 8.72079 13.7924 8.05189 14.7083 7.6393C15.8585 7.12356 16.7368 7.2861 16.9681 7.34236C15.8009 6.54023 14.4179 6.11084 13.0016 6.11084C11.5854 6.11084 10.2024 6.54023 9.03516 7.34236C9.26021 7.2861 10.1354 7.12044 11.2888 7.6393Z" fill="#202327"/>
<path d="M16.2118 14.2663C14.7646 12.4878 12.9955 11.3313 12.9955 11.3313C12.9955 11.3313 11.2357 12.4878 9.7854 14.2663C8.54138 15.7948 8.07877 16.9169 7.82872 17.6358L7.78809 17.7858C8.44476 18.5184 9.24845 19.1044 10.1468 19.5056C11.0451 19.9068 12.0179 20.1141 13.0017 20.1141C13.9856 20.1141 14.9583 19.9068 15.8567 19.5056C16.755 19.1044 17.5587 18.5184 18.2154 17.7858L18.1716 17.6358C17.9215 16.9169 17.4558 15.7948 16.2118 14.2663Z" fill="#202327"/>
</svg>
