<svg width="26" height="26" viewBox="0 0 26 26" fill="none" xmlns="http://www.w3.org/2000/svg">
<rect x="0.803101" y="0.911194" width="24.4042" height="24.4042" rx="4.20794" stroke="#7B61FF" stroke-width="0.400757" stroke-dasharray="2 2"/>
<path d="M14.8118 14.6096L19.6629 6.11084H16.4122L11.5486 14.6064C11.5425 14.614 11.5392 14.6233 11.5392 14.633C11.5392 14.6427 11.5425 14.6521 11.5486 14.6596L14.6399 20.092C14.6524 20.1139 14.6649 20.1139 14.6899 20.1139H17.9125L14.8087 14.6533C14.8061 14.6462 14.8051 14.6386 14.8056 14.6311C14.8062 14.6236 14.8083 14.6162 14.8118 14.6096Z" fill="#202327"/>
<path d="M11.9386 11.8691L10.0976 8.64335C10.0915 8.63251 10.0823 8.62374 10.0711 8.61817C10.06 8.6126 10.0475 8.61049 10.0351 8.6121H7.03445L8.87548 11.8753C8.87956 11.883 8.88067 11.8919 8.8786 11.9003L6.3468 16.1137H9.37246C9.38271 16.115 9.39311 16.113 9.40212 16.1079C9.41112 16.1029 9.41826 16.095 9.42247 16.0856L11.9386 11.9066C11.9418 11.8943 11.9418 11.8814 11.9386 11.8691Z" fill="#202327"/>
</svg>
