<svg width="26" height="26" viewBox="0 0 26 26" fill="none" xmlns="http://www.w3.org/2000/svg">
<rect x="0.813538" y="0.911194" width="24.4042" height="24.4042" rx="4.20794" stroke="#7B61FF" stroke-width="0.400757" stroke-dasharray="2 2"/>
<g clip-path="url(#clip0_13_4783)">
<path d="M20.9128 9.76232C20.9128 8.35577 19.8782 7.22427 18.5998 7.22427C16.8682 7.14332 15.1022 7.11206 13.2974 7.11206H12.7348C10.9344 7.11206 9.16526 7.14332 7.43363 7.22458C6.15835 7.22458 5.12375 8.36233 5.12375 9.76889C5.04561 10.8813 5.01247 11.9941 5.01435 13.1068C5.01122 14.2195 5.04665 15.3333 5.12062 16.4482C5.12062 17.8547 6.15522 18.9956 7.4305 18.9956C9.24965 19.08 11.1157 19.1175 13.013 19.1144C14.9134 19.1206 16.7742 19.081 18.5954 18.9956C19.8738 18.9956 20.9084 17.8547 20.9084 16.4482C20.9835 15.3323 21.0178 14.2195 21.0147 13.1037C21.0218 11.9909 20.9878 10.8771 20.9128 9.76232ZM11.4845 16.1731V10.0311L16.0167 13.1005L11.4845 16.1731Z" fill="#202327"/>
</g>
<defs>
<clipPath id="clip0_13_4783">
<rect width="16.0035" height="16.0035" fill="white" transform="translate(5.01392 5.11157)"/>
</clipPath>
</defs>
</svg>
