<svg width="17" height="17" viewBox="0 0 17 17" fill="none" xmlns="http://www.w3.org/2000/svg">
<g clip-path="url(#clip0_13_4161)">
<path d="M8.05957 1.18372C8.40412 1.18384 8.73484 1.32097 8.97852 1.56458L14.5781 7.16418L14.584 7.17102C14.8208 7.4162 14.9522 7.74425 14.9492 8.08508C14.9462 8.42591 14.8094 8.75227 14.5684 8.99329C14.3274 9.23416 14.0009 9.37119 13.6602 9.37415C13.5581 9.375 13.4573 9.36239 13.3594 9.33997V13.6837C13.3593 14.0284 13.2222 14.3589 12.9785 14.6027C12.7348 14.8464 12.4042 14.9834 12.0596 14.9835H10.459C10.1143 14.9835 9.7838 14.8464 9.54004 14.6027C9.29628 14.3589 9.15923 14.0284 9.15918 13.6837V12.0831C9.15907 12.0037 9.12745 11.9274 9.07129 11.8712C9.0151 11.8151 8.93881 11.7834 8.85938 11.7833H7.25879C7.17936 11.7834 7.10305 11.8151 7.04688 11.8712C6.99071 11.9274 6.95909 12.0037 6.95898 12.0831V13.6837C6.95894 14.0284 6.82188 14.3589 6.57812 14.6027C6.33435 14.8464 6.00391 14.9835 5.65918 14.9835H4.05957C3.71479 14.9835 3.38345 14.8465 3.13965 14.6027C2.896 14.3589 2.75883 14.0284 2.75879 13.6837V9.33997C2.66084 9.36239 2.5601 9.375 2.45801 9.37415C2.11725 9.37118 1.79081 9.23418 1.5498 8.99329C1.30879 8.75227 1.17193 8.42591 1.16895 8.08508C1.16598 7.74426 1.29742 7.4162 1.53418 7.17102L1.54004 7.16418L7.13965 1.56458C7.38343 1.32086 7.71486 1.18372 8.05957 1.18372Z" stroke="#0C092A"/>
</g>
<defs>
<clipPath id="clip0_13_4161">
<rect width="16" height="16" fill="white" transform="translate(0.0591431 0.0834961)"/>
</clipPath>
</defs>
</svg>
