<svg width="17" height="17" viewBox="0 0 17 17" fill="none" xmlns="http://www.w3.org/2000/svg">
<path d="M8.62471 1.91794C8.47469 1.76797 8.27125 1.68372 8.05911 1.68372C7.84698 1.68372 7.64354 1.76797 7.49351 1.91794L1.89351 7.51794C1.74779 7.66883 1.66715 7.87091 1.66898 8.08067C1.6708 8.29042 1.75493 8.49107 1.90326 8.6394C2.05159 8.78773 2.25224 8.87186 2.46199 8.87368C2.67175 8.87551 2.87383 8.79487 3.02471 8.64914L3.25911 8.41474V13.6835C3.25911 13.8957 3.3434 14.0992 3.49343 14.2492C3.64346 14.3993 3.84694 14.4835 4.05911 14.4835H5.65911C5.87129 14.4835 6.07477 14.3993 6.2248 14.2492C6.37483 14.0992 6.45911 13.8957 6.45911 13.6835V12.0835C6.45911 11.8714 6.5434 11.6679 6.69343 11.5179C6.84346 11.3678 7.04694 11.2835 7.25911 11.2835H8.85911C9.07129 11.2835 9.27477 11.3678 9.4248 11.5179C9.57483 11.6679 9.65911 11.8714 9.65911 12.0835V13.6835C9.65911 13.8957 9.7434 14.0992 9.89343 14.2492C10.0435 14.3993 10.2469 14.4835 10.4591 14.4835H12.0591C12.2713 14.4835 12.4748 14.3993 12.6248 14.2492C12.7748 14.0992 12.8591 13.8957 12.8591 13.6835V8.41474L13.0935 8.64914C13.2444 8.79487 13.4465 8.87551 13.6562 8.87368C13.866 8.87186 14.0666 8.78773 14.215 8.6394C14.3633 8.49107 14.4474 8.29042 14.4493 8.08067C14.4511 7.87091 14.3704 7.66883 14.2247 7.51794L8.62471 1.91794Z" fill="#0C092A"/>
</svg>
