<svg width="26" height="26" viewBox="0 0 26 26" fill="none" xmlns="http://www.w3.org/2000/svg">
<rect x="0.80658" y="0.904236" width="24.4042" height="24.4042" rx="4.20794" stroke="#7B61FF" stroke-width="0.400757" stroke-dasharray="2 2"/>
<g clip-path="url(#clip0_13_4525)">
<path d="M16.9131 11.3248L18.2406 9.02519C18.2762 8.96346 18.2859 8.89016 18.2676 8.82129C18.2493 8.75242 18.2046 8.69358 18.1431 8.65761C18.1127 8.63978 18.0791 8.62815 18.0442 8.6234C18.0092 8.61865 17.9737 8.62088 17.9397 8.62995C17.9056 8.63902 17.8737 8.65475 17.8458 8.67624C17.8179 8.69773 17.7945 8.72455 17.777 8.75513L16.433 11.0844C15.4068 10.6155 14.2519 10.3545 13.0098 10.3545C11.7676 10.3545 10.6127 10.6159 9.58651 11.0844L8.24247 8.75513C8.20666 8.69346 8.14781 8.64853 8.07888 8.63025C8.00994 8.61196 7.93657 8.6218 7.87489 8.65761C7.81322 8.69343 7.76829 8.75227 7.75 8.82121C7.73171 8.89014 7.74156 8.96352 7.77737 9.02519L9.10172 11.3248C6.81372 12.5638 5.26307 14.8808 5.00708 17.5933H21.0106C20.7546 14.8808 19.2039 12.5638 16.9131 11.3248ZM9.33458 15.3459C9.20192 15.3459 9.07223 15.3066 8.96192 15.2329C8.85162 15.1592 8.76564 15.0544 8.71487 14.9319C8.6641 14.8093 8.65082 14.6744 8.6767 14.5443C8.70258 14.4142 8.76647 14.2947 8.86028 14.2009C8.95409 14.1071 9.07361 14.0432 9.20372 14.0173C9.33384 13.9914 9.46871 14.0047 9.59128 14.0555C9.71384 14.1062 9.8186 14.1922 9.89231 14.3025C9.96602 14.4128 10.0054 14.5425 10.0054 14.6752C10.0053 14.853 9.93458 15.0236 9.8088 15.1494C9.68302 15.2752 9.51246 15.3459 9.33458 15.3459ZM16.6799 15.3459C16.5474 15.3454 16.418 15.3056 16.308 15.2315C16.1981 15.1575 16.1126 15.0525 16.0622 14.9299C16.0119 14.8073 15.999 14.6725 16.0252 14.5426C16.0514 14.4127 16.1155 14.2934 16.2094 14.1999C16.3034 14.1064 16.4229 14.0427 16.5529 14.0171C16.683 13.9914 16.8177 14.0049 16.9401 14.0557C17.0625 14.1066 17.1671 14.1926 17.2407 14.3028C17.3142 14.413 17.3535 14.5426 17.3535 14.6752C17.3535 14.7634 17.336 14.8507 17.3022 14.9322C17.2684 15.0136 17.2189 15.0876 17.1564 15.1499C17.094 15.2122 17.0199 15.2616 16.9383 15.2952C16.8568 15.3289 16.7694 15.3461 16.6812 15.3459H16.6799Z" fill="#202327"/>
</g>
<defs>
<clipPath id="clip0_13_4525">
<rect width="16.0035" height="16.0035" fill="white" transform="translate(5.00696 5.10461)"/>
</clipPath>
</defs>
</svg>
