<svg width="26" height="26" viewBox="0 0 26 26" fill="none" xmlns="http://www.w3.org/2000/svg">
<rect x="0.817017" y="0.904236" width="24.4042" height="24.4042" rx="4.20794" stroke="#7B61FF" stroke-width="0.400757" stroke-dasharray="2 2"/>
<g clip-path="url(#clip0_13_4534)">
<path fill-rule="evenodd" clip-rule="evenodd" d="M12.7674 5.67212C12.9233 5.58114 13.1162 5.58114 13.2722 5.67212L14.9876 6.67274C15.2266 6.81214 15.3073 7.11887 15.1679 7.35785C15.0285 7.59684 14.7218 7.67756 14.4828 7.53816L13.5205 6.97685L13.5201 8.60733C13.52 8.884 13.2957 9.10822 13.019 9.10816C12.7424 9.10809 12.5182 8.88376 12.5182 8.60709L12.5186 6.97709L11.5567 7.53816C11.3177 7.67756 11.011 7.59684 10.8716 7.35785C10.7322 7.11887 10.8129 6.81214 11.0519 6.67274L12.7674 5.67212ZM9.11162 8.36548C9.25271 8.60346 9.17416 8.91076 8.93618 9.05185L7.99975 9.60701L9.37886 10.4263C9.61672 10.5676 9.69499 10.875 9.55368 11.1129C9.41238 11.3507 9.10501 11.429 8.86715 11.2877L7.51913 10.4868V11.5931C7.51913 11.8698 7.29485 12.0941 7.01819 12.0941C6.74152 12.0941 6.51724 11.8698 6.51724 11.5931V9.60657C6.51724 9.42966 6.61055 9.26587 6.76272 9.17566L8.42524 8.19003C8.66323 8.04894 8.97053 8.12749 9.11162 8.36548ZM16.9281 8.36548C17.0692 8.12749 17.3765 8.04894 17.6145 8.19003L19.277 9.17566C19.4292 9.26587 19.5225 9.42966 19.5225 9.60657V11.5931C19.5225 11.8698 19.2982 12.0941 19.0215 12.0941C18.7449 12.0941 18.5206 11.8698 18.5206 11.5931V10.4868L17.1725 11.2877C16.9346 11.429 16.6272 11.3507 16.4859 11.1128C16.3446 10.875 16.4229 10.5676 16.6608 10.4263L18.04 9.607L17.1035 9.05185C16.8656 8.91076 16.787 8.60346 16.9281 8.36548ZM10.8716 11.8539C11.011 11.6149 11.3177 11.5342 11.5567 11.6736L13.0197 12.527L14.4828 11.6736C14.7218 11.5342 15.0285 11.6149 15.1679 11.8539C15.3073 12.0929 15.2266 12.3996 14.9876 12.539L13.5201 13.395V15.1092C13.5201 15.3858 13.2958 15.6101 13.0192 15.6101C12.7425 15.6101 12.5182 15.3858 12.5182 15.1092V13.3943L11.0519 12.539C10.8129 12.3996 10.7322 12.0929 10.8716 11.8539ZM7.01819 14.121C7.29485 14.121 7.51913 14.3453 7.51913 14.6219V15.7234L8.84478 14.9273C9.08197 14.7849 9.38971 14.8617 9.53214 15.0989C9.67457 15.3361 9.59775 15.6438 9.36056 15.7862L7.99033 16.6091L8.9391 17.1803C9.17612 17.323 9.25258 17.6308 9.10987 17.8678C8.96717 18.1049 8.65934 18.1813 8.42232 18.0386L6.7598 17.0377C6.60928 16.947 6.51724 16.7842 6.51724 16.6085V14.6219C6.51724 14.3453 6.74152 14.121 7.01819 14.121ZM19.0215 14.121C19.2982 14.121 19.5225 14.3453 19.5225 14.6219V16.6085C19.5225 16.7854 19.4292 16.9492 19.277 17.0394L17.6145 18.025C17.3765 18.1661 17.0692 18.0876 16.9281 17.8496C16.787 17.6116 16.8656 17.3043 17.1035 17.1632L18.0403 16.6078L16.6606 15.7873C16.4228 15.6459 16.3446 15.3385 16.4861 15.1007C16.6275 14.8629 16.9349 14.7848 17.1727 14.9262L18.5206 15.7278V14.6219C18.5206 14.3453 18.7449 14.121 19.0215 14.121ZM13.0192 17.1073C13.2958 17.1073 13.5201 17.3316 13.5201 17.6082V19.2368L14.4828 18.6753C14.7218 18.5359 15.0285 18.6166 15.1679 18.8556C15.3073 19.0946 15.2266 19.4013 14.9876 19.5407L13.304 20.5228C13.2231 20.5788 13.125 20.6116 13.0192 20.6116C12.9108 20.6116 12.8104 20.5772 12.7285 20.5186L11.0519 19.5407C10.8129 19.4013 10.7322 19.0946 10.8716 18.8556C11.011 18.6166 11.3177 18.5359 11.5567 18.6753L12.5182 19.2361V17.6082C12.5182 17.3316 12.7425 17.1073 13.0192 17.1073Z" fill="#202327"/>
</g>
<defs>
<clipPath id="clip0_13_4534">
<rect width="16.0035" height="16.0035" fill="white" transform="translate(5.0174 5.10461)"/>
</clipPath>
</defs>
</svg>
