<svg width="26" height="26" viewBox="0 0 26 26" fill="none" xmlns="http://www.w3.org/2000/svg">
<rect x="0.820496" y="0.904236" width="24.4042" height="24.4042" rx="4.20794" stroke="#7B61FF" stroke-width="0.400757" stroke-dasharray="2 2"/>
<path d="M15.9341 9.38269C14.6738 9.38269 14.1412 9.98407 13.2635 9.98407C12.3636 9.98407 11.6772 9.38707 10.5851 9.38707C9.51612 9.38707 8.37619 10.0397 7.65228 11.1515C6.63581 12.7194 6.80835 15.6722 8.45464 18.1877C9.04352 19.0882 9.82994 20.0981 10.8614 20.1091H10.8802C11.7766 20.1091 12.0429 19.5221 13.2766 19.5152H13.2954C14.5106 19.5152 14.7545 20.1056 15.6471 20.1056H15.6659C16.6974 20.0947 17.526 18.9757 18.1149 18.0786C18.5387 17.4335 18.6962 17.1097 19.0213 16.3798C16.6399 15.4759 16.2573 12.0998 18.6125 10.8055C17.8936 9.9053 16.8834 9.38394 15.931 9.38394L15.9341 9.38269Z" fill="#202327"/>
<path d="M15.6577 6.10486C14.9072 6.15583 14.0317 6.63363 13.5189 7.25745C13.0536 7.82281 12.6708 8.66146 12.8209 9.47478H12.881C13.6802 9.47478 14.4982 8.99354 14.976 8.3769C15.4363 7.78997 15.7853 6.9582 15.6577 6.10486Z" fill="#202327"/>
</svg>
