<svg width="26" height="26" viewBox="0 0 26 26" fill="none" xmlns="http://www.w3.org/2000/svg">
<rect x="0.813538" y="0.904236" width="24.4042" height="24.4042" rx="4.20794" stroke="#7B61FF" stroke-width="0.400757" stroke-dasharray="2 2"/>
<path d="M13.0157 6.1051C9.14797 6.1051 6.01416 9.23891 6.01416 13.1066C6.01416 16.9743 9.14797 20.1082 13.0157 20.1082C16.8834 20.1082 20.0172 16.9743 20.0172 13.1066C20.0172 9.23891 16.8834 6.1051 13.0157 6.1051ZM10.3589 16.1664C10.3159 16.2396 10.2544 16.3003 10.1805 16.3423C10.1067 16.3843 10.0231 16.4061 9.93814 16.4055C9.85156 16.4062 9.76649 16.3828 9.69246 16.338C9.63734 16.306 9.58907 16.2635 9.55042 16.2129C9.51177 16.1622 9.4835 16.1044 9.46724 16.0428C9.45098 15.9812 9.44704 15.917 9.45565 15.8539C9.46426 15.7908 9.48525 15.73 9.51742 15.675L9.99534 14.8805C10.0195 14.8394 10.0539 14.8055 10.0953 14.7819C10.1366 14.7583 10.1834 14.746 10.231 14.746H10.3017C10.6483 14.746 10.8908 14.9545 10.9615 15.1564L10.3589 16.1664ZM14.405 14.6035L11.2753 14.607H9.19517C9.12972 14.6072 9.0649 14.5942 9.00463 14.5687C8.94437 14.5432 8.88992 14.5057 8.84459 14.4584C8.79926 14.4112 8.76398 14.3553 8.74091 14.2941C8.71784 14.2328 8.70745 14.1675 8.71037 14.1022C8.72037 13.8396 8.94949 13.6408 9.21048 13.6408H10.7183L12.5059 10.598L11.927 9.6118C11.7967 9.38707 11.8545 9.09075 12.078 8.94947C12.1331 8.91384 12.1948 8.88972 12.2595 8.87855C12.3241 8.86739 12.3904 8.86941 12.4542 8.88451C12.5181 8.89961 12.5782 8.92746 12.631 8.96639C12.6839 9.00533 12.7283 9.05454 12.7616 9.11107L13.071 9.63962H13.0744L13.3842 9.11107C13.4175 9.05483 13.4619 9.00588 13.5145 8.96714C13.5672 8.92841 13.6271 8.90067 13.6908 8.88559C13.7544 8.87051 13.8204 8.86839 13.8848 8.87937C13.9493 8.89034 14.0109 8.91419 14.0659 8.94947C14.2881 9.09075 14.3453 9.38707 14.2141 9.61274L11.8507 13.6417V13.6452H13.6514C13.8771 13.6452 14.16 13.7665 14.2744 13.9615L14.2844 13.9818C14.3854 14.1534 14.4426 14.2713 14.4426 14.4429C14.4409 14.4986 14.4285 14.5535 14.406 14.6045L14.405 14.6035ZM16.8353 14.607H15.9879V14.6104L16.6074 15.6641C16.674 15.775 16.6944 15.9077 16.6642 16.0336C16.634 16.1594 16.5556 16.2684 16.4458 16.337C16.3697 16.3834 16.2824 16.4079 16.1933 16.408C16.1085 16.4079 16.0253 16.386 15.9515 16.3442C15.8778 16.3025 15.8162 16.2424 15.7725 16.1698L14.2881 13.6424L13.5542 12.3877C13.4479 12.2086 13.3902 12.0048 13.3866 11.7965C13.383 11.5883 13.4338 11.3826 13.5339 11.2C13.679 10.944 13.7899 10.8768 13.7899 10.8768L15.4225 13.638H16.8262C17.0888 13.638 17.3141 13.8399 17.3263 14.099C17.3288 14.1649 17.318 14.2306 17.2945 14.2922C17.271 14.3538 17.2353 14.41 17.1895 14.4575C17.1437 14.5049 17.0888 14.5426 17.0281 14.5683C16.9674 14.594 16.9012 14.6071 16.8353 14.607Z" fill="#202327"/>
</svg>
