<svg width="26" height="26" viewBox="0 0 26 26" fill="none" xmlns="http://www.w3.org/2000/svg">
<rect x="0.834412" y="0.904236" width="24.4042" height="24.4042" rx="4.20794" stroke="#7B61FF" stroke-width="0.400757" stroke-dasharray="2 2"/>
<path d="M6.28264 9.76996L12.4527 12.7494C12.6134 12.8259 12.8278 12.8659 13.04 12.8659C13.2523 12.8659 13.4667 12.8259 13.6271 12.7494L19.7971 9.76996C20.1216 9.61368 20.1216 9.358 19.7971 9.20109L13.6271 6.22169C13.4667 6.14511 13.252 6.1051 13.04 6.1051C12.8281 6.1051 12.6134 6.14511 12.4527 6.22169L6.28264 9.20109C5.9582 9.358 5.9582 9.61305 6.28264 9.76996Z" fill="#202327"/>
<path d="M19.7965 12.8227C19.7965 12.8227 18.6697 12.2795 18.5203 12.2063C18.3709 12.1332 18.3305 12.1373 18.1736 12.2101C18.0167 12.2829 13.6226 14.4053 13.6226 14.4053C13.4374 14.4852 13.2374 14.5251 13.0356 14.5222C12.824 14.5222 12.609 14.4818 12.4486 14.4053C12.4486 14.4053 8.17114 12.3423 7.97047 12.2429C7.75324 12.1382 7.69072 12.1382 7.49287 12.232L6.27385 12.819C5.94941 12.9753 5.94941 13.2313 6.27385 13.3879L12.4449 16.3673C12.6052 16.4438 12.82 16.4838 13.0319 16.4838C13.2438 16.4838 13.4585 16.4438 13.6192 16.3673L19.7893 13.3885C20.1209 13.2347 20.1209 12.9796 19.7965 12.8227Z" fill="#202327"/>
<path d="M19.7972 16.4432C19.7972 16.4432 18.6704 15.8999 18.521 15.8258C18.3716 15.7518 18.3312 15.7568 18.1743 15.8296C18.0174 15.9024 13.6271 18.0295 13.6271 18.0295C13.4418 18.1093 13.2418 18.149 13.0401 18.146C12.8285 18.146 12.6134 18.106 12.4528 18.0295C12.4528 18.0295 8.17528 15.9665 7.97492 15.8671C7.75613 15.7611 7.69361 15.7611 7.49701 15.8562L6.27799 16.4432C5.95323 16.5995 5.95323 16.8551 6.27799 17.012L12.4481 19.9914C12.6084 20.0715 12.8232 20.108 13.0351 20.108C13.247 20.108 13.4617 20.068 13.6221 19.9914L19.7934 17.0136C20.1216 16.8551 20.1216 16.6001 19.7972 16.4432Z" fill="#202327"/>
</svg>
