<svg width="26" height="26" viewBox="0 0 26 26" fill="none" xmlns="http://www.w3.org/2000/svg">
<rect x="0.844849" y="0.904236" width="24.4042" height="24.4042" rx="4.20794" stroke="#7B61FF" stroke-width="0.400757" stroke-dasharray="2 2"/>
<g clip-path="url(#clip0_13_4558)">
<path d="M5.04553 7.6051V18.6075H21.049V7.6051H5.04553ZM19.5487 13.0994C19.5487 13.904 19.4987 14.516 19.4309 15.5131C19.363 16.5102 18.8307 17.2116 17.5839 17.3216C16.3371 17.4316 14.5904 17.4419 13.0473 17.4385C11.5157 17.4419 9.76093 17.4351 8.51066 17.3216C7.26039 17.2081 6.73528 16.5089 6.6637 15.5131C6.59212 14.5172 6.54586 13.904 6.54586 13.0994C6.54586 12.2949 6.5493 11.7723 6.6637 10.6858C6.7781 9.59929 7.3826 8.99416 8.51066 8.88413C9.63872 8.77411 11.5826 8.77411 13.0473 8.77411C14.512 8.77411 16.4543 8.77411 17.5839 8.88413C18.7135 8.99416 19.3165 9.60304 19.4309 10.6858C19.5453 11.7685 19.5487 12.2983 19.5487 13.0994Z" fill="#202327"/>
<path d="M16.5352 13.9456V13.9697C16.5352 14.5302 16.1879 14.8603 15.724 14.8603C15.2601 14.8603 14.9475 14.4889 14.9028 13.9697C14.9028 13.9697 14.8618 13.698 14.8618 13.1478C14.8591 12.8491 14.8751 12.5505 14.9096 12.2537C14.9922 11.6691 15.2776 11.3631 15.7412 11.3631C16.2048 11.3631 16.5693 11.762 16.5693 12.3672V12.3844H18.1192C18.1192 11.6313 17.9301 10.9539 17.5487 10.5275C17.1673 10.1011 16.6037 9.88662 15.8547 9.88662C15.5052 9.88225 15.1572 9.93213 14.823 10.0345C14.5114 10.1325 14.2315 10.3117 14.0121 10.5537C13.7861 10.8026 13.6101 11.1327 13.4851 11.5488C13.36 11.9649 13.2975 12.4866 13.2975 13.1203C13.2975 13.7393 13.3491 14.2551 13.4488 14.6712C13.5485 15.0872 13.6989 15.4174 13.899 15.6649C14.092 15.9079 14.3533 16.0875 14.6492 16.1808C14.9514 16.277 15.3057 16.3252 15.7121 16.3252C16.5709 16.3252 17.1895 16.1064 17.5606 15.6821C17.9317 15.2579 18.1117 14.6402 18.1117 13.8287H16.5283C16.5352 13.8287 16.5352 13.9146 16.5352 13.9456Z" fill="#202327"/>
<path d="M11.2129 13.9456V13.9696C11.2129 14.5302 10.8659 14.8603 10.402 14.8603C9.93804 14.8603 9.62543 14.4889 9.58072 13.9696C9.58072 13.9696 9.53977 13.698 9.53977 13.1478C9.53708 12.8491 9.55306 12.5505 9.5876 12.2537C9.67013 11.6691 9.95554 11.3631 10.4191 11.3631C10.8828 11.3631 11.2473 11.7623 11.2473 12.3672V12.3844H12.7978C12.7978 11.6313 12.6103 10.9539 12.2273 10.5275C11.8444 10.1011 11.2816 9.88662 10.5326 9.88662C10.1832 9.88225 9.83516 9.93213 9.50101 10.0345C9.18937 10.1325 8.90947 10.3117 8.69009 10.5537C8.46313 10.8013 8.28807 11.1314 8.16083 11.5475C8.0336 11.9636 7.97327 12.4854 7.97327 13.119C7.97327 13.738 8.02485 14.2538 8.12457 14.6699C8.22429 15.086 8.37466 15.4161 8.57473 15.6637C8.76778 15.9066 9.02907 16.0862 9.325 16.1795C9.62741 16.2758 9.9817 16.3239 10.3879 16.3239C11.2469 16.3239 11.8656 16.1051 12.2367 15.6809C12.6078 15.2567 12.7934 14.639 12.7934 13.8274H11.206C11.2129 13.8287 11.2129 13.9146 11.2129 13.9456Z" fill="#202327"/>
</g>
<defs>
<clipPath id="clip0_13_4558">
<rect width="16.0035" height="16.0035" fill="white" transform="translate(5.04523 5.10461)"/>
</clipPath>
</defs>
</svg>
