<svg width="26" height="26" viewBox="0 0 26 26" fill="none" xmlns="http://www.w3.org/2000/svg">
<rect x="0.855286" y="0.904236" width="24.4042" height="24.4042" rx="4.20794" stroke="#7B61FF" stroke-width="0.400757" stroke-dasharray="2 2"/>
<g clip-path="url(#clip0_13_4567)">
<path d="M14.2873 8.94375L12.0225 7.10559L14.2945 10.9395L14.2873 8.94375Z" fill="#202327"/>
<path d="M15.6652 7.10559V13.2194H14.3649L12.1072 9.52112L12.1678 13.2194H10.7353V9.20605L9.40317 8.10581C9.43881 8.15082 9.47444 8.19583 9.50663 8.24459C9.8639 8.76595 10.0424 9.38859 10.0424 10.1388C10.0424 11.9829 8.94839 13.2182 7.29553 13.2182H5.05566V13.2332L12.1857 19.1082H21.0591V11.5353L15.6652 7.10559Z" fill="#202327"/>
<path d="M8.55428 10.1849C8.55428 9.09668 8.04678 8.49255 7.13527 8.49255H6.44922V11.8321H7.12839C8.05741 11.8321 8.55428 11.2543 8.55428 10.1849Z" fill="#202327"/>
</g>
<defs>
<clipPath id="clip0_13_4567">
<rect width="16.0035" height="16.0035" fill="white" transform="translate(5.05566 5.10461)"/>
</clipPath>
</defs>
</svg>
