<svg width="26" height="26" viewBox="0 0 26 26" fill="none" xmlns="http://www.w3.org/2000/svg">
<rect x="0.87616" y="0.904236" width="24.4042" height="24.4042" rx="4.20794" stroke="#7B61FF" stroke-width="0.400757" stroke-dasharray="2 2"/>
<g clip-path="url(#clip0_13_4585)">
<path d="M13.0629 5.57336C8.93701 5.57336 5.56128 8.9491 5.56128 13.075C5.56128 17.2009 8.93701 20.5766 13.0629 20.5766C15.7322 20.5766 18.089 19.1638 19.4174 17.0477C19.4428 17.0075 19.4542 16.96 19.4497 16.9127C19.4452 16.8653 19.4251 16.8208 19.3925 16.7861C19.36 16.7514 19.3168 16.7285 19.2698 16.721C19.2229 16.7135 19.1747 16.7217 19.133 16.7445C18.9501 16.8519 18.7575 16.9419 18.5579 17.0134C17.4076 17.4072 16.7731 17.4228 15.9917 17.3884C15.1196 17.3509 14.0569 17.0509 13.3098 16.607C12.5628 16.1632 11.9502 15.5255 11.6188 14.9723C11.2875 14.419 11.0875 13.7251 11.1781 12.8374C11.2688 11.931 12.0971 11.1933 13.066 11.1933C14.1131 11.1933 14.9665 12.0248 14.9665 13.0719C14.9665 13.6032 14.7133 14.0627 14.3882 14.4315C14.3163 14.4972 14.1507 14.7347 14.5695 15.0567C15.0665 15.438 16.1823 15.6193 17.0669 15.5755C17.9515 15.5318 18.9142 15.1817 19.5737 14.4878C20.0988 13.9346 20.5677 13.0469 20.5677 12.0685C20.5645 8.1583 16.9388 5.57336 13.0629 5.57336Z" fill="#202327"/>
</g>
<defs>
<clipPath id="clip0_13_4585">
<rect width="16.0035" height="16.0035" fill="white" transform="translate(5.07654 5.10461)"/>
</clipPath>
</defs>
</svg>
