<svg width="26" height="26" viewBox="0 0 26 26" fill="none" xmlns="http://www.w3.org/2000/svg">
<rect x="0.893738" y="0.904236" width="24.4042" height="24.4042" rx="4.20794" stroke="#7B61FF" stroke-width="0.400757" stroke-dasharray="2 2"/>
<g clip-path="url(#clip0_13_4600)">
<path d="M8.00676 15.3996L9.4899 5.89538C9.54116 5.57124 9.97594 5.49466 10.1294 5.78442L11.7235 8.76788L8.00676 15.3996ZM18.5969 17.607L17.1359 8.95542C17.1253 8.89358 17.098 8.83582 17.057 8.78839C17.0159 8.74096 16.9626 8.70568 16.9029 8.68636C16.8432 8.66704 16.7794 8.66442 16.7183 8.67879C16.6572 8.69316 16.6013 8.72397 16.5564 8.76788L7.59448 17.607L12.5756 20.4798C12.7284 20.5636 12.8999 20.6076 13.0743 20.6076C13.2486 20.6076 13.4201 20.5636 13.573 20.4798L18.5969 17.607ZM14.5447 10.0719L13.4026 7.89831C13.3742 7.84248 13.3309 7.79558 13.2775 7.76283C13.2241 7.73008 13.1627 7.71275 13.1001 7.71275C13.0374 7.71275 12.976 7.73008 12.9226 7.76283C12.8692 7.79558 12.8259 7.84248 12.7975 7.89831L7.77671 16.8487L14.5447 10.0719Z" fill="#202327"/>
</g>
<defs>
<clipPath id="clip0_13_4600">
<rect width="16.0035" height="16.0035" fill="white" transform="translate(5.09412 5.10461)"/>
</clipPath>
</defs>
</svg>
