<svg width="26" height="26" viewBox="0 0 26 26" fill="none" xmlns="http://www.w3.org/2000/svg">
<rect x="0.897278" y="0.904236" width="24.4042" height="24.4042" rx="4.20794" stroke="#7B61FF" stroke-width="0.400757" stroke-dasharray="2 2"/>
<path d="M19.8345 11.1883V11.1861C19.8276 11.1624 19.8204 11.1386 19.8133 11.1149C19.8117 11.1089 19.8098 11.103 19.8079 11.0974C19.7945 11.0524 19.7808 11.0074 19.7664 10.9627L19.7645 10.9564C19.6768 10.6839 19.5724 10.4171 19.4519 10.1575C19.3352 9.90033 19.2005 9.65174 19.0487 9.41358C18.4625 8.47191 17.6621 7.68215 16.7126 7.1087C15.6227 6.45042 14.3732 6.1034 13.0999 6.10535C12.8811 6.10535 12.6623 6.11598 12.4492 6.13661C11.6952 6.216 10.4243 6.487 9.39318 7.39251C13.1468 5.47584 18.1617 7.78385 17.735 12.0754C17.5831 13.607 16.2828 14.6594 15.0722 14.8369C14.8569 14.8698 14.638 14.8721 14.4221 14.8435C11.4655 14.4325 11.6465 12.0091 12.5448 10.973C11.357 10.9655 10.4359 12.4355 10.8835 13.8799C9.85359 11.9676 10.8944 8.97254 13.1005 8.06609C10.5078 7.69101 8.07727 8.94754 7.29616 11.1314C7.38944 10.3332 7.57564 9.54852 7.85097 8.79344C7.85097 8.79344 6.43753 9.91056 6.14935 12.2598C6.14497 12.2961 6.14091 12.3323 6.13716 12.3689C6.13559 12.3814 6.13434 12.3939 6.13309 12.4067C6.12205 12.5161 6.11371 12.6263 6.10809 12.7371C6.10809 12.7456 6.10809 12.754 6.10809 12.7624C6.1059 12.8087 6.10402 12.8562 6.10277 12.9018V12.9409C6.10277 12.9959 6.10059 13.0509 6.10059 13.1063C6.10059 16.973 9.23533 20.1078 13.1021 20.1078C16.9689 20.1078 20.1014 16.9737 20.1014 13.1069C20.1018 12.4581 20.012 11.8124 19.8345 11.1883Z" fill="#202327"/>
</svg>
