<svg width="26" height="26" viewBox="0 0 26 26" fill="none" xmlns="http://www.w3.org/2000/svg">
<rect x="0.900818" y="0.904236" width="24.4042" height="24.4042" rx="4.20794" stroke="#7B61FF" stroke-width="0.400757" stroke-dasharray="2 2"/>
<path d="M13.1033 6.10535C9.25249 6.10535 6.10181 9.25603 6.10181 13.1069C6.10181 16.9577 9.25249 20.1084 13.1033 20.1084C16.9542 20.1084 20.1049 16.9577 20.1049 13.1069C20.1049 9.25603 16.9542 6.10535 13.1033 6.10535ZM10.5353 14.8573C10.1844 14.8686 9.8383 14.7742 9.5418 14.5863C9.2453 14.3985 9.01213 14.1258 8.87258 13.8037C8.73302 13.4816 8.69353 13.125 8.75922 12.7802C8.82492 12.4354 8.99276 12.1183 9.24097 11.8701C9.48917 11.6219 9.80627 11.454 10.1511 11.3883C10.4959 11.3226 10.8525 11.3621 11.1746 11.5017C11.4967 11.6412 11.7693 11.8744 11.9572 12.1709C12.1451 12.4674 12.2395 12.8136 12.2281 13.1644C12.2138 13.6088 12.0308 14.0311 11.7164 14.3455C11.402 14.6599 10.9797 14.8429 10.5353 14.8573ZM15.7864 14.8573C15.4356 14.8686 15.0894 14.7742 14.7929 14.5863C14.4964 14.3985 14.2633 14.1258 14.1237 13.8037C13.9842 13.4816 13.9447 13.125 14.0104 12.7802C14.0761 12.4354 14.2439 12.1183 14.4921 11.8701C14.7403 11.6219 15.0574 11.454 15.4022 11.3883C15.747 11.3226 16.1036 11.3621 16.4257 11.5017C16.7478 11.6412 17.0205 11.8744 17.2084 12.1709C17.3962 12.4674 17.4906 12.8136 17.4793 13.1644C17.4649 13.6088 17.2819 14.0311 16.9675 14.3455C16.6531 14.6599 16.2308 14.8429 15.7864 14.8573Z" fill="#202327"/>
</svg>
