<svg width="26" height="26" viewBox="0 0 26 26" fill="none" xmlns="http://www.w3.org/2000/svg">
<rect x="0.904358" y="0.904236" width="24.4042" height="24.4042" rx="4.20794" stroke="#7B61FF" stroke-width="0.400757" stroke-dasharray="2 2"/>
<path d="M16.8806 6.1051H9.43464C8.40723 6.1051 8.10498 6.88027 8.10498 7.36819V19.2345C8.10498 19.7843 8.39942 19.9884 8.56508 20.0556C8.73074 20.1228 9.1874 20.1807 9.46121 19.8628C9.46121 19.8628 12.9767 15.7716 13.037 15.7109C13.1283 15.6194 13.1283 15.6194 13.2195 15.6194H15.4941C16.4499 15.6194 16.6034 14.9358 16.7034 14.5332C16.7862 14.1959 17.7186 9.40707 18.0303 7.88924C18.2678 6.73024 17.974 6.1051 16.8806 6.1051ZM16.7034 14.5332C16.7862 14.1959 17.7186 9.40707 18.0303 7.88924L16.7034 14.5332ZM16.4409 8.12648L16.1283 9.74339C16.0911 9.92 15.8695 10.106 15.6638 10.106H12.6657C12.3393 10.106 12.1059 10.2979 12.1059 10.6248V11.0452C12.1059 11.3725 12.3409 11.6044 12.6685 11.6044H15.2268C15.4575 11.6044 15.6835 11.8579 15.6332 12.1045C15.5829 12.3512 15.3491 13.5602 15.3206 13.6952C15.2922 13.8302 15.1381 14.0615 14.864 14.0615H12.856C12.4903 14.0615 12.3797 14.1097 12.1349 14.4147C11.8902 14.7198 9.68876 17.3713 9.68876 17.3713C9.66657 17.3969 9.64469 17.3894 9.64469 17.3616V8.10241C9.64469 7.8933 9.82598 7.64825 10.0973 7.64825H16.0717C16.1296 7.64951 16.1865 7.66372 16.2382 7.68983C16.29 7.71595 16.3352 7.7533 16.3706 7.79916C16.406 7.84502 16.4306 7.89821 16.4428 7.95485C16.455 8.01149 16.4543 8.07013 16.4409 8.12648Z" fill="#202327"/>
</svg>
