<svg width="26" height="26" viewBox="0 0 26 26" fill="none" xmlns="http://www.w3.org/2000/svg">
<rect x="0.911438" y="0.904236" width="24.4042" height="24.4042" rx="4.20794" stroke="#7B61FF" stroke-width="0.400757" stroke-dasharray="2 2"/>
<g clip-path="url(#clip0_13_4615)">
<path d="M20.5556 13.9063L19.7685 11.4657C19.7644 11.4433 19.758 11.4213 19.7495 11.4001L18.171 6.49466C18.1296 6.36855 18.0493 6.25881 17.9417 6.18119C17.834 6.10358 17.7045 6.06209 17.5718 6.06269C17.4394 6.06229 17.3104 6.10442 17.2038 6.18286C17.0972 6.26131 17.0185 6.37192 16.9795 6.49841L15.4748 11.1729H10.7238L9.21781 6.4981C9.17896 6.37204 9.10077 6.26173 8.99469 6.18333C8.88861 6.10492 8.76022 6.06253 8.62831 6.06238H8.62487C8.4918 6.06283 8.36229 6.10542 8.25493 6.18403C8.14756 6.26265 8.06786 6.37325 8.02724 6.49997L6.44721 11.4098C6.44721 11.4142 6.44377 11.4179 6.44221 11.4223L5.6411 13.9066C5.5821 14.0885 5.58187 14.2845 5.64044 14.4666C5.69901 14.6487 5.81341 14.8077 5.96742 14.9212L12.8889 19.9976C12.9497 20.0421 13.0231 20.0658 13.0984 20.0654C13.1737 20.065 13.2468 20.0405 13.3071 19.9954L20.2299 14.9212C20.3839 14.8077 20.4983 14.6485 20.5568 14.4664C20.6152 14.2842 20.6148 14.0882 20.5556 13.9063ZM10.2096 11.8899L12.1391 17.8837L7.50775 11.8899H10.2096ZM14.0604 17.8849L15.9105 12.1387L15.9902 11.8886H18.6946L14.5043 17.3083L14.0604 17.8849ZM17.5778 6.9582L18.9334 11.1726H16.2196L17.5778 6.9582ZM15.2447 11.8871L13.0987 18.5492L10.9557 11.8871H15.2447ZM8.62175 6.9582L9.98017 11.1726H7.26926L8.62175 6.9582ZM6.38407 14.3432C6.35136 14.3191 6.32708 14.2853 6.31468 14.2466C6.30228 14.2079 6.30239 14.1662 6.31499 14.1276L6.90887 12.2834L11.2726 17.9281L6.38407 14.3432ZM19.8139 14.3432L14.9247 17.9265L14.9409 17.905L19.2875 12.2822L19.8814 14.1263C19.8941 14.165 19.8944 14.2067 19.8821 14.2455C19.8698 14.2844 19.8456 14.3183 19.8129 14.3426" fill="#202327"/>
</g>
<defs>
<clipPath id="clip0_13_4615">
<rect width="16.0035" height="16.0035" fill="white" transform="translate(5.11182 5.10461)"/>
</clipPath>
</defs>
</svg>
