<svg width="26" height="26" viewBox="0 0 26 26" fill="none" xmlns="http://www.w3.org/2000/svg">
<rect x="0.80658" y="0.907776" width="24.4042" height="24.4042" rx="4.20794" stroke="#7B61FF" stroke-width="0.400757" stroke-dasharray="2 2"/>
<g clip-path="url(#clip0_13_4651)">
<path d="M20.0111 10.5349C20.0111 7.28012 17.8775 6.32616 17.8775 6.32616C16.801 5.83262 14.9537 5.62476 13.0346 5.60913H12.9874C11.0682 5.62476 9.22218 5.83262 8.14632 6.32616C8.14632 6.32616 6.01242 7.28012 6.01242 10.5349C6.01242 11.2804 5.99804 12.1712 6.02148 13.1164C6.099 16.299 6.60536 19.4362 9.55007 20.2151C10.9075 20.5743 12.0734 20.6493 13.0121 20.5977C14.7146 20.5039 15.6689 19.9907 15.6689 19.9907L15.6129 18.7561C15.6129 18.7561 14.3961 19.1396 13.0299 19.0927C11.6762 19.0464 10.248 18.9467 10.0292 17.2857C10.0081 17.1314 9.99768 16.9758 9.99798 16.82C10.9887 17.0412 11.9968 17.1756 13.0108 17.2217C14.0407 17.2689 15.0063 17.1613 15.9871 17.0444C17.8681 16.82 19.506 15.6616 19.7117 14.6036C20.0373 12.9364 20.0111 10.5349 20.0111 10.5349ZM17.4937 14.7283H15.9308V10.9034C15.9308 10.097 15.5914 9.68783 14.9125 9.68783C14.1623 9.68783 13.7854 10.1732 13.7854 11.1331V13.2274H12.2332V11.1331C12.2332 10.1732 11.8581 9.68783 11.106 9.68783C10.4271 9.68783 10.0877 10.097 10.0877 10.9034V14.7283H8.52484V10.7874C8.52484 9.98206 8.73062 9.34244 9.14216 8.86859C9.56726 8.39505 10.1236 8.15218 10.8147 8.15218C11.6143 8.15218 12.2197 8.45913 12.6198 9.07364L13.0096 9.72534L13.3987 9.07364C13.7991 8.45913 14.4042 8.15218 15.2038 8.15218C15.8949 8.15218 16.4513 8.39505 16.8763 8.86859C17.2887 9.34203 17.4945 9.98165 17.4937 10.7874V14.7283Z" fill="#202327"/>
</g>
<defs>
<clipPath id="clip0_13_4651">
<rect width="16.0035" height="16.0035" fill="white" transform="translate(5.00696 5.10815)"/>
</clipPath>
</defs>
</svg>
