<svg width="26" height="26" viewBox="0 0 26 26" fill="none" xmlns="http://www.w3.org/2000/svg">
<rect x="0.810059" y="0.907776" width="24.4042" height="24.4042" rx="4.20794" stroke="#7B61FF" stroke-width="0.400757" stroke-dasharray="2 2"/>
<g clip-path="url(#clip0_13_4654)">
<path d="M5.88611 5.98462V20.2377H20.1392V5.98462H5.88611ZM17.7271 9.36161L16.9626 10.0946C16.8966 10.1449 16.8641 10.2274 16.8776 10.309V15.6939C16.8638 15.7755 16.8966 15.8583 16.9626 15.9083L17.709 16.6413V16.8023H13.9544V16.6413L14.7277 15.8905C14.8037 15.8146 14.8037 15.7921 14.8037 15.6761V11.3236L12.6535 16.7845H12.3628L9.85947 11.3236V14.9838C9.83853 15.1376 9.88979 15.2926 9.99794 15.4039L11.0038 16.6238V16.7848H8.15192V16.6238L9.15776 15.4039C9.26528 15.2923 9.31342 15.1363 9.28748 14.9838V10.7513C9.29935 10.6338 9.25466 10.5175 9.16682 10.4384L8.27288 9.36129V9.20032H11.0488L13.1946 13.906L15.0809 9.20032H17.7271V9.36161Z" fill="#202327"/>
</g>
<defs>
<clipPath id="clip0_13_4654">
<rect width="16.0035" height="16.0035" fill="white" transform="translate(5.01044 5.10815)"/>
</clipPath>
</defs>
</svg>
