<svg width="26" height="26" viewBox="0 0 26 26" fill="none" xmlns="http://www.w3.org/2000/svg">
<rect x="0.848328" y="0.907776" width="24.4042" height="24.4042" rx="4.20794" stroke="#7B61FF" stroke-width="0.400757" stroke-dasharray="2 2"/>
<g clip-path="url(#clip0_13_4687)">
<path d="M17.8854 10.7579C17.7255 10.7033 17.5646 10.6524 17.4025 10.6053C17.4293 10.4959 17.4541 10.3859 17.4768 10.2753C17.8425 8.49674 17.6034 7.06393 16.7873 6.59226C16.0059 6.13966 14.7244 6.61133 13.4316 7.73907C13.3045 7.85035 13.18 7.96496 13.0581 8.0829C12.9768 8.00455 12.8935 7.92786 12.808 7.85285C11.453 6.64696 10.0949 6.13904 9.27975 6.61226C8.49833 7.0658 8.26609 8.41266 8.59522 10.0983C8.62815 10.265 8.66513 10.431 8.70619 10.5963C8.51396 10.651 8.32829 10.7094 8.15075 10.7713C6.56416 11.3261 5.54956 12.196 5.54956 13.0981C5.54956 14.0301 6.63855 14.9647 8.29297 15.5314C8.42717 15.577 8.56261 15.6194 8.69931 15.6586C8.65492 15.8355 8.61564 16.0144 8.58147 16.1953C8.2689 17.8519 8.51271 19.1669 9.29256 19.6176C10.0981 20.083 11.4493 19.6048 12.7664 18.4514C12.8706 18.3601 12.9748 18.2638 13.079 18.1623C13.2107 18.2896 13.3462 18.4132 13.4854 18.533C14.7606 19.6326 16.02 20.0768 16.7986 19.6248C17.6034 19.1578 17.8651 17.745 17.5253 16.0262C17.4992 15.8949 17.4692 15.7609 17.4353 15.6242C17.5303 15.5961 17.6233 15.567 17.7144 15.537C19.4335 14.966 20.5535 14.0426 20.5535 13.099C20.5528 12.1925 19.5057 11.317 17.8854 10.7579ZM13.8532 8.22355C14.9607 7.25741 15.9959 6.87607 16.4679 7.14863C16.9702 7.43901 17.1655 8.60989 16.8498 10.1455C16.829 10.2456 16.8065 10.3453 16.7823 10.4447C16.1214 10.2943 15.4513 10.1882 14.7763 10.1271C14.3898 9.57037 13.9661 9.0404 13.5082 8.54081C13.6203 8.43204 13.7357 8.32628 13.8532 8.22355ZM9.97959 13.8688C10.1152 14.1314 10.257 14.3907 10.405 14.6468C10.5557 14.9081 10.7127 15.1656 10.876 15.4192C10.4116 15.3687 9.95003 15.2943 9.49323 15.1963C9.62576 14.7675 9.78892 14.3221 9.97959 13.8688ZM9.97959 12.3582C9.79205 11.9147 9.63326 11.4783 9.50292 11.057C9.93114 10.961 10.3875 10.8826 10.8632 10.8232C10.7038 11.072 10.5504 11.3244 10.4031 11.5805C10.2558 11.8366 10.1152 12.0959 9.97959 12.3582ZM10.3203 13.1137C10.5178 12.7017 10.7306 12.2977 10.9586 11.9015C11.1863 11.5056 11.4288 11.1188 11.6859 10.741C12.1322 10.7072 12.5898 10.6894 13.0521 10.6894C13.5144 10.6894 13.9748 10.7072 14.4209 10.7413C14.6753 11.1182 14.9163 11.5037 15.1438 11.8978C15.3714 12.2918 15.587 12.694 15.7905 13.1043C15.5897 13.5177 15.3746 13.9234 15.1454 14.3214C14.9181 14.7174 14.6784 15.1054 14.4265 15.4854C13.9811 15.5167 13.52 15.5339 13.0512 15.5339C12.5823 15.5339 12.1301 15.5192 11.6928 15.4908C11.4338 15.1117 11.1893 14.7232 10.9595 14.3252C10.7296 13.9272 10.5172 13.5234 10.3203 13.1137ZM15.7002 14.6425C15.8513 14.3803 15.9963 14.1147 16.1353 13.8457C16.3258 14.2777 16.494 14.7192 16.6392 15.1685C16.177 15.2726 15.7097 15.3524 15.2392 15.4076C15.398 15.1557 15.5516 14.9006 15.7002 14.6425ZM16.1291 12.3585C15.9907 12.0949 15.8468 11.8344 15.6974 11.5771C15.5515 11.3233 15.3995 11.0726 15.2414 10.8251C15.7199 10.8857 16.1791 10.9663 16.6095 11.0648C16.4711 11.5038 16.3107 11.9356 16.1291 12.3585ZM13.0584 8.99997C13.3705 9.34102 13.6652 9.69759 13.9414 10.0683C13.3506 10.0402 12.7595 10.0402 12.1679 10.0683C12.4595 9.68262 12.758 9.32473 13.0584 8.99997ZM9.60232 7.1677C10.1043 6.87639 11.2142 7.29273 12.3842 8.33264C12.4589 8.39922 12.5342 8.46892 12.6092 8.54112C12.1489 9.04064 11.7223 9.57015 11.3321 10.1262C10.6586 10.1868 9.98972 10.2912 9.32976 10.4387C9.29163 10.2854 9.25724 10.1309 9.22661 9.9755C8.94374 8.5305 9.13097 7.4412 9.60232 7.1677ZM8.8706 15.0397C8.74557 15.0041 8.6221 14.9654 8.5002 14.9238C7.76879 14.6737 7.1646 14.3474 6.74982 13.992C6.37849 13.6735 6.19033 13.3556 6.19033 13.0981C6.19033 12.5507 7.00488 11.8525 8.3633 11.3789C8.53396 11.3195 8.70608 11.2653 8.87966 11.2161C9.08141 11.8644 9.32574 12.4988 9.61107 13.1149C9.32234 13.7396 9.07498 14.3826 8.8706 15.0397ZM12.3442 17.9676C11.7619 18.4777 11.1786 18.8393 10.6644 19.0215C10.2024 19.185 9.83456 19.1897 9.61232 19.0612C9.13909 18.7877 8.94217 17.7316 9.21067 16.315C9.24255 16.1483 9.27902 15.9816 9.32007 15.8149C9.98663 15.9585 10.6622 16.0565 11.3421 16.1084C11.7361 16.6673 12.1663 17.1998 12.6299 17.7025C12.5367 17.7941 12.4414 17.8822 12.3442 17.9676ZM13.0762 17.2418C12.7724 16.9133 12.4692 16.5497 12.1735 16.159C12.4609 16.1703 12.7534 16.1759 13.0512 16.1759C13.3569 16.1759 13.6595 16.1693 13.9576 16.1559C13.6825 16.5326 13.3883 16.895 13.0762 17.2418ZM16.9683 18.1354C16.8789 18.618 16.6992 18.94 16.4769 19.0687C16.004 19.3432 14.9929 18.9865 13.9026 18.046C13.7776 17.9385 13.6526 17.8231 13.5254 17.7022C13.9799 17.1975 14.4 16.6629 14.7828 16.1018C15.4665 16.0439 16.1453 15.939 16.8145 15.7877C16.8451 15.9115 16.8722 16.0328 16.8958 16.1515C17.0461 16.9111 17.0677 17.5981 16.9683 18.1354ZM17.5122 14.9272C17.4303 14.9544 17.3459 14.9807 17.2602 15.0063C17.0504 14.3549 16.7965 13.7185 16.5004 13.1015C16.7854 12.4927 17.0293 11.8656 17.2305 11.2242C17.384 11.2689 17.5331 11.3158 17.6766 11.3655C19.065 11.8443 19.9121 12.5532 19.9121 13.0981C19.9121 13.6794 18.9972 14.434 17.5122 14.9272Z" fill="#202327"/>
<path d="M13.0513 14.4427C13.3176 14.4436 13.578 14.3655 13.7998 14.2182C14.0216 14.0709 14.1946 13.8612 14.2971 13.6155C14.3996 13.3698 14.4268 13.0992 14.3754 12.838C14.324 12.5768 14.1963 12.3367 14.0084 12.1482C13.8204 11.9596 13.5808 11.8311 13.3197 11.7789C13.0587 11.7266 12.7881 11.753 12.542 11.8547C12.296 11.9563 12.0857 12.1287 11.9377 12.35C11.7897 12.5713 11.7107 12.8315 11.7107 13.0977C11.7103 13.2741 11.7447 13.4488 11.8119 13.6119C11.8791 13.7749 11.9778 13.9232 12.1023 14.0481C12.2268 14.173 12.3747 14.2721 12.5375 14.3399C12.7004 14.4076 12.875 14.4425 13.0513 14.4427Z" fill="#202327"/>
</g>
<defs>
<clipPath id="clip0_13_4687">
<rect width="16.0035" height="16.0035" fill="white" transform="translate(5.04871 5.10815)"/>
</clipPath>
</defs>
</svg>
