<svg width="26" height="26" viewBox="0 0 26 26" fill="none" xmlns="http://www.w3.org/2000/svg">
<rect x="0.865723" y="0.907776" width="24.4042" height="24.4042" rx="4.20794" stroke="#7B61FF" stroke-width="0.400757" stroke-dasharray="2 2"/>
<path d="M9.00887 14.9589C9.00863 15.25 8.92208 15.5344 8.76019 15.7763C8.59829 16.0183 8.3683 16.2067 8.0993 16.318C7.8303 16.4292 7.53437 16.4582 7.2489 16.4012C6.96344 16.3443 6.70127 16.204 6.49552 15.9981C6.28978 15.7921 6.14971 15.5299 6.09301 15.2443C6.03632 14.9588 6.06554 14.6629 6.17699 14.394C6.28844 14.1251 6.47712 13.8953 6.71916 13.7336C6.96121 13.5719 7.24576 13.4856 7.53685 13.4856H9.00887V14.9589Z" fill="#202327"/>
<path d="M9.74841 14.9577C9.74841 14.5676 9.90341 14.1934 10.1793 13.9175C10.4552 13.6416 10.8294 13.4866 11.2196 13.4866C11.6097 13.4866 11.9839 13.6416 12.2598 13.9175C12.5357 14.1934 12.6907 14.5676 12.6907 14.9577V18.6416C12.6907 19.0317 12.5357 19.4059 12.2598 19.6818C11.9839 19.9577 11.6097 20.1127 11.2196 20.1127C10.8294 20.1127 10.4552 19.9577 10.1793 19.6818C9.90341 19.4059 9.74841 19.0317 9.74841 18.6416V14.9577Z" fill="#202327"/>
<path d="M11.2211 9.05343C10.9301 9.05318 10.6456 8.96664 10.4037 8.80474C10.1618 8.64284 9.97328 8.41286 9.86206 8.14386C9.75084 7.87486 9.72186 7.57892 9.7788 7.29346C9.83574 7.008 9.97604 6.74582 10.182 6.54008C10.3879 6.33434 10.6502 6.19427 10.9357 6.13757C11.2212 6.08087 11.5171 6.1101 11.786 6.22155C12.0549 6.333 12.2847 6.52167 12.4464 6.76372C12.6081 7.00576 12.6944 7.29032 12.6944 7.5814V9.05343H11.2211Z" fill="#202327"/>
<path d="M11.2198 9.79175C11.61 9.79175 11.9842 9.94674 12.2601 10.2226C12.536 10.4985 12.691 10.8727 12.691 11.2629C12.691 11.6531 12.536 12.0273 12.2601 12.3032C11.9842 12.5791 11.61 12.7341 11.2198 12.7341H7.53597C7.1458 12.7341 6.77161 12.5791 6.49571 12.3032C6.21982 12.0273 6.06482 11.6531 6.06482 11.2629C6.06482 10.8727 6.21982 10.4985 6.49571 10.2226C6.77161 9.94674 7.1458 9.79175 7.53597 9.79175H11.2198Z" fill="#202327"/>
<path d="M17.1263 11.264C17.1266 10.9729 17.2131 10.6884 17.375 10.4465C17.5369 10.2046 17.7669 10.0161 18.0359 9.90491C18.3049 9.79368 18.6009 9.76471 18.8863 9.82165C19.1718 9.87859 19.434 10.0189 19.6397 10.2248C19.8454 10.4307 19.9855 10.693 20.0422 10.9785C20.0989 11.264 20.0697 11.5599 19.9582 11.8289C19.8468 12.0978 19.6581 12.3276 19.4161 12.4893C19.174 12.651 18.8895 12.7373 18.5984 12.7373H17.1263V11.264Z" fill="#202327"/>
<path d="M16.386 11.2644C16.386 11.6545 16.231 12.0287 15.9551 12.3046C15.6792 12.5805 15.3051 12.7355 14.9149 12.7355C14.5247 12.7355 14.1505 12.5805 13.8746 12.3046C13.5987 12.0287 13.4437 11.6545 13.4437 11.2644V7.58053C13.4437 7.19036 13.5987 6.81616 13.8746 6.54027C14.1505 6.26437 14.5247 6.10938 14.9149 6.10938C15.3051 6.10938 15.6792 6.26437 15.9551 6.54027C16.231 6.81616 16.386 7.19036 16.386 7.58053V11.2644Z" fill="#202327"/>
<path d="M14.9151 17.1699C15.2061 17.1702 15.4906 17.2567 15.7325 17.4186C15.9744 17.5805 16.1629 17.8105 16.2741 18.0795C16.3854 18.3485 16.4143 18.6444 16.3574 18.9299C16.3005 19.2154 16.1602 19.4775 15.9542 19.6833C15.7483 19.889 15.486 20.0291 15.2005 20.0858C14.915 20.1425 14.6191 20.1133 14.3502 20.0018C14.0813 19.8904 13.8515 19.7017 13.6898 19.4596C13.5281 19.2176 13.4418 18.933 13.4418 18.6419V17.1699H14.9151Z" fill="#202327"/>
<path d="M14.9149 16.4289C14.5247 16.4289 14.1505 16.2739 13.8746 15.998C13.5987 15.7221 13.4437 15.3479 13.4437 14.9577C13.4437 14.5676 13.5987 14.1934 13.8746 13.9175C14.1505 13.6416 14.5247 13.4866 14.9149 13.4866H18.5987C18.9889 13.4866 19.3631 13.6416 19.639 13.9175C19.9149 14.1934 20.0699 14.5676 20.0699 14.9577C20.0699 15.3479 19.9149 15.7221 19.639 15.998C19.3631 16.2739 18.9889 16.4289 18.5987 16.4289H14.9149Z" fill="#202327"/>
</svg>
