<svg width="26" height="26" viewBox="0 0 26 26" fill="none" xmlns="http://www.w3.org/2000/svg">
<rect x="0.890198" y="0.907776" width="24.4042" height="24.4042" rx="4.20794" stroke="#7B61FF" stroke-width="0.400757" stroke-dasharray="2 2"/>
<g clip-path="url(#clip0_13_4723)">
<path d="M17.9741 8.81649C17.8728 8.76415 17.7742 8.70677 17.6787 8.64458C17.4009 8.46093 17.1462 8.24454 16.9201 8.00006C16.3543 7.35273 16.143 6.69603 16.0652 6.23624H16.0683C16.0033 5.85459 16.0302 5.60767 16.0343 5.60767H13.4574V15.5717C13.4574 15.7055 13.4574 15.8377 13.4518 15.9684C13.4518 15.9846 13.4503 15.9996 13.4493 16.0171C13.4493 16.0243 13.4493 16.0318 13.4478 16.0393V16.0449C13.4206 16.4024 13.306 16.7478 13.114 17.0506C12.9221 17.3534 12.6586 17.6045 12.3469 17.7816C12.022 17.9664 11.6545 18.0634 11.2807 18.0629C10.0802 18.0629 9.10713 17.0839 9.10713 15.8749C9.10713 14.6659 10.0802 13.6869 11.2807 13.6869C11.508 13.6867 11.7339 13.7225 11.9499 13.7929L11.9531 11.1692C11.2971 11.0845 10.6307 11.1366 9.99587 11.3223C9.36106 11.508 8.77163 11.8233 8.26476 12.2482C7.82062 12.6341 7.44723 13.0945 7.16139 13.6088C7.05262 13.7963 6.64221 14.5499 6.59252 15.773C6.56126 16.4672 6.76974 17.1864 6.86914 17.4837V17.4899C6.93165 17.665 7.17389 18.2623 7.56867 18.7658C7.887 19.1698 8.26309 19.5246 8.68485 19.8189V19.8126L8.6911 19.8189C9.93856 20.6666 11.3217 20.6109 11.3217 20.6109C11.5611 20.6012 12.3631 20.6109 13.274 20.1793C14.2842 19.7007 14.8593 18.9878 14.8593 18.9878C15.2267 18.5618 15.5189 18.0763 15.7233 17.5521C15.9564 16.9392 16.0343 16.204 16.0343 15.9102V10.6241C16.0655 10.6428 16.4819 10.9182 16.4819 10.9182C16.4819 10.9182 17.0817 11.3027 18.0175 11.553C18.6889 11.7312 19.5935 11.7687 19.5935 11.7687V9.21064C19.2765 9.24502 18.633 9.145 17.9741 8.81649Z" fill="#202327"/>
</g>
<defs>
<clipPath id="clip0_13_4723">
<rect width="16.0035" height="16.0035" fill="white" transform="translate(5.09058 5.10815)"/>
</clipPath>
</defs>
</svg>
