<svg width="26" height="26" viewBox="0 0 26 26" fill="none" xmlns="http://www.w3.org/2000/svg">
<rect x="0.904358" y="0.907776" width="24.4042" height="24.4042" rx="4.20794" stroke="#7B61FF" stroke-width="0.400757" stroke-dasharray="2 2"/>
<g clip-path="url(#clip0_13_4735)">
<path d="M20.6082 8.52986C20.0455 8.77439 19.45 8.9355 18.8407 9.00809C19.481 8.63312 19.9626 8.03743 20.195 7.33272C19.5896 7.68673 18.9284 7.93512 18.2396 8.06726C17.9496 7.76329 17.6008 7.52148 17.2144 7.35652C16.828 7.19156 16.4121 7.10689 15.9919 7.10767C14.2909 7.10767 12.9144 8.46422 12.9144 10.1365C12.9132 10.3691 12.9398 10.601 12.9938 10.8272C11.774 10.7701 10.5797 10.4589 9.48707 9.91367C8.39448 9.36845 7.42772 8.60117 6.64865 7.66092C6.37533 8.12168 6.23078 8.6474 6.23012 9.18312C6.23012 10.2334 6.77805 11.1617 7.60542 11.7055C7.11522 11.6939 6.63508 11.5642 6.20574 11.3273V11.3648C6.20574 12.8339 7.26847 14.0561 8.67502 14.3342C8.41052 14.4048 8.13796 14.4405 7.86422 14.4405C7.66999 14.4409 7.47619 14.422 7.28566 14.3843C7.67668 15.5876 8.81474 16.4628 10.1628 16.4878C9.06742 17.3321 7.72251 17.7884 6.33952 17.785C6.09403 17.7846 5.84877 17.77 5.60498 17.7412C7.01191 18.6396 8.64734 19.1148 10.3166 19.1103C15.9854 19.1103 19.0823 14.4937 19.0823 10.4897C19.0823 10.3584 19.0789 10.2271 19.0726 10.0989C19.6737 9.67137 20.1937 9.14002 20.6082 8.52986Z" fill="#202327"/>
</g>
<defs>
<clipPath id="clip0_13_4735">
<rect width="16.0035" height="16.0035" fill="white" transform="translate(5.10474 5.10815)"/>
</clipPath>
</defs>
</svg>
